<?xml version="1.0" encoding="utf-8" standalone="no"?>
<!DOCTYPE svg PUBLIC "-//W3C//DTD SVG 1.1//EN"
  "http://www.w3.org/Graphics/SVG/1.1/DTD/svg11.dtd">
<svg height="702.439pt" version="1.1" viewBox="0 0 641.366913 702.439" width="641.366913pt" xmlns="http://www.w3.org/2000/svg" xmlns:xlink="http://www.w3.org/1999/xlink">
 <metadata>
  <rdf:RDF xmlns:cc="http://creativecommons.org/ns#" xmlns:dc="http://purl.org/dc/elements/1.1/" xmlns:rdf="http://www.w3.org/1999/02/22-rdf-syntax-ns#">
   <cc:Work>
    <dc:type rdf:resource="http://purl.org/dc/dcmitype/StillImage"/>
    <dc:date>2021-08-26T22:52:14.158459</dc:date>
    <dc:format>image/svg+xml</dc:format>
    <dc:creator>
     <cc:Agent>
      <dc:title>Matplotlib v3.4.2, https://matplotlib.org/</dc:title>
     </cc:Agent>
    </dc:creator>
   </cc:Work>
  </rdf:RDF>
 </metadata>
 <defs>
  <style type="text/css">*{stroke-linecap:butt;stroke-linejoin:round;}</style>
 </defs>
 <g id="figure_1">
  <g id="patch_1">
   <path d="M 0 702.439 
L 641.366913 702.439 
L 641.366913 0 
L 0 0 
z
" style="fill:#ffffff;"/>
  </g>
  <g id="axes_1">
   <g id="patch_2">
    <path d="M 52.02 315.031 
L 334.708687 315.031 
L 334.708687 25.225125 
L 52.02 25.225125 
z
" style="fill:#eaeaf2;"/>
   </g>
   <g id="matplotlib.axis_1">
    <g id="xtick_1">
     <g id="line2d_1">
      <path clip-path="url(#peb5343388e)" d="M 64.455687 315.031 
L 64.455687 25.225125 
" style="fill:none;stroke:#ffffff;stroke-linecap:round;stroke-width:0.8;"/>
     </g>
    </g>
    <g id="xtick_2">
     <g id="line2d_2">
      <path clip-path="url(#peb5343388e)" d="M 119.475787 315.031 
L 119.475787 25.225125 
" style="fill:none;stroke:#ffffff;stroke-linecap:round;stroke-width:0.8;"/>
     </g>
    </g>
    <g id="xtick_3">
     <g id="line2d_3">
      <path clip-path="url(#peb5343388e)" d="M 174.495886 315.031 
L 174.495886 25.225125 
" style="fill:none;stroke:#ffffff;stroke-linecap:round;stroke-width:0.8;"/>
     </g>
    </g>
    <g id="xtick_4">
     <g id="line2d_4">
      <path clip-path="url(#peb5343388e)" d="M 229.515986 315.031 
L 229.515986 25.225125 
" style="fill:none;stroke:#ffffff;stroke-linecap:round;stroke-width:0.8;"/>
     </g>
    </g>
    <g id="xtick_5">
     <g id="line2d_5">
      <path clip-path="url(#peb5343388e)" d="M 284.536085 315.031 
L 284.536085 25.225125 
" style="fill:none;stroke:#ffffff;stroke-linecap:round;stroke-width:0.8;"/>
     </g>
    </g>
   </g>
   <g id="matplotlib.axis_2">
    <g id="ytick_1">
     <g id="line2d_6">
      <path clip-path="url(#peb5343388e)" d="M 52.02 315.031 
L 334.708687 315.031 
" style="fill:none;stroke:#ffffff;stroke-linecap:round;stroke-width:0.8;"/>
     </g>
     <g id="text_1">
      <!-- 0 -->
      <g style="fill:#262626;" transform="translate(35.156156 320.542516)scale(0.154 -0.154)">
       <defs>
        <path d="M 266 2259 
Q 266 3072 433 3567 
Q 600 4063 929 4331 
Q 1259 4600 1759 4600 
Q 2128 4600 2406 4451 
Q 2684 4303 2865 4023 
Q 3047 3744 3150 3342 
Q 3253 2941 3253 2259 
Q 3253 1453 3087 958 
Q 2922 463 2592 192 
Q 2263 -78 1759 -78 
Q 1097 -78 719 397 
Q 266 969 266 2259 
z
M 844 2259 
Q 844 1131 1108 757 
Q 1372 384 1759 384 
Q 2147 384 2411 759 
Q 2675 1134 2675 2259 
Q 2675 3391 2411 3762 
Q 2147 4134 1753 4134 
Q 1366 4134 1134 3806 
Q 844 3388 844 2259 
z
" id="ArialMT-30" transform="scale(0.015625)"/>
       </defs>
       <use xlink:href="#ArialMT-30"/>
      </g>
     </g>
    </g>
    <g id="ytick_2">
     <g id="line2d_7">
      <path clip-path="url(#peb5343388e)" d="M 52.02 272.058462 
L 334.708687 272.058462 
" style="fill:none;stroke:#ffffff;stroke-linecap:round;stroke-width:0.8;"/>
     </g>
     <g id="text_2">
      <!-- 5 -->
      <g style="fill:#262626;" transform="translate(35.156156 277.569978)scale(0.154 -0.154)">
       <defs>
        <path d="M 266 1200 
L 856 1250 
Q 922 819 1161 601 
Q 1400 384 1738 384 
Q 2144 384 2425 690 
Q 2706 997 2706 1503 
Q 2706 1984 2436 2262 
Q 2166 2541 1728 2541 
Q 1456 2541 1237 2417 
Q 1019 2294 894 2097 
L 366 2166 
L 809 4519 
L 3088 4519 
L 3088 3981 
L 1259 3981 
L 1013 2750 
Q 1425 3038 1878 3038 
Q 2478 3038 2890 2622 
Q 3303 2206 3303 1553 
Q 3303 931 2941 478 
Q 2500 -78 1738 -78 
Q 1113 -78 717 272 
Q 322 622 266 1200 
z
" id="ArialMT-35" transform="scale(0.015625)"/>
       </defs>
       <use xlink:href="#ArialMT-35"/>
      </g>
     </g>
    </g>
    <g id="ytick_3">
     <g id="line2d_8">
      <path clip-path="url(#peb5343388e)" d="M 52.02 229.085924 
L 334.708687 229.085924 
" style="fill:none;stroke:#ffffff;stroke-linecap:round;stroke-width:0.8;"/>
     </g>
     <g id="text_3">
      <!-- 10 -->
      <g style="fill:#262626;" transform="translate(26.592312 234.59744)scale(0.154 -0.154)">
       <defs>
        <path d="M 2384 0 
L 1822 0 
L 1822 3584 
Q 1619 3391 1289 3197 
Q 959 3003 697 2906 
L 697 3450 
Q 1169 3672 1522 3987 
Q 1875 4303 2022 4600 
L 2384 4600 
L 2384 0 
z
" id="ArialMT-31" transform="scale(0.015625)"/>
       </defs>
       <use xlink:href="#ArialMT-31"/>
       <use x="55.615234" xlink:href="#ArialMT-30"/>
      </g>
     </g>
    </g>
    <g id="ytick_4">
     <g id="line2d_9">
      <path clip-path="url(#peb5343388e)" d="M 52.02 186.113386 
L 334.708687 186.113386 
" style="fill:none;stroke:#ffffff;stroke-linecap:round;stroke-width:0.8;"/>
     </g>
     <g id="text_4">
      <!-- 15 -->
      <g style="fill:#262626;" transform="translate(26.592312 191.624902)scale(0.154 -0.154)">
       <use xlink:href="#ArialMT-31"/>
       <use x="55.615234" xlink:href="#ArialMT-35"/>
      </g>
     </g>
    </g>
    <g id="ytick_5">
     <g id="line2d_10">
      <path clip-path="url(#peb5343388e)" d="M 52.02 143.140848 
L 334.708687 143.140848 
" style="fill:none;stroke:#ffffff;stroke-linecap:round;stroke-width:0.8;"/>
     </g>
     <g id="text_5">
      <!-- 20 -->
      <g style="fill:#262626;" transform="translate(26.592312 148.652364)scale(0.154 -0.154)">
       <defs>
        <path d="M 3222 541 
L 3222 0 
L 194 0 
Q 188 203 259 391 
Q 375 700 629 1000 
Q 884 1300 1366 1694 
Q 2113 2306 2375 2664 
Q 2638 3022 2638 3341 
Q 2638 3675 2398 3904 
Q 2159 4134 1775 4134 
Q 1369 4134 1125 3890 
Q 881 3647 878 3216 
L 300 3275 
Q 359 3922 746 4261 
Q 1134 4600 1788 4600 
Q 2447 4600 2831 4234 
Q 3216 3869 3216 3328 
Q 3216 3053 3103 2787 
Q 2991 2522 2730 2228 
Q 2469 1934 1863 1422 
Q 1356 997 1212 845 
Q 1069 694 975 541 
L 3222 541 
z
" id="ArialMT-32" transform="scale(0.015625)"/>
       </defs>
       <use xlink:href="#ArialMT-32"/>
       <use x="55.615234" xlink:href="#ArialMT-30"/>
      </g>
     </g>
    </g>
    <g id="ytick_6">
     <g id="line2d_11">
      <path clip-path="url(#peb5343388e)" d="M 52.02 100.16831 
L 334.708687 100.16831 
" style="fill:none;stroke:#ffffff;stroke-linecap:round;stroke-width:0.8;"/>
     </g>
     <g id="text_6">
      <!-- 25 -->
      <g style="fill:#262626;" transform="translate(26.592312 105.679826)scale(0.154 -0.154)">
       <use xlink:href="#ArialMT-32"/>
       <use x="55.615234" xlink:href="#ArialMT-35"/>
      </g>
     </g>
    </g>
    <g id="ytick_7">
     <g id="line2d_12">
      <path clip-path="url(#peb5343388e)" d="M 52.02 57.195772 
L 334.708687 57.195772 
" style="fill:none;stroke:#ffffff;stroke-linecap:round;stroke-width:0.8;"/>
     </g>
     <g id="text_7">
      <!-- 30 -->
      <g style="fill:#262626;" transform="translate(26.592312 62.707288)scale(0.154 -0.154)">
       <defs>
        <path d="M 269 1209 
L 831 1284 
Q 928 806 1161 595 
Q 1394 384 1728 384 
Q 2125 384 2398 659 
Q 2672 934 2672 1341 
Q 2672 1728 2419 1979 
Q 2166 2231 1775 2231 
Q 1616 2231 1378 2169 
L 1441 2663 
Q 1497 2656 1531 2656 
Q 1891 2656 2178 2843 
Q 2466 3031 2466 3422 
Q 2466 3731 2256 3934 
Q 2047 4138 1716 4138 
Q 1388 4138 1169 3931 
Q 950 3725 888 3313 
L 325 3413 
Q 428 3978 793 4289 
Q 1159 4600 1703 4600 
Q 2078 4600 2393 4439 
Q 2709 4278 2876 4000 
Q 3044 3722 3044 3409 
Q 3044 3113 2884 2869 
Q 2725 2625 2413 2481 
Q 2819 2388 3044 2092 
Q 3269 1797 3269 1353 
Q 3269 753 2831 336 
Q 2394 -81 1725 -81 
Q 1122 -81 723 278 
Q 325 638 269 1209 
z
" id="ArialMT-33" transform="scale(0.015625)"/>
       </defs>
       <use xlink:href="#ArialMT-33"/>
       <use x="55.615234" xlink:href="#ArialMT-30"/>
      </g>
     </g>
    </g>
   </g>
   <g id="PolyCollection_1">
    <defs>
     <path d="M 64.869486 -482.284923 
L 64.869486 -387.408 
L 82.002133 -387.408 
L 82.002133 -387.408 
L 99.134781 -387.408 
L 99.134781 -387.408 
L 116.267429 -387.408 
L 116.267429 -387.408 
L 133.400077 -387.408 
L 133.400077 -387.408 
L 150.532724 -387.408 
L 150.532724 -387.408 
L 167.665372 -387.408 
L 167.665372 -387.408 
L 184.79802 -387.408 
L 184.79802 -387.408 
L 201.930667 -387.408 
L 201.930667 -387.408 
L 219.063315 -387.408 
L 219.063315 -387.408 
L 236.195963 -387.408 
L 236.195963 -387.408 
L 253.328611 -387.408 
L 253.328611 -387.408 
L 270.461258 -387.408 
L 270.461258 -387.408 
L 287.593906 -387.408 
L 287.593906 -387.408 
L 304.726554 -387.408 
L 304.726554 -387.408 
L 321.859201 -387.408 
L 321.859201 -387.408 
L 321.859201 -387.408 
L 321.859201 -387.408 
L 321.859201 -387.408 
L 304.726554 -387.408 
L 304.726554 -387.408 
L 287.593906 -387.408 
L 287.593906 -387.408 
L 270.461258 -387.408 
L 270.461258 -387.408 
L 253.328611 -387.408 
L 253.328611 -387.408 
L 236.195963 -387.408 
L 236.195963 -396.033175 
L 219.063315 -396.033175 
L 219.063315 -387.408 
L 201.930667 -387.408 
L 201.930667 -396.033175 
L 184.79802 -396.033175 
L 184.79802 -387.408 
L 167.665372 -387.408 
L 167.665372 -396.033175 
L 150.532724 -396.033175 
L 150.532724 -430.533874 
L 133.400077 -430.533874 
L 133.400077 -413.283525 
L 116.267429 -413.283525 
L 116.267429 -404.65835 
L 99.134781 -404.65835 
L 99.134781 -456.409399 
L 82.002133 -456.409399 
L 82.002133 -482.284923 
L 64.869486 -482.284923 
z
" id="m0f5bc2a3cd" style="stroke:#fc8d62;stroke-width:0.8;"/>
    </defs>
    <g clip-path="url(#peb5343388e)">
     <use style="fill:#fc8d62;fill-opacity:0.25;stroke:#fc8d62;stroke-width:0.8;" x="0" xlink:href="#m0f5bc2a3cd" y="702.439"/>
    </g>
   </g>
   <g id="PolyCollection_2">
    <defs>
     <path d="M 64.869486 -387.408 
L 64.869486 -387.408 
L 82.002133 -387.408 
L 82.002133 -387.408 
L 99.134781 -387.408 
L 99.134781 -387.408 
L 116.267429 -387.408 
L 116.267429 -387.408 
L 133.400077 -387.408 
L 133.400077 -387.408 
L 150.532724 -387.408 
L 150.532724 -387.408 
L 167.665372 -387.408 
L 167.665372 -387.408 
L 184.79802 -387.408 
L 184.79802 -387.408 
L 201.930667 -387.408 
L 201.930667 -387.408 
L 219.063315 -387.408 
L 219.063315 -387.408 
L 236.195963 -387.408 
L 236.195963 -387.408 
L 253.328611 -387.408 
L 253.328611 -387.408 
L 270.461258 -387.408 
L 270.461258 -387.408 
L 287.593906 -387.408 
L 287.593906 -387.408 
L 304.726554 -387.408 
L 304.726554 -387.408 
L 321.859201 -387.408 
L 321.859201 -387.408 
L 321.859201 -387.408 
L 321.859201 -387.408 
L 321.859201 -387.408 
L 304.726554 -387.408 
L 304.726554 -387.408 
L 287.593906 -387.408 
L 287.593906 -387.408 
L 270.461258 -387.408 
L 270.461258 -387.408 
L 253.328611 -387.408 
L 253.328611 -387.408 
L 236.195963 -387.408 
L 236.195963 -387.408 
L 219.063315 -387.408 
L 219.063315 -387.408 
L 201.930667 -387.408 
L 201.930667 -387.408 
L 184.79802 -387.408 
L 184.79802 -387.408 
L 167.665372 -387.408 
L 167.665372 -387.408 
L 150.532724 -387.408 
L 150.532724 -387.408 
L 133.400077 -387.408 
L 133.400077 -387.408 
L 116.267429 -387.408 
L 116.267429 -413.283525 
L 99.134781 -413.283525 
L 99.134781 -637.538071 
L 82.002133 -637.538071 
L 82.002133 -387.408 
L 64.869486 -387.408 
z
" id="me53f18f9e0" style="stroke:#ffd92f;stroke-width:0.8;"/>
    </defs>
    <g clip-path="url(#peb5343388e)">
     <use style="fill:#ffd92f;fill-opacity:0.25;stroke:#ffd92f;stroke-width:0.8;" x="0" xlink:href="#me53f18f9e0" y="702.439"/>
    </g>
   </g>
   <g id="PolyCollection_3">
    <defs>
     <path d="M 64.869486 -663.413595 
L 64.869486 -387.408 
L 82.002133 -387.408 
L 82.002133 -387.408 
L 99.134781 -387.408 
L 99.134781 -387.408 
L 116.267429 -387.408 
L 116.267429 -387.408 
L 133.400077 -387.408 
L 133.400077 -387.408 
L 150.532724 -387.408 
L 150.532724 -387.408 
L 167.665372 -387.408 
L 167.665372 -387.408 
L 184.79802 -387.408 
L 184.79802 -387.408 
L 201.930667 -387.408 
L 201.930667 -387.408 
L 219.063315 -387.408 
L 219.063315 -387.408 
L 236.195963 -387.408 
L 236.195963 -387.408 
L 253.328611 -387.408 
L 253.328611 -387.408 
L 270.461258 -387.408 
L 270.461258 -387.408 
L 287.593906 -387.408 
L 287.593906 -387.408 
L 304.726554 -387.408 
L 304.726554 -387.408 
L 321.859201 -387.408 
L 321.859201 -387.408 
L 321.859201 -387.408 
L 321.859201 -387.408 
L 321.859201 -387.408 
L 304.726554 -387.408 
L 304.726554 -387.408 
L 287.593906 -387.408 
L 287.593906 -387.408 
L 270.461258 -387.408 
L 270.461258 -387.408 
L 253.328611 -387.408 
L 253.328611 -387.408 
L 236.195963 -387.408 
L 236.195963 -387.408 
L 219.063315 -387.408 
L 219.063315 -387.408 
L 201.930667 -387.408 
L 201.930667 -387.408 
L 184.79802 -387.408 
L 184.79802 -387.408 
L 167.665372 -387.408 
L 167.665372 -387.408 
L 150.532724 -387.408 
L 150.532724 -387.408 
L 133.400077 -387.408 
L 133.400077 -387.408 
L 116.267429 -387.408 
L 116.267429 -387.408 
L 99.134781 -387.408 
L 99.134781 -387.408 
L 82.002133 -387.408 
L 82.002133 -663.413595 
L 64.869486 -663.413595 
z
" id="mb26d6825a1" style="stroke:#66c2a5;stroke-width:0.8;"/>
    </defs>
    <g clip-path="url(#peb5343388e)">
     <use style="fill:#66c2a5;fill-opacity:0.25;stroke:#66c2a5;stroke-width:0.8;" x="0" xlink:href="#mb26d6825a1" y="702.439"/>
    </g>
   </g>
   <g id="patch_3">
    <path d="M 52.02 315.031 
L 52.02 25.225125 
" style="fill:none;stroke:#ffffff;stroke-linecap:square;stroke-linejoin:miter;"/>
   </g>
   <g id="patch_4">
    <path d="M 52.02 315.031 
L 334.708687 315.031 
" style="fill:none;stroke:#ffffff;stroke-linecap:square;stroke-linejoin:miter;"/>
   </g>
   <g id="text_8">
    <g id="patch_5">
     <path d="M 273.532065 64.158585 
L 325.66019 64.158585 
Q 329.86019 64.158585 329.86019 59.958585 
L 329.86019 47.174835 
Q 329.86019 42.974835 325.66019 42.974835 
L 273.532065 42.974835 
Q 269.332065 42.974835 269.332065 47.174835 
L 269.332065 59.958585 
Q 269.332065 64.158585 273.532065 64.158585 
z
" style="fill:#eaeaf2;opacity:0.5;stroke:#eaeaf2;stroke-linejoin:miter;stroke-width:0.8;"/>
    </g>
    <!-- AlexNet -->
    <g style="fill:#262626;" transform="translate(273.532065 57.195772)scale(0.14 -0.14)">
     <defs>
      <path d="M 4597 0 
L 3591 0 
L 3191 1041 
L 1359 1041 
L 981 0 
L 0 0 
L 1784 4581 
L 2763 4581 
L 4597 0 
z
M 2894 1813 
L 2263 3513 
L 1644 1813 
L 2894 1813 
z
" id="Arial-BoldMT-41" transform="scale(0.015625)"/>
      <path d="M 459 0 
L 459 4581 
L 1338 4581 
L 1338 0 
L 459 0 
z
" id="Arial-BoldMT-6c" transform="scale(0.015625)"/>
      <path d="M 2381 1056 
L 3256 909 
Q 3088 428 2723 176 
Q 2359 -75 1813 -75 
Q 947 -75 531 491 
Q 203 944 203 1634 
Q 203 2459 634 2926 
Q 1066 3394 1725 3394 
Q 2466 3394 2894 2905 
Q 3322 2416 3303 1406 
L 1103 1406 
Q 1113 1016 1316 798 
Q 1519 581 1822 581 
Q 2028 581 2168 693 
Q 2309 806 2381 1056 
z
M 2431 1944 
Q 2422 2325 2234 2523 
Q 2047 2722 1778 2722 
Q 1491 2722 1303 2513 
Q 1116 2303 1119 1944 
L 2431 1944 
z
" id="Arial-BoldMT-65" transform="scale(0.015625)"/>
      <path d="M 38 0 
L 1234 1709 
L 88 3319 
L 1159 3319 
L 1747 2406 
L 2366 3319 
L 3397 3319 
L 2272 1747 
L 3500 0 
L 2422 0 
L 1747 1028 
L 1066 0 
L 38 0 
z
" id="Arial-BoldMT-78" transform="scale(0.015625)"/>
      <path d="M 475 0 
L 475 4581 
L 1375 4581 
L 3250 1522 
L 3250 4581 
L 4109 4581 
L 4109 0 
L 3181 0 
L 1334 2988 
L 1334 0 
L 475 0 
z
" id="Arial-BoldMT-4e" transform="scale(0.015625)"/>
      <path d="M 1981 3319 
L 1981 2619 
L 1381 2619 
L 1381 1281 
Q 1381 875 1398 808 
Q 1416 741 1477 697 
Q 1538 653 1625 653 
Q 1747 653 1978 738 
L 2053 56 
Q 1747 -75 1359 -75 
Q 1122 -75 931 4 
Q 741 84 652 211 
Q 563 338 528 553 
Q 500 706 500 1172 
L 500 2619 
L 97 2619 
L 97 3319 
L 500 3319 
L 500 3978 
L 1381 4491 
L 1381 3319 
L 1981 3319 
z
" id="Arial-BoldMT-74" transform="scale(0.015625)"/>
     </defs>
     <use xlink:href="#Arial-BoldMT-41"/>
     <use x="72.216797" xlink:href="#Arial-BoldMT-6c"/>
     <use x="100" xlink:href="#Arial-BoldMT-65"/>
     <use x="155.615234" xlink:href="#Arial-BoldMT-78"/>
     <use x="211.230469" xlink:href="#Arial-BoldMT-4e"/>
     <use x="283.447266" xlink:href="#Arial-BoldMT-65"/>
     <use x="339.0625" xlink:href="#Arial-BoldMT-74"/>
    </g>
   </g>
   <g id="text_9">
    <!-- RV v. GV -->
    <g style="fill:#262626;" transform="translate(159.123844 19.225125)scale(0.168 -0.168)">
     <defs>
      <path d="M 503 0 
L 503 4581 
L 2534 4581 
Q 3147 4581 3465 4457 
Q 3784 4334 3975 4021 
Q 4166 3709 4166 3331 
Q 4166 2844 3850 2509 
Q 3534 2175 2875 2084 
Q 3116 1969 3241 1856 
Q 3506 1613 3744 1247 
L 4541 0 
L 3778 0 
L 3172 953 
Q 2906 1366 2734 1584 
Q 2563 1803 2427 1890 
Q 2291 1978 2150 2013 
Q 2047 2034 1813 2034 
L 1109 2034 
L 1109 0 
L 503 0 
z
M 1109 2559 
L 2413 2559 
Q 2828 2559 3062 2645 
Q 3297 2731 3419 2920 
Q 3541 3109 3541 3331 
Q 3541 3656 3305 3865 
Q 3069 4075 2559 4075 
L 1109 4075 
L 1109 2559 
z
" id="ArialMT-52" transform="scale(0.015625)"/>
      <path d="M 1803 0 
L 28 4581 
L 684 4581 
L 1875 1253 
Q 2019 853 2116 503 
Q 2222 878 2363 1253 
L 3600 4581 
L 4219 4581 
L 2425 0 
L 1803 0 
z
" id="ArialMT-56" transform="scale(0.015625)"/>
      <path id="ArialMT-20" transform="scale(0.015625)"/>
      <path d="M 1344 0 
L 81 3319 
L 675 3319 
L 1388 1331 
Q 1503 1009 1600 663 
Q 1675 925 1809 1294 
L 2547 3319 
L 3125 3319 
L 1869 0 
L 1344 0 
z
" id="ArialMT-76" transform="scale(0.015625)"/>
      <path d="M 581 0 
L 581 641 
L 1222 641 
L 1222 0 
L 581 0 
z
" id="ArialMT-2e" transform="scale(0.015625)"/>
      <path d="M 2638 1797 
L 2638 2334 
L 4578 2338 
L 4578 638 
Q 4131 281 3656 101 
Q 3181 -78 2681 -78 
Q 2006 -78 1454 211 
Q 903 500 622 1047 
Q 341 1594 341 2269 
Q 341 2938 620 3517 
Q 900 4097 1425 4378 
Q 1950 4659 2634 4659 
Q 3131 4659 3532 4498 
Q 3934 4338 4162 4050 
Q 4391 3763 4509 3300 
L 3963 3150 
Q 3859 3500 3706 3700 
Q 3553 3900 3268 4020 
Q 2984 4141 2638 4141 
Q 2222 4141 1919 4014 
Q 1616 3888 1430 3681 
Q 1244 3475 1141 3228 
Q 966 2803 966 2306 
Q 966 1694 1177 1281 
Q 1388 869 1791 669 
Q 2194 469 2647 469 
Q 3041 469 3416 620 
Q 3791 772 3984 944 
L 3984 1797 
L 2638 1797 
z
" id="ArialMT-47" transform="scale(0.015625)"/>
     </defs>
     <use xlink:href="#ArialMT-52"/>
     <use x="70.466797" xlink:href="#ArialMT-56"/>
     <use x="137.166016" xlink:href="#ArialMT-20"/>
     <use x="164.949219" xlink:href="#ArialMT-76"/>
     <use x="207.574219" xlink:href="#ArialMT-2e"/>
     <use x="235.357422" xlink:href="#ArialMT-20"/>
     <use x="263.140625" xlink:href="#ArialMT-47"/>
     <use x="340.923828" xlink:href="#ArialMT-56"/>
    </g>
   </g>
  </g>
  <g id="axes_2">
   <g id="patch_6">
    <path d="M 351.478226 315.031 
L 634.166913 315.031 
L 634.166913 25.225125 
L 351.478226 25.225125 
z
" style="fill:#eaeaf2;"/>
   </g>
   <g id="matplotlib.axis_3">
    <g id="xtick_6">
     <g id="line2d_13">
      <path clip-path="url(#p49475c6364)" d="M 363.913913 315.031 
L 363.913913 25.225125 
" style="fill:none;stroke:#ffffff;stroke-linecap:round;stroke-width:0.8;"/>
     </g>
    </g>
    <g id="xtick_7">
     <g id="line2d_14">
      <path clip-path="url(#p49475c6364)" d="M 418.934012 315.031 
L 418.934012 25.225125 
" style="fill:none;stroke:#ffffff;stroke-linecap:round;stroke-width:0.8;"/>
     </g>
    </g>
    <g id="xtick_8">
     <g id="line2d_15">
      <path clip-path="url(#p49475c6364)" d="M 473.954112 315.031 
L 473.954112 25.225125 
" style="fill:none;stroke:#ffffff;stroke-linecap:round;stroke-width:0.8;"/>
     </g>
    </g>
    <g id="xtick_9">
     <g id="line2d_16">
      <path clip-path="url(#p49475c6364)" d="M 528.974211 315.031 
L 528.974211 25.225125 
" style="fill:none;stroke:#ffffff;stroke-linecap:round;stroke-width:0.8;"/>
     </g>
    </g>
    <g id="xtick_10">
     <g id="line2d_17">
      <path clip-path="url(#p49475c6364)" d="M 583.994311 315.031 
L 583.994311 25.225125 
" style="fill:none;stroke:#ffffff;stroke-linecap:round;stroke-width:0.8;"/>
     </g>
    </g>
   </g>
   <g id="matplotlib.axis_4">
    <g id="ytick_8">
     <g id="line2d_18">
      <path clip-path="url(#p49475c6364)" d="M 351.478226 315.031 
L 634.166913 315.031 
" style="fill:none;stroke:#ffffff;stroke-linecap:round;stroke-width:0.8;"/>
     </g>
    </g>
    <g id="ytick_9">
     <g id="line2d_19">
      <path clip-path="url(#p49475c6364)" d="M 351.478226 272.058462 
L 634.166913 272.058462 
" style="fill:none;stroke:#ffffff;stroke-linecap:round;stroke-width:0.8;"/>
     </g>
    </g>
    <g id="ytick_10">
     <g id="line2d_20">
      <path clip-path="url(#p49475c6364)" d="M 351.478226 229.085924 
L 634.166913 229.085924 
" style="fill:none;stroke:#ffffff;stroke-linecap:round;stroke-width:0.8;"/>
     </g>
    </g>
    <g id="ytick_11">
     <g id="line2d_21">
      <path clip-path="url(#p49475c6364)" d="M 351.478226 186.113386 
L 634.166913 186.113386 
" style="fill:none;stroke:#ffffff;stroke-linecap:round;stroke-width:0.8;"/>
     </g>
    </g>
    <g id="ytick_12">
     <g id="line2d_22">
      <path clip-path="url(#p49475c6364)" d="M 351.478226 143.140848 
L 634.166913 143.140848 
" style="fill:none;stroke:#ffffff;stroke-linecap:round;stroke-width:0.8;"/>
     </g>
    </g>
    <g id="ytick_13">
     <g id="line2d_23">
      <path clip-path="url(#p49475c6364)" d="M 351.478226 100.16831 
L 634.166913 100.16831 
" style="fill:none;stroke:#ffffff;stroke-linecap:round;stroke-width:0.8;"/>
     </g>
    </g>
    <g id="ytick_14">
     <g id="line2d_24">
      <path clip-path="url(#p49475c6364)" d="M 351.478226 57.195772 
L 634.166913 57.195772 
" style="fill:none;stroke:#ffffff;stroke-linecap:round;stroke-width:0.8;"/>
     </g>
    </g>
   </g>
   <g id="PolyCollection_4">
    <defs>
     <path d="M 364.327711 -387.408 
L 364.327711 -387.408 
L 381.460359 -387.408 
L 381.460359 -387.408 
L 398.593007 -387.408 
L 398.593007 -387.408 
L 415.725655 -387.408 
L 415.725655 -387.408 
L 432.858302 -387.408 
L 432.858302 -387.408 
L 449.99095 -387.408 
L 449.99095 -387.408 
L 467.123598 -387.408 
L 467.123598 -387.408 
L 484.256245 -387.408 
L 484.256245 -387.408 
L 501.388893 -387.408 
L 501.388893 -387.408 
L 518.521541 -387.408 
L 518.521541 -387.408 
L 535.654189 -387.408 
L 535.654189 -387.408 
L 552.786836 -387.408 
L 552.786836 -387.408 
L 569.919484 -387.408 
L 569.919484 -387.408 
L 587.052132 -387.408 
L 587.052132 -387.408 
L 604.184779 -387.408 
L 604.184779 -387.408 
L 621.317427 -387.408 
L 621.317427 -387.408 
L 621.317427 -396.033175 
L 621.317427 -396.033175 
L 621.317427 -396.033175 
L 604.184779 -396.033175 
L 604.184779 -396.033175 
L 587.052132 -396.033175 
L 587.052132 -387.408 
L 569.919484 -387.408 
L 569.919484 -396.033175 
L 552.786836 -396.033175 
L 552.786836 -387.408 
L 535.654189 -387.408 
L 535.654189 -396.033175 
L 518.521541 -396.033175 
L 518.521541 -413.283525 
L 501.388893 -413.283525 
L 501.388893 -413.283525 
L 484.256245 -413.283525 
L 484.256245 -413.283525 
L 467.123598 -413.283525 
L 467.123598 -473.659749 
L 449.99095 -473.659749 
L 449.99095 -430.533874 
L 432.858302 -430.533874 
L 432.858302 -421.908699 
L 415.725655 -421.908699 
L 415.725655 -387.408 
L 398.593007 -387.408 
L 398.593007 -387.408 
L 381.460359 -387.408 
L 381.460359 -387.408 
L 364.327711 -387.408 
z
" id="m5d94a95676" style="stroke:#fc8d62;stroke-width:0.8;"/>
    </defs>
    <g clip-path="url(#p49475c6364)">
     <use style="fill:#fc8d62;fill-opacity:0.25;stroke:#fc8d62;stroke-width:0.8;" x="0" xlink:href="#m5d94a95676" y="702.439"/>
    </g>
   </g>
   <g id="PolyCollection_5">
    <defs>
     <path d="M 364.327711 -465.034574 
L 364.327711 -387.408 
L 381.460359 -387.408 
L 381.460359 -387.408 
L 398.593007 -387.408 
L 398.593007 -387.408 
L 415.725655 -387.408 
L 415.725655 -387.408 
L 432.858302 -387.408 
L 432.858302 -387.408 
L 449.99095 -387.408 
L 449.99095 -387.408 
L 467.123598 -387.408 
L 467.123598 -387.408 
L 484.256245 -387.408 
L 484.256245 -387.408 
L 501.388893 -387.408 
L 501.388893 -387.408 
L 518.521541 -387.408 
L 518.521541 -387.408 
L 535.654189 -387.408 
L 535.654189 -387.408 
L 552.786836 -387.408 
L 552.786836 -387.408 
L 569.919484 -387.408 
L 569.919484 -387.408 
L 587.052132 -387.408 
L 587.052132 -387.408 
L 604.184779 -387.408 
L 604.184779 -387.408 
L 621.317427 -387.408 
L 621.317427 -387.408 
L 621.317427 -387.408 
L 621.317427 -387.408 
L 621.317427 -387.408 
L 604.184779 -387.408 
L 604.184779 -387.408 
L 587.052132 -387.408 
L 587.052132 -387.408 
L 569.919484 -387.408 
L 569.919484 -387.408 
L 552.786836 -387.408 
L 552.786836 -387.408 
L 535.654189 -387.408 
L 535.654189 -387.408 
L 518.521541 -387.408 
L 518.521541 -387.408 
L 501.388893 -387.408 
L 501.388893 -387.408 
L 484.256245 -387.408 
L 484.256245 -387.408 
L 467.123598 -387.408 
L 467.123598 -387.408 
L 449.99095 -387.408 
L 449.99095 -387.408 
L 432.858302 -387.408 
L 432.858302 -387.408 
L 415.725655 -387.408 
L 415.725655 -439.159049 
L 398.593007 -439.159049 
L 398.593007 -534.035972 
L 381.460359 -534.035972 
L 381.460359 -465.034574 
L 364.327711 -465.034574 
z
" id="m5bcb860979" style="stroke:#ffd92f;stroke-width:0.8;"/>
    </defs>
    <g clip-path="url(#p49475c6364)">
     <use style="fill:#ffd92f;fill-opacity:0.25;stroke:#ffd92f;stroke-width:0.8;" x="0" xlink:href="#m5bcb860979" y="702.439"/>
    </g>
   </g>
   <g id="PolyCollection_6">
    <defs>
     <path d="M 364.327711 -476.124084 
L 364.327711 -387.408 
L 381.460359 -387.408 
L 381.460359 -387.408 
L 398.593007 -387.408 
L 398.593007 -387.408 
L 415.725655 -387.408 
L 415.725655 -387.408 
L 432.858302 -387.408 
L 432.858302 -387.408 
L 449.99095 -387.408 
L 449.99095 -387.408 
L 467.123598 -387.408 
L 467.123598 -387.408 
L 484.256245 -387.408 
L 484.256245 -387.408 
L 501.388893 -387.408 
L 501.388893 -387.408 
L 518.521541 -387.408 
L 518.521541 -387.408 
L 535.654189 -387.408 
L 535.654189 -387.408 
L 552.786836 -387.408 
L 552.786836 -387.408 
L 569.919484 -387.408 
L 569.919484 -387.408 
L 587.052132 -387.408 
L 587.052132 -387.408 
L 604.184779 -387.408 
L 604.184779 -387.408 
L 621.317427 -387.408 
L 621.317427 -387.408 
L 621.317427 -387.408 
L 621.317427 -387.408 
L 621.317427 -387.408 
L 604.184779 -387.408 
L 604.184779 -387.408 
L 587.052132 -387.408 
L 587.052132 -387.408 
L 569.919484 -387.408 
L 569.919484 -387.408 
L 552.786836 -387.408 
L 552.786836 -387.408 
L 535.654189 -387.408 
L 535.654189 -387.408 
L 518.521541 -387.408 
L 518.521541 -387.408 
L 501.388893 -387.408 
L 501.388893 -387.408 
L 484.256245 -387.408 
L 484.256245 -387.408 
L 467.123598 -387.408 
L 467.123598 -387.408 
L 449.99095 -387.408 
L 449.99095 -387.408 
L 432.858302 -387.408 
L 432.858302 -387.408 
L 415.725655 -387.408 
L 415.725655 -387.408 
L 398.593007 -387.408 
L 398.593007 -574.697511 
L 381.460359 -574.697511 
L 381.460359 -476.124084 
L 364.327711 -476.124084 
z
" id="mef379015fb" style="stroke:#66c2a5;stroke-width:0.8;"/>
    </defs>
    <g clip-path="url(#p49475c6364)">
     <use style="fill:#66c2a5;fill-opacity:0.25;stroke:#66c2a5;stroke-width:0.8;" x="0" xlink:href="#mef379015fb" y="702.439"/>
    </g>
   </g>
   <g id="patch_7">
    <path d="M 351.478226 315.031 
L 351.478226 25.225125 
" style="fill:none;stroke:#ffffff;stroke-linecap:square;stroke-linejoin:miter;"/>
   </g>
   <g id="patch_8">
    <path d="M 351.478226 315.031 
L 634.166913 315.031 
" style="fill:none;stroke:#ffffff;stroke-linecap:square;stroke-linejoin:miter;"/>
   </g>
   <g id="text_10">
    <!-- T v. T -->
    <g style="fill:#262626;" transform="translate(472.274069 19.225125)scale(0.168 -0.168)">
     <defs>
      <path d="M 1659 0 
L 1659 4041 
L 150 4041 
L 150 4581 
L 3781 4581 
L 3781 4041 
L 2266 4041 
L 2266 0 
L 1659 0 
z
" id="ArialMT-54" transform="scale(0.015625)"/>
     </defs>
     <use xlink:href="#ArialMT-54"/>
     <use x="59.333984" xlink:href="#ArialMT-20"/>
     <use x="87.117188" xlink:href="#ArialMT-76"/>
     <use x="129.742188" xlink:href="#ArialMT-2e"/>
     <use x="157.525391" xlink:href="#ArialMT-20"/>
     <use x="183.558594" xlink:href="#ArialMT-54"/>
    </g>
   </g>
  </g>
  <g id="axes_3">
   <g id="patch_9">
    <path d="M 52.02 649.559 
L 334.708687 649.559 
L 334.708687 359.753125 
L 52.02 359.753125 
z
" style="fill:#eaeaf2;"/>
   </g>
   <g id="matplotlib.axis_5">
    <g id="xtick_11">
     <g id="line2d_25">
      <path clip-path="url(#p20e784f8bc)" d="M 64.455687 649.559 
L 64.455687 359.753125 
" style="fill:none;stroke:#ffffff;stroke-linecap:round;stroke-width:0.8;"/>
     </g>
     <g id="text_11">
      <!-- 0.0 -->
      <g style="fill:#262626;" transform="translate(53.752687 668.882031)scale(0.154 -0.154)">
       <use xlink:href="#ArialMT-30"/>
       <use x="55.615234" xlink:href="#ArialMT-2e"/>
       <use x="83.398438" xlink:href="#ArialMT-30"/>
      </g>
     </g>
    </g>
    <g id="xtick_12">
     <g id="line2d_26">
      <path clip-path="url(#p20e784f8bc)" d="M 119.475787 649.559 
L 119.475787 359.753125 
" style="fill:none;stroke:#ffffff;stroke-linecap:round;stroke-width:0.8;"/>
     </g>
     <g id="text_12">
      <!-- 0.1 -->
      <g style="fill:#262626;" transform="translate(108.772787 668.882031)scale(0.154 -0.154)">
       <use xlink:href="#ArialMT-30"/>
       <use x="55.615234" xlink:href="#ArialMT-2e"/>
       <use x="83.398438" xlink:href="#ArialMT-31"/>
      </g>
     </g>
    </g>
    <g id="xtick_13">
     <g id="line2d_27">
      <path clip-path="url(#p20e784f8bc)" d="M 174.495886 649.559 
L 174.495886 359.753125 
" style="fill:none;stroke:#ffffff;stroke-linecap:round;stroke-width:0.8;"/>
     </g>
     <g id="text_13">
      <!-- 0.2 -->
      <g style="fill:#262626;" transform="translate(163.792886 668.882031)scale(0.154 -0.154)">
       <use xlink:href="#ArialMT-30"/>
       <use x="55.615234" xlink:href="#ArialMT-2e"/>
       <use x="83.398438" xlink:href="#ArialMT-32"/>
      </g>
     </g>
    </g>
    <g id="xtick_14">
     <g id="line2d_28">
      <path clip-path="url(#p20e784f8bc)" d="M 229.515986 649.559 
L 229.515986 359.753125 
" style="fill:none;stroke:#ffffff;stroke-linecap:round;stroke-width:0.8;"/>
     </g>
     <g id="text_14">
      <!-- 0.3 -->
      <g style="fill:#262626;" transform="translate(218.812986 668.882031)scale(0.154 -0.154)">
       <use xlink:href="#ArialMT-30"/>
       <use x="55.615234" xlink:href="#ArialMT-2e"/>
       <use x="83.398438" xlink:href="#ArialMT-33"/>
      </g>
     </g>
    </g>
    <g id="xtick_15">
     <g id="line2d_29">
      <path clip-path="url(#p20e784f8bc)" d="M 284.536085 649.559 
L 284.536085 359.753125 
" style="fill:none;stroke:#ffffff;stroke-linecap:round;stroke-width:0.8;"/>
     </g>
     <g id="text_15">
      <!-- 0.4 -->
      <g style="fill:#262626;" transform="translate(273.833085 668.882031)scale(0.154 -0.154)">
       <defs>
        <path d="M 2069 0 
L 2069 1097 
L 81 1097 
L 81 1613 
L 2172 4581 
L 2631 4581 
L 2631 1613 
L 3250 1613 
L 3250 1097 
L 2631 1097 
L 2631 0 
L 2069 0 
z
M 2069 1613 
L 2069 3678 
L 634 1613 
L 2069 1613 
z
" id="ArialMT-34" transform="scale(0.015625)"/>
       </defs>
       <use xlink:href="#ArialMT-30"/>
       <use x="55.615234" xlink:href="#ArialMT-2e"/>
       <use x="83.398438" xlink:href="#ArialMT-34"/>
      </g>
     </g>
    </g>
   </g>
   <g id="matplotlib.axis_6">
    <g id="ytick_15">
     <g id="line2d_30">
      <path clip-path="url(#p20e784f8bc)" d="M 52.02 649.559 
L 334.708687 649.559 
" style="fill:none;stroke:#ffffff;stroke-linecap:round;stroke-width:0.8;"/>
     </g>
     <g id="text_16">
      <!-- 0 -->
      <g style="fill:#262626;" transform="translate(35.156156 655.070516)scale(0.154 -0.154)">
       <use xlink:href="#ArialMT-30"/>
      </g>
     </g>
    </g>
    <g id="ytick_16">
     <g id="line2d_31">
      <path clip-path="url(#p20e784f8bc)" d="M 52.02 606.586462 
L 334.708687 606.586462 
" style="fill:none;stroke:#ffffff;stroke-linecap:round;stroke-width:0.8;"/>
     </g>
     <g id="text_17">
      <!-- 5 -->
      <g style="fill:#262626;" transform="translate(35.156156 612.097978)scale(0.154 -0.154)">
       <use xlink:href="#ArialMT-35"/>
      </g>
     </g>
    </g>
    <g id="ytick_17">
     <g id="line2d_32">
      <path clip-path="url(#p20e784f8bc)" d="M 52.02 563.613924 
L 334.708687 563.613924 
" style="fill:none;stroke:#ffffff;stroke-linecap:round;stroke-width:0.8;"/>
     </g>
     <g id="text_18">
      <!-- 10 -->
      <g style="fill:#262626;" transform="translate(26.592312 569.12544)scale(0.154 -0.154)">
       <use xlink:href="#ArialMT-31"/>
       <use x="55.615234" xlink:href="#ArialMT-30"/>
      </g>
     </g>
    </g>
    <g id="ytick_18">
     <g id="line2d_33">
      <path clip-path="url(#p20e784f8bc)" d="M 52.02 520.641386 
L 334.708687 520.641386 
" style="fill:none;stroke:#ffffff;stroke-linecap:round;stroke-width:0.8;"/>
     </g>
     <g id="text_19">
      <!-- 15 -->
      <g style="fill:#262626;" transform="translate(26.592312 526.152902)scale(0.154 -0.154)">
       <use xlink:href="#ArialMT-31"/>
       <use x="55.615234" xlink:href="#ArialMT-35"/>
      </g>
     </g>
    </g>
    <g id="ytick_19">
     <g id="line2d_34">
      <path clip-path="url(#p20e784f8bc)" d="M 52.02 477.668848 
L 334.708687 477.668848 
" style="fill:none;stroke:#ffffff;stroke-linecap:round;stroke-width:0.8;"/>
     </g>
     <g id="text_20">
      <!-- 20 -->
      <g style="fill:#262626;" transform="translate(26.592312 483.180364)scale(0.154 -0.154)">
       <use xlink:href="#ArialMT-32"/>
       <use x="55.615234" xlink:href="#ArialMT-30"/>
      </g>
     </g>
    </g>
    <g id="ytick_20">
     <g id="line2d_35">
      <path clip-path="url(#p20e784f8bc)" d="M 52.02 434.69631 
L 334.708687 434.69631 
" style="fill:none;stroke:#ffffff;stroke-linecap:round;stroke-width:0.8;"/>
     </g>
     <g id="text_21">
      <!-- 25 -->
      <g style="fill:#262626;" transform="translate(26.592312 440.207826)scale(0.154 -0.154)">
       <use xlink:href="#ArialMT-32"/>
       <use x="55.615234" xlink:href="#ArialMT-35"/>
      </g>
     </g>
    </g>
    <g id="ytick_21">
     <g id="line2d_36">
      <path clip-path="url(#p20e784f8bc)" d="M 52.02 391.723772 
L 334.708687 391.723772 
" style="fill:none;stroke:#ffffff;stroke-linecap:round;stroke-width:0.8;"/>
     </g>
     <g id="text_22">
      <!-- 30 -->
      <g style="fill:#262626;" transform="translate(26.592312 397.235288)scale(0.154 -0.154)">
       <use xlink:href="#ArialMT-33"/>
       <use x="55.615234" xlink:href="#ArialMT-30"/>
      </g>
     </g>
    </g>
   </g>
   <g id="PolyCollection_7">
    <defs>
     <path d="M 64.869486 -52.88 
L 64.869486 -52.88 
L 82.002133 -52.88 
L 82.002133 -52.88 
L 99.134781 -52.88 
L 99.134781 -52.88 
L 116.267429 -52.88 
L 116.267429 -52.88 
L 133.400077 -52.88 
L 133.400077 -52.88 
L 150.532724 -52.88 
L 150.532724 -52.88 
L 167.665372 -52.88 
L 167.665372 -52.88 
L 184.79802 -52.88 
L 184.79802 -52.88 
L 201.930667 -52.88 
L 201.930667 -52.88 
L 219.063315 -52.88 
L 219.063315 -52.88 
L 236.195963 -52.88 
L 236.195963 -52.88 
L 253.328611 -52.88 
L 253.328611 -52.88 
L 270.461258 -52.88 
L 270.461258 -52.88 
L 287.593906 -52.88 
L 287.593906 -52.88 
L 304.726554 -52.88 
L 304.726554 -52.88 
L 321.859201 -52.88 
L 321.859201 -52.88 
L 321.859201 -52.88 
L 321.859201 -52.88 
L 321.859201 -52.88 
L 304.726554 -52.88 
L 304.726554 -52.88 
L 287.593906 -52.88 
L 287.593906 -61.505175 
L 270.461258 -61.505175 
L 270.461258 -70.13035 
L 253.328611 -70.13035 
L 253.328611 -52.88 
L 236.195963 -52.88 
L 236.195963 -78.755525 
L 219.063315 -78.755525 
L 219.063315 -61.505175 
L 201.930667 -61.505175 
L 201.930667 -78.755525 
L 184.79802 -78.755525 
L 184.79802 -61.505175 
L 167.665372 -61.505175 
L 167.665372 -96.005874 
L 150.532724 -96.005874 
L 150.532724 -104.631049 
L 133.400077 -104.631049 
L 133.400077 -87.380699 
L 116.267429 -87.380699 
L 116.267429 -96.005874 
L 99.134781 -96.005874 
L 99.134781 -61.505175 
L 82.002133 -61.505175 
L 82.002133 -52.88 
L 64.869486 -52.88 
z
" id="m9f3420f213" style="stroke:#fc8d62;stroke-width:0.8;"/>
    </defs>
    <g clip-path="url(#p20e784f8bc)">
     <use style="fill:#fc8d62;fill-opacity:0.25;stroke:#fc8d62;stroke-width:0.8;" x="0" xlink:href="#m9f3420f213" y="702.439"/>
    </g>
   </g>
   <g id="PolyCollection_8">
    <defs>
     <path d="M 64.869486 -190.882798 
L 64.869486 -52.88 
L 82.002133 -52.88 
L 82.002133 -52.88 
L 99.134781 -52.88 
L 99.134781 -52.88 
L 116.267429 -52.88 
L 116.267429 -52.88 
L 133.400077 -52.88 
L 133.400077 -52.88 
L 150.532724 -52.88 
L 150.532724 -52.88 
L 167.665372 -52.88 
L 167.665372 -52.88 
L 184.79802 -52.88 
L 184.79802 -52.88 
L 201.930667 -52.88 
L 201.930667 -52.88 
L 219.063315 -52.88 
L 219.063315 -52.88 
L 236.195963 -52.88 
L 236.195963 -52.88 
L 253.328611 -52.88 
L 253.328611 -52.88 
L 270.461258 -52.88 
L 270.461258 -52.88 
L 287.593906 -52.88 
L 287.593906 -52.88 
L 304.726554 -52.88 
L 304.726554 -52.88 
L 321.859201 -52.88 
L 321.859201 -52.88 
L 321.859201 -52.88 
L 321.859201 -52.88 
L 321.859201 -52.88 
L 304.726554 -52.88 
L 304.726554 -52.88 
L 287.593906 -52.88 
L 287.593906 -52.88 
L 270.461258 -52.88 
L 270.461258 -52.88 
L 253.328611 -52.88 
L 253.328611 -52.88 
L 236.195963 -52.88 
L 236.195963 -52.88 
L 219.063315 -52.88 
L 219.063315 -52.88 
L 201.930667 -52.88 
L 201.930667 -52.88 
L 184.79802 -52.88 
L 184.79802 -52.88 
L 167.665372 -52.88 
L 167.665372 -52.88 
L 150.532724 -52.88 
L 150.532724 -52.88 
L 133.400077 -52.88 
L 133.400077 -52.88 
L 116.267429 -52.88 
L 116.267429 -52.88 
L 99.134781 -52.88 
L 99.134781 -190.882798 
L 82.002133 -190.882798 
L 82.002133 -190.882798 
L 64.869486 -190.882798 
z
" id="m8ccc26a709" style="stroke:#ffd92f;stroke-width:0.8;"/>
    </defs>
    <g clip-path="url(#p20e784f8bc)">
     <use style="fill:#ffd92f;fill-opacity:0.25;stroke:#ffd92f;stroke-width:0.8;" x="0" xlink:href="#m8ccc26a709" y="702.439"/>
    </g>
   </g>
   <g id="PolyCollection_9">
    <defs>
     <path d="M 64.869486 -328.885595 
L 64.869486 -52.88 
L 82.002133 -52.88 
L 82.002133 -52.88 
L 99.134781 -52.88 
L 99.134781 -52.88 
L 116.267429 -52.88 
L 116.267429 -52.88 
L 133.400077 -52.88 
L 133.400077 -52.88 
L 150.532724 -52.88 
L 150.532724 -52.88 
L 167.665372 -52.88 
L 167.665372 -52.88 
L 184.79802 -52.88 
L 184.79802 -52.88 
L 201.930667 -52.88 
L 201.930667 -52.88 
L 219.063315 -52.88 
L 219.063315 -52.88 
L 236.195963 -52.88 
L 236.195963 -52.88 
L 253.328611 -52.88 
L 253.328611 -52.88 
L 270.461258 -52.88 
L 270.461258 -52.88 
L 287.593906 -52.88 
L 287.593906 -52.88 
L 304.726554 -52.88 
L 304.726554 -52.88 
L 321.859201 -52.88 
L 321.859201 -52.88 
L 321.859201 -52.88 
L 321.859201 -52.88 
L 321.859201 -52.88 
L 304.726554 -52.88 
L 304.726554 -52.88 
L 287.593906 -52.88 
L 287.593906 -52.88 
L 270.461258 -52.88 
L 270.461258 -52.88 
L 253.328611 -52.88 
L 253.328611 -52.88 
L 236.195963 -52.88 
L 236.195963 -52.88 
L 219.063315 -52.88 
L 219.063315 -52.88 
L 201.930667 -52.88 
L 201.930667 -52.88 
L 184.79802 -52.88 
L 184.79802 -52.88 
L 167.665372 -52.88 
L 167.665372 -52.88 
L 150.532724 -52.88 
L 150.532724 -52.88 
L 133.400077 -52.88 
L 133.400077 -52.88 
L 116.267429 -52.88 
L 116.267429 -52.88 
L 99.134781 -52.88 
L 99.134781 -52.88 
L 82.002133 -52.88 
L 82.002133 -328.885595 
L 64.869486 -328.885595 
z
" id="m5fb62898f0" style="stroke:#66c2a5;stroke-width:0.8;"/>
    </defs>
    <g clip-path="url(#p20e784f8bc)">
     <use style="fill:#66c2a5;fill-opacity:0.25;stroke:#66c2a5;stroke-width:0.8;" x="0" xlink:href="#m5fb62898f0" y="702.439"/>
    </g>
   </g>
   <g id="patch_10">
    <path d="M 52.02 649.559 
L 52.02 359.753125 
" style="fill:none;stroke:#ffffff;stroke-linecap:square;stroke-linejoin:miter;"/>
   </g>
   <g id="patch_11">
    <path d="M 52.02 649.559 
L 334.708687 649.559 
" style="fill:none;stroke:#ffffff;stroke-linecap:square;stroke-linejoin:miter;"/>
   </g>
   <g id="text_23">
    <g id="patch_12">
     <path d="M 273.532065 398.686585 
L 320.219878 398.686585 
Q 324.419878 398.686585 324.419878 394.486585 
L 324.419878 381.702835 
Q 324.419878 377.502835 320.219878 377.502835 
L 273.532065 377.502835 
Q 269.332065 377.502835 269.332065 381.702835 
L 269.332065 394.486585 
Q 269.332065 398.686585 273.532065 398.686585 
z
" style="fill:#eaeaf2;opacity:0.5;stroke:#eaeaf2;stroke-linejoin:miter;stroke-width:0.8;"/>
    </g>
    <!-- VGG16 -->
    <g style="fill:#262626;" transform="translate(273.532065 391.723772)scale(0.14 -0.14)">
     <defs>
      <path d="M 1634 0 
L -3 4581 
L 1000 4581 
L 2159 1191 
L 3281 4581 
L 4263 4581 
L 2622 0 
L 1634 0 
z
" id="Arial-BoldMT-56" transform="scale(0.015625)"/>
      <path d="M 2597 1684 
L 2597 2456 
L 4591 2456 
L 4591 631 
Q 4300 350 3748 136 
Q 3197 -78 2631 -78 
Q 1913 -78 1378 223 
Q 844 525 575 1086 
Q 306 1647 306 2306 
Q 306 3022 606 3578 
Q 906 4134 1484 4431 
Q 1925 4659 2581 4659 
Q 3434 4659 3914 4301 
Q 4394 3944 4531 3313 
L 3613 3141 
Q 3516 3478 3248 3673 
Q 2981 3869 2581 3869 
Q 1975 3869 1617 3484 
Q 1259 3100 1259 2344 
Q 1259 1528 1621 1120 
Q 1984 713 2572 713 
Q 2863 713 3155 827 
Q 3447 941 3656 1103 
L 3656 1684 
L 2597 1684 
z
" id="Arial-BoldMT-47" transform="scale(0.015625)"/>
      <path d="M 2519 0 
L 1641 0 
L 1641 3309 
Q 1159 2859 506 2644 
L 506 3441 
Q 850 3553 1253 3867 
Q 1656 4181 1806 4600 
L 2519 4600 
L 2519 0 
z
" id="Arial-BoldMT-31" transform="scale(0.015625)"/>
      <path d="M 3247 3459 
L 2397 3366 
Q 2366 3628 2234 3753 
Q 2103 3878 1894 3878 
Q 1616 3878 1423 3628 
Q 1231 3378 1181 2588 
Q 1509 2975 1997 2975 
Q 2547 2975 2939 2556 
Q 3331 2138 3331 1475 
Q 3331 772 2918 347 
Q 2506 -78 1859 -78 
Q 1166 -78 719 461 
Q 272 1000 272 2228 
Q 272 3488 737 4044 
Q 1203 4600 1947 4600 
Q 2469 4600 2811 4308 
Q 3153 4016 3247 3459 
z
M 1256 1544 
Q 1256 1116 1453 883 
Q 1650 650 1903 650 
Q 2147 650 2309 840 
Q 2472 1031 2472 1466 
Q 2472 1913 2297 2120 
Q 2122 2328 1859 2328 
Q 1606 2328 1431 2129 
Q 1256 1931 1256 1544 
z
" id="Arial-BoldMT-36" transform="scale(0.015625)"/>
     </defs>
     <use xlink:href="#Arial-BoldMT-56"/>
     <use x="66.699219" xlink:href="#Arial-BoldMT-47"/>
     <use x="144.482422" xlink:href="#Arial-BoldMT-47"/>
     <use x="222.265625" xlink:href="#Arial-BoldMT-31"/>
     <use x="277.880859" xlink:href="#Arial-BoldMT-36"/>
    </g>
   </g>
  </g>
  <g id="axes_4">
   <g id="patch_13">
    <path d="M 351.478226 649.559 
L 634.166913 649.559 
L 634.166913 359.753125 
L 351.478226 359.753125 
z
" style="fill:#eaeaf2;"/>
   </g>
   <g id="matplotlib.axis_7">
    <g id="xtick_16">
     <g id="line2d_37">
      <path clip-path="url(#pee37f2937a)" d="M 363.913913 649.559 
L 363.913913 359.753125 
" style="fill:none;stroke:#ffffff;stroke-linecap:round;stroke-width:0.8;"/>
     </g>
     <g id="text_24">
      <!-- 0.0 -->
      <g style="fill:#262626;" transform="translate(353.210913 668.882031)scale(0.154 -0.154)">
       <use xlink:href="#ArialMT-30"/>
       <use x="55.615234" xlink:href="#ArialMT-2e"/>
       <use x="83.398438" xlink:href="#ArialMT-30"/>
      </g>
     </g>
    </g>
    <g id="xtick_17">
     <g id="line2d_38">
      <path clip-path="url(#pee37f2937a)" d="M 418.934012 649.559 
L 418.934012 359.753125 
" style="fill:none;stroke:#ffffff;stroke-linecap:round;stroke-width:0.8;"/>
     </g>
     <g id="text_25">
      <!-- 0.1 -->
      <g style="fill:#262626;" transform="translate(408.231012 668.882031)scale(0.154 -0.154)">
       <use xlink:href="#ArialMT-30"/>
       <use x="55.615234" xlink:href="#ArialMT-2e"/>
       <use x="83.398438" xlink:href="#ArialMT-31"/>
      </g>
     </g>
    </g>
    <g id="xtick_18">
     <g id="line2d_39">
      <path clip-path="url(#pee37f2937a)" d="M 473.954112 649.559 
L 473.954112 359.753125 
" style="fill:none;stroke:#ffffff;stroke-linecap:round;stroke-width:0.8;"/>
     </g>
     <g id="text_26">
      <!-- 0.2 -->
      <g style="fill:#262626;" transform="translate(463.251112 668.882031)scale(0.154 -0.154)">
       <use xlink:href="#ArialMT-30"/>
       <use x="55.615234" xlink:href="#ArialMT-2e"/>
       <use x="83.398438" xlink:href="#ArialMT-32"/>
      </g>
     </g>
    </g>
    <g id="xtick_19">
     <g id="line2d_40">
      <path clip-path="url(#pee37f2937a)" d="M 528.974211 649.559 
L 528.974211 359.753125 
" style="fill:none;stroke:#ffffff;stroke-linecap:round;stroke-width:0.8;"/>
     </g>
     <g id="text_27">
      <!-- 0.3 -->
      <g style="fill:#262626;" transform="translate(518.271211 668.882031)scale(0.154 -0.154)">
       <use xlink:href="#ArialMT-30"/>
       <use x="55.615234" xlink:href="#ArialMT-2e"/>
       <use x="83.398438" xlink:href="#ArialMT-33"/>
      </g>
     </g>
    </g>
    <g id="xtick_20">
     <g id="line2d_41">
      <path clip-path="url(#pee37f2937a)" d="M 583.994311 649.559 
L 583.994311 359.753125 
" style="fill:none;stroke:#ffffff;stroke-linecap:round;stroke-width:0.8;"/>
     </g>
     <g id="text_28">
      <!-- 0.4 -->
      <g style="fill:#262626;" transform="translate(573.291311 668.882031)scale(0.154 -0.154)">
       <use xlink:href="#ArialMT-30"/>
       <use x="55.615234" xlink:href="#ArialMT-2e"/>
       <use x="83.398438" xlink:href="#ArialMT-34"/>
      </g>
     </g>
    </g>
   </g>
   <g id="matplotlib.axis_8">
    <g id="ytick_22">
     <g id="line2d_42">
      <path clip-path="url(#pee37f2937a)" d="M 351.478226 649.559 
L 634.166913 649.559 
" style="fill:none;stroke:#ffffff;stroke-linecap:round;stroke-width:0.8;"/>
     </g>
    </g>
    <g id="ytick_23">
     <g id="line2d_43">
      <path clip-path="url(#pee37f2937a)" d="M 351.478226 606.586462 
L 634.166913 606.586462 
" style="fill:none;stroke:#ffffff;stroke-linecap:round;stroke-width:0.8;"/>
     </g>
    </g>
    <g id="ytick_24">
     <g id="line2d_44">
      <path clip-path="url(#pee37f2937a)" d="M 351.478226 563.613924 
L 634.166913 563.613924 
" style="fill:none;stroke:#ffffff;stroke-linecap:round;stroke-width:0.8;"/>
     </g>
    </g>
    <g id="ytick_25">
     <g id="line2d_45">
      <path clip-path="url(#pee37f2937a)" d="M 351.478226 520.641386 
L 634.166913 520.641386 
" style="fill:none;stroke:#ffffff;stroke-linecap:round;stroke-width:0.8;"/>
     </g>
    </g>
    <g id="ytick_26">
     <g id="line2d_46">
      <path clip-path="url(#pee37f2937a)" d="M 351.478226 477.668848 
L 634.166913 477.668848 
" style="fill:none;stroke:#ffffff;stroke-linecap:round;stroke-width:0.8;"/>
     </g>
    </g>
    <g id="ytick_27">
     <g id="line2d_47">
      <path clip-path="url(#pee37f2937a)" d="M 351.478226 434.69631 
L 634.166913 434.69631 
" style="fill:none;stroke:#ffffff;stroke-linecap:round;stroke-width:0.8;"/>
     </g>
    </g>
    <g id="ytick_28">
     <g id="line2d_48">
      <path clip-path="url(#pee37f2937a)" d="M 351.478226 391.723772 
L 634.166913 391.723772 
" style="fill:none;stroke:#ffffff;stroke-linecap:round;stroke-width:0.8;"/>
     </g>
    </g>
   </g>
   <g id="PolyCollection_10">
    <defs>
     <path d="M 364.327711 -52.88 
L 364.327711 -52.88 
L 381.460359 -52.88 
L 381.460359 -52.88 
L 398.593007 -52.88 
L 398.593007 -52.88 
L 415.725655 -52.88 
L 415.725655 -52.88 
L 432.858302 -52.88 
L 432.858302 -52.88 
L 449.99095 -52.88 
L 449.99095 -52.88 
L 467.123598 -52.88 
L 467.123598 -52.88 
L 484.256245 -52.88 
L 484.256245 -52.88 
L 501.388893 -52.88 
L 501.388893 -52.88 
L 518.521541 -52.88 
L 518.521541 -52.88 
L 535.654189 -52.88 
L 535.654189 -52.88 
L 552.786836 -52.88 
L 552.786836 -52.88 
L 569.919484 -52.88 
L 569.919484 -52.88 
L 587.052132 -52.88 
L 587.052132 -52.88 
L 604.184779 -52.88 
L 604.184779 -52.88 
L 621.317427 -52.88 
L 621.317427 -52.88 
L 621.317427 -52.88 
L 621.317427 -52.88 
L 621.317427 -52.88 
L 604.184779 -52.88 
L 604.184779 -52.88 
L 587.052132 -52.88 
L 587.052132 -52.88 
L 569.919484 -52.88 
L 569.919484 -52.88 
L 552.786836 -52.88 
L 552.786836 -52.88 
L 535.654189 -52.88 
L 535.654189 -70.13035 
L 518.521541 -70.13035 
L 518.521541 -87.380699 
L 501.388893 -87.380699 
L 501.388893 -70.13035 
L 484.256245 -70.13035 
L 484.256245 -61.505175 
L 467.123598 -61.505175 
L 467.123598 -121.881399 
L 449.99095 -121.881399 
L 449.99095 -70.13035 
L 432.858302 -70.13035 
L 432.858302 -147.756923 
L 415.725655 -147.756923 
L 415.725655 -61.505175 
L 398.593007 -61.505175 
L 398.593007 -61.505175 
L 381.460359 -61.505175 
L 381.460359 -52.88 
L 364.327711 -52.88 
z
" id="me6cc3134a1" style="stroke:#fc8d62;stroke-width:0.8;"/>
    </defs>
    <g clip-path="url(#pee37f2937a)">
     <use style="fill:#fc8d62;fill-opacity:0.25;stroke:#fc8d62;stroke-width:0.8;" x="0" xlink:href="#me6cc3134a1" y="702.439"/>
    </g>
   </g>
   <g id="PolyCollection_11">
    <defs>
     <path d="M 364.327711 -225.383497 
L 364.327711 -52.88 
L 381.460359 -52.88 
L 381.460359 -52.88 
L 398.593007 -52.88 
L 398.593007 -52.88 
L 415.725655 -52.88 
L 415.725655 -52.88 
L 432.858302 -52.88 
L 432.858302 -52.88 
L 449.99095 -52.88 
L 449.99095 -52.88 
L 467.123598 -52.88 
L 467.123598 -52.88 
L 484.256245 -52.88 
L 484.256245 -52.88 
L 501.388893 -52.88 
L 501.388893 -52.88 
L 518.521541 -52.88 
L 518.521541 -52.88 
L 535.654189 -52.88 
L 535.654189 -52.88 
L 552.786836 -52.88 
L 552.786836 -52.88 
L 569.919484 -52.88 
L 569.919484 -52.88 
L 587.052132 -52.88 
L 587.052132 -52.88 
L 604.184779 -52.88 
L 604.184779 -52.88 
L 621.317427 -52.88 
L 621.317427 -52.88 
L 621.317427 -52.88 
L 621.317427 -52.88 
L 621.317427 -52.88 
L 604.184779 -52.88 
L 604.184779 -52.88 
L 587.052132 -52.88 
L 587.052132 -52.88 
L 569.919484 -52.88 
L 569.919484 -52.88 
L 552.786836 -52.88 
L 552.786836 -52.88 
L 535.654189 -52.88 
L 535.654189 -52.88 
L 518.521541 -52.88 
L 518.521541 -52.88 
L 501.388893 -52.88 
L 501.388893 -52.88 
L 484.256245 -52.88 
L 484.256245 -52.88 
L 467.123598 -52.88 
L 467.123598 -52.88 
L 449.99095 -52.88 
L 449.99095 -52.88 
L 432.858302 -52.88 
L 432.858302 -52.88 
L 415.725655 -52.88 
L 415.725655 -147.756923 
L 398.593007 -147.756923 
L 398.593007 -61.505175 
L 381.460359 -61.505175 
L 381.460359 -225.383497 
L 364.327711 -225.383497 
z
" id="m829d0cd7b6" style="stroke:#ffd92f;stroke-width:0.8;"/>
    </defs>
    <g clip-path="url(#pee37f2937a)">
     <use style="fill:#ffd92f;fill-opacity:0.25;stroke:#ffd92f;stroke-width:0.8;" x="0" xlink:href="#m829d0cd7b6" y="702.439"/>
    </g>
   </g>
   <g id="PolyCollection_12">
    <defs>
     <path d="M 364.327711 -328.885595 
L 364.327711 -52.88 
L 381.460359 -52.88 
L 381.460359 -52.88 
L 398.593007 -52.88 
L 398.593007 -52.88 
L 415.725655 -52.88 
L 415.725655 -52.88 
L 432.858302 -52.88 
L 432.858302 -52.88 
L 449.99095 -52.88 
L 449.99095 -52.88 
L 467.123598 -52.88 
L 467.123598 -52.88 
L 484.256245 -52.88 
L 484.256245 -52.88 
L 501.388893 -52.88 
L 501.388893 -52.88 
L 518.521541 -52.88 
L 518.521541 -52.88 
L 535.654189 -52.88 
L 535.654189 -52.88 
L 552.786836 -52.88 
L 552.786836 -52.88 
L 569.919484 -52.88 
L 569.919484 -52.88 
L 587.052132 -52.88 
L 587.052132 -52.88 
L 604.184779 -52.88 
L 604.184779 -52.88 
L 621.317427 -52.88 
L 621.317427 -52.88 
L 621.317427 -52.88 
L 621.317427 -52.88 
L 621.317427 -52.88 
L 604.184779 -52.88 
L 604.184779 -52.88 
L 587.052132 -52.88 
L 587.052132 -52.88 
L 569.919484 -52.88 
L 569.919484 -52.88 
L 552.786836 -52.88 
L 552.786836 -52.88 
L 535.654189 -52.88 
L 535.654189 -52.88 
L 518.521541 -52.88 
L 518.521541 -52.88 
L 501.388893 -52.88 
L 501.388893 -52.88 
L 484.256245 -52.88 
L 484.256245 -52.88 
L 467.123598 -52.88 
L 467.123598 -52.88 
L 449.99095 -52.88 
L 449.99095 -52.88 
L 432.858302 -52.88 
L 432.858302 -52.88 
L 415.725655 -52.88 
L 415.725655 -52.88 
L 398.593007 -52.88 
L 398.593007 -52.88 
L 381.460359 -52.88 
L 381.460359 -328.885595 
L 364.327711 -328.885595 
z
" id="mbf3942c41d" style="stroke:#66c2a5;stroke-width:0.8;"/>
    </defs>
    <g clip-path="url(#pee37f2937a)">
     <use style="fill:#66c2a5;fill-opacity:0.25;stroke:#66c2a5;stroke-width:0.8;" x="0" xlink:href="#mbf3942c41d" y="702.439"/>
    </g>
   </g>
   <g id="patch_14">
    <path d="M 351.478226 649.559 
L 351.478226 359.753125 
" style="fill:none;stroke:#ffffff;stroke-linecap:square;stroke-linejoin:miter;"/>
   </g>
   <g id="patch_15">
    <path d="M 351.478226 649.559 
L 634.166913 649.559 
" style="fill:none;stroke:#ffffff;stroke-linecap:square;stroke-linejoin:miter;"/>
   </g>
   <g id="legend_1">
    <g id="patch_16">
     <path d="M 414.955132 461.037219 
L 623.386913 461.037219 
Q 626.466913 461.037219 626.466913 457.957219 
L 626.466913 370.533125 
Q 626.466913 367.453125 623.386913 367.453125 
L 414.955132 367.453125 
Q 411.875132 367.453125 411.875132 370.533125 
L 411.875132 457.957219 
Q 411.875132 461.037219 414.955132 461.037219 
z
" style="fill:#eaeaf2;opacity:0.8;stroke:#cccccc;stroke-linejoin:miter;stroke-width:0.8;"/>
    </g>
    <g id="text_29">
     <!-- Source Dataset -->
     <g style="fill:#262626;" transform="translate(461.276647 385.63825)scale(0.168 -0.168)">
      <defs>
       <path d="M 288 1472 
L 859 1522 
Q 900 1178 1048 958 
Q 1197 738 1509 602 
Q 1822 466 2213 466 
Q 2559 466 2825 569 
Q 3091 672 3220 851 
Q 3350 1031 3350 1244 
Q 3350 1459 3225 1620 
Q 3100 1781 2813 1891 
Q 2628 1963 1997 2114 
Q 1366 2266 1113 2400 
Q 784 2572 623 2826 
Q 463 3081 463 3397 
Q 463 3744 659 4045 
Q 856 4347 1234 4503 
Q 1613 4659 2075 4659 
Q 2584 4659 2973 4495 
Q 3363 4331 3572 4012 
Q 3781 3694 3797 3291 
L 3216 3247 
Q 3169 3681 2898 3903 
Q 2628 4125 2100 4125 
Q 1550 4125 1298 3923 
Q 1047 3722 1047 3438 
Q 1047 3191 1225 3031 
Q 1400 2872 2139 2705 
Q 2878 2538 3153 2413 
Q 3553 2228 3743 1945 
Q 3934 1663 3934 1294 
Q 3934 928 3725 604 
Q 3516 281 3123 101 
Q 2731 -78 2241 -78 
Q 1619 -78 1198 103 
Q 778 284 539 648 
Q 300 1013 288 1472 
z
" id="ArialMT-53" transform="scale(0.015625)"/>
       <path d="M 213 1659 
Q 213 2581 725 3025 
Q 1153 3394 1769 3394 
Q 2453 3394 2887 2945 
Q 3322 2497 3322 1706 
Q 3322 1066 3130 698 
Q 2938 331 2570 128 
Q 2203 -75 1769 -75 
Q 1072 -75 642 372 
Q 213 819 213 1659 
z
M 791 1659 
Q 791 1022 1069 705 
Q 1347 388 1769 388 
Q 2188 388 2466 706 
Q 2744 1025 2744 1678 
Q 2744 2294 2464 2611 
Q 2184 2928 1769 2928 
Q 1347 2928 1069 2612 
Q 791 2297 791 1659 
z
" id="ArialMT-6f" transform="scale(0.015625)"/>
       <path d="M 2597 0 
L 2597 488 
Q 2209 -75 1544 -75 
Q 1250 -75 995 37 
Q 741 150 617 320 
Q 494 491 444 738 
Q 409 903 409 1263 
L 409 3319 
L 972 3319 
L 972 1478 
Q 972 1038 1006 884 
Q 1059 663 1231 536 
Q 1403 409 1656 409 
Q 1909 409 2131 539 
Q 2353 669 2445 892 
Q 2538 1116 2538 1541 
L 2538 3319 
L 3100 3319 
L 3100 0 
L 2597 0 
z
" id="ArialMT-75" transform="scale(0.015625)"/>
       <path d="M 416 0 
L 416 3319 
L 922 3319 
L 922 2816 
Q 1116 3169 1280 3281 
Q 1444 3394 1641 3394 
Q 1925 3394 2219 3213 
L 2025 2691 
Q 1819 2813 1613 2813 
Q 1428 2813 1281 2702 
Q 1134 2591 1072 2394 
Q 978 2094 978 1738 
L 978 0 
L 416 0 
z
" id="ArialMT-72" transform="scale(0.015625)"/>
       <path d="M 2588 1216 
L 3141 1144 
Q 3050 572 2676 248 
Q 2303 -75 1759 -75 
Q 1078 -75 664 370 
Q 250 816 250 1647 
Q 250 2184 428 2587 
Q 606 2991 970 3192 
Q 1334 3394 1763 3394 
Q 2303 3394 2647 3120 
Q 2991 2847 3088 2344 
L 2541 2259 
Q 2463 2594 2264 2762 
Q 2066 2931 1784 2931 
Q 1359 2931 1093 2626 
Q 828 2322 828 1663 
Q 828 994 1084 691 
Q 1341 388 1753 388 
Q 2084 388 2306 591 
Q 2528 794 2588 1216 
z
" id="ArialMT-63" transform="scale(0.015625)"/>
       <path d="M 2694 1069 
L 3275 997 
Q 3138 488 2766 206 
Q 2394 -75 1816 -75 
Q 1088 -75 661 373 
Q 234 822 234 1631 
Q 234 2469 665 2931 
Q 1097 3394 1784 3394 
Q 2450 3394 2872 2941 
Q 3294 2488 3294 1666 
Q 3294 1616 3291 1516 
L 816 1516 
Q 847 969 1125 678 
Q 1403 388 1819 388 
Q 2128 388 2347 550 
Q 2566 713 2694 1069 
z
M 847 1978 
L 2700 1978 
Q 2663 2397 2488 2606 
Q 2219 2931 1791 2931 
Q 1403 2931 1139 2672 
Q 875 2413 847 1978 
z
" id="ArialMT-65" transform="scale(0.015625)"/>
       <path d="M 494 0 
L 494 4581 
L 2072 4581 
Q 2606 4581 2888 4516 
Q 3281 4425 3559 4188 
Q 3922 3881 4101 3404 
Q 4281 2928 4281 2316 
Q 4281 1794 4159 1391 
Q 4038 988 3847 723 
Q 3656 459 3429 307 
Q 3203 156 2883 78 
Q 2563 0 2147 0 
L 494 0 
z
M 1100 541 
L 2078 541 
Q 2531 541 2789 625 
Q 3047 709 3200 863 
Q 3416 1078 3536 1442 
Q 3656 1806 3656 2325 
Q 3656 3044 3420 3430 
Q 3184 3816 2847 3947 
Q 2603 4041 2063 4041 
L 1100 4041 
L 1100 541 
z
" id="ArialMT-44" transform="scale(0.015625)"/>
       <path d="M 2588 409 
Q 2275 144 1986 34 
Q 1697 -75 1366 -75 
Q 819 -75 525 192 
Q 231 459 231 875 
Q 231 1119 342 1320 
Q 453 1522 633 1644 
Q 813 1766 1038 1828 
Q 1203 1872 1538 1913 
Q 2219 1994 2541 2106 
Q 2544 2222 2544 2253 
Q 2544 2597 2384 2738 
Q 2169 2928 1744 2928 
Q 1347 2928 1158 2789 
Q 969 2650 878 2297 
L 328 2372 
Q 403 2725 575 2942 
Q 747 3159 1072 3276 
Q 1397 3394 1825 3394 
Q 2250 3394 2515 3294 
Q 2781 3194 2906 3042 
Q 3031 2891 3081 2659 
Q 3109 2516 3109 2141 
L 3109 1391 
Q 3109 606 3145 398 
Q 3181 191 3288 0 
L 2700 0 
Q 2613 175 2588 409 
z
M 2541 1666 
Q 2234 1541 1622 1453 
Q 1275 1403 1131 1340 
Q 988 1278 909 1158 
Q 831 1038 831 891 
Q 831 666 1001 516 
Q 1172 366 1500 366 
Q 1825 366 2078 508 
Q 2331 650 2450 897 
Q 2541 1088 2541 1459 
L 2541 1666 
z
" id="ArialMT-61" transform="scale(0.015625)"/>
       <path d="M 1650 503 
L 1731 6 
Q 1494 -44 1306 -44 
Q 1000 -44 831 53 
Q 663 150 594 308 
Q 525 466 525 972 
L 525 2881 
L 113 2881 
L 113 3319 
L 525 3319 
L 525 4141 
L 1084 4478 
L 1084 3319 
L 1650 3319 
L 1650 2881 
L 1084 2881 
L 1084 941 
Q 1084 700 1114 631 
Q 1144 563 1211 522 
Q 1278 481 1403 481 
Q 1497 481 1650 503 
z
" id="ArialMT-74" transform="scale(0.015625)"/>
       <path d="M 197 991 
L 753 1078 
Q 800 744 1014 566 
Q 1228 388 1613 388 
Q 2000 388 2187 545 
Q 2375 703 2375 916 
Q 2375 1106 2209 1216 
Q 2094 1291 1634 1406 
Q 1016 1563 777 1677 
Q 538 1791 414 1992 
Q 291 2194 291 2438 
Q 291 2659 392 2848 
Q 494 3038 669 3163 
Q 800 3259 1026 3326 
Q 1253 3394 1513 3394 
Q 1903 3394 2198 3281 
Q 2494 3169 2634 2976 
Q 2775 2784 2828 2463 
L 2278 2388 
Q 2241 2644 2061 2787 
Q 1881 2931 1553 2931 
Q 1166 2931 1000 2803 
Q 834 2675 834 2503 
Q 834 2394 903 2306 
Q 972 2216 1119 2156 
Q 1203 2125 1616 2013 
Q 2213 1853 2448 1751 
Q 2684 1650 2818 1456 
Q 2953 1263 2953 975 
Q 2953 694 2789 445 
Q 2625 197 2315 61 
Q 2006 -75 1616 -75 
Q 969 -75 630 194 
Q 291 463 197 991 
z
" id="ArialMT-73" transform="scale(0.015625)"/>
      </defs>
      <use xlink:href="#ArialMT-53"/>
      <use x="66.699219" xlink:href="#ArialMT-6f"/>
      <use x="122.314453" xlink:href="#ArialMT-75"/>
      <use x="177.929688" xlink:href="#ArialMT-72"/>
      <use x="211.230469" xlink:href="#ArialMT-63"/>
      <use x="261.230469" xlink:href="#ArialMT-65"/>
      <use x="316.845703" xlink:href="#ArialMT-20"/>
      <use x="344.628906" xlink:href="#ArialMT-44"/>
      <use x="416.845703" xlink:href="#ArialMT-61"/>
      <use x="472.460938" xlink:href="#ArialMT-74"/>
      <use x="500.244141" xlink:href="#ArialMT-61"/>
      <use x="555.859375" xlink:href="#ArialMT-73"/>
      <use x="605.859375" xlink:href="#ArialMT-65"/>
      <use x="661.474609" xlink:href="#ArialMT-74"/>
     </g>
    </g>
    <g id="patch_17">
     <path d="M 418.035132 407.700281 
L 448.835132 407.700281 
L 448.835132 396.920281 
L 418.035132 396.920281 
z
" style="fill:#66c2a5;fill-opacity:0.25;stroke:#66c2a5;stroke-linejoin:miter;stroke-width:0.8;"/>
    </g>
    <g id="text_30">
     <!-- search stimuli -->
     <g style="fill:#262626;" transform="translate(461.155132 407.700281)scale(0.154 -0.154)">
      <defs>
       <path d="M 422 0 
L 422 4581 
L 984 4581 
L 984 2938 
Q 1378 3394 1978 3394 
Q 2347 3394 2619 3248 
Q 2891 3103 3008 2847 
Q 3125 2591 3125 2103 
L 3125 0 
L 2563 0 
L 2563 2103 
Q 2563 2525 2380 2717 
Q 2197 2909 1863 2909 
Q 1613 2909 1392 2779 
Q 1172 2650 1078 2428 
Q 984 2206 984 1816 
L 984 0 
L 422 0 
z
" id="ArialMT-68" transform="scale(0.015625)"/>
       <path d="M 425 3934 
L 425 4581 
L 988 4581 
L 988 3934 
L 425 3934 
z
M 425 0 
L 425 3319 
L 988 3319 
L 988 0 
L 425 0 
z
" id="ArialMT-69" transform="scale(0.015625)"/>
       <path d="M 422 0 
L 422 3319 
L 925 3319 
L 925 2853 
Q 1081 3097 1340 3245 
Q 1600 3394 1931 3394 
Q 2300 3394 2536 3241 
Q 2772 3088 2869 2813 
Q 3263 3394 3894 3394 
Q 4388 3394 4653 3120 
Q 4919 2847 4919 2278 
L 4919 0 
L 4359 0 
L 4359 2091 
Q 4359 2428 4304 2576 
Q 4250 2725 4106 2815 
Q 3963 2906 3769 2906 
Q 3419 2906 3187 2673 
Q 2956 2441 2956 1928 
L 2956 0 
L 2394 0 
L 2394 2156 
Q 2394 2531 2256 2718 
Q 2119 2906 1806 2906 
Q 1569 2906 1367 2781 
Q 1166 2656 1075 2415 
Q 984 2175 984 1722 
L 984 0 
L 422 0 
z
" id="ArialMT-6d" transform="scale(0.015625)"/>
       <path d="M 409 0 
L 409 4581 
L 972 4581 
L 972 0 
L 409 0 
z
" id="ArialMT-6c" transform="scale(0.015625)"/>
      </defs>
      <use xlink:href="#ArialMT-73"/>
      <use x="50" xlink:href="#ArialMT-65"/>
      <use x="105.615234" xlink:href="#ArialMT-61"/>
      <use x="161.230469" xlink:href="#ArialMT-72"/>
      <use x="194.53125" xlink:href="#ArialMT-63"/>
      <use x="244.53125" xlink:href="#ArialMT-68"/>
      <use x="300.146484" xlink:href="#ArialMT-20"/>
      <use x="327.929688" xlink:href="#ArialMT-73"/>
      <use x="377.929688" xlink:href="#ArialMT-74"/>
      <use x="405.712891" xlink:href="#ArialMT-69"/>
      <use x="427.929688" xlink:href="#ArialMT-6d"/>
      <use x="511.230469" xlink:href="#ArialMT-75"/>
      <use x="566.845703" xlink:href="#ArialMT-6c"/>
      <use x="589.0625" xlink:href="#ArialMT-69"/>
     </g>
    </g>
    <g id="patch_18">
     <path d="M 418.035132 429.67175 
L 448.835132 429.67175 
L 448.835132 418.89175 
L 418.035132 418.89175 
z
" style="fill:#ffd92f;fill-opacity:0.25;stroke:#ffd92f;stroke-linejoin:miter;stroke-width:0.8;"/>
    </g>
    <g id="text_31">
     <!-- search stimuli (classify) -->
     <g style="fill:#262626;" transform="translate(461.155132 429.67175)scale(0.154 -0.154)">
      <defs>
       <path d="M 1497 -1347 
Q 1031 -759 709 28 
Q 388 816 388 1659 
Q 388 2403 628 3084 
Q 909 3875 1497 4659 
L 1900 4659 
Q 1522 4009 1400 3731 
Q 1209 3300 1100 2831 
Q 966 2247 966 1656 
Q 966 153 1900 -1347 
L 1497 -1347 
z
" id="ArialMT-28" transform="scale(0.015625)"/>
       <path d="M 556 0 
L 556 2881 
L 59 2881 
L 59 3319 
L 556 3319 
L 556 3672 
Q 556 4006 616 4169 
Q 697 4388 901 4523 
Q 1106 4659 1475 4659 
Q 1713 4659 2000 4603 
L 1916 4113 
Q 1741 4144 1584 4144 
Q 1328 4144 1222 4034 
Q 1116 3925 1116 3625 
L 1116 3319 
L 1763 3319 
L 1763 2881 
L 1116 2881 
L 1116 0 
L 556 0 
z
" id="ArialMT-66" transform="scale(0.015625)"/>
       <path d="M 397 -1278 
L 334 -750 
Q 519 -800 656 -800 
Q 844 -800 956 -737 
Q 1069 -675 1141 -563 
Q 1194 -478 1313 -144 
Q 1328 -97 1363 -6 
L 103 3319 
L 709 3319 
L 1400 1397 
Q 1534 1031 1641 628 
Q 1738 1016 1872 1384 
L 2581 3319 
L 3144 3319 
L 1881 -56 
Q 1678 -603 1566 -809 
Q 1416 -1088 1222 -1217 
Q 1028 -1347 759 -1347 
Q 597 -1347 397 -1278 
z
" id="ArialMT-79" transform="scale(0.015625)"/>
       <path d="M 791 -1347 
L 388 -1347 
Q 1322 153 1322 1656 
Q 1322 2244 1188 2822 
Q 1081 3291 891 3722 
Q 769 4003 388 4659 
L 791 4659 
Q 1378 3875 1659 3084 
Q 1900 2403 1900 1659 
Q 1900 816 1576 28 
Q 1253 -759 791 -1347 
z
" id="ArialMT-29" transform="scale(0.015625)"/>
      </defs>
      <use xlink:href="#ArialMT-73"/>
      <use x="50" xlink:href="#ArialMT-65"/>
      <use x="105.615234" xlink:href="#ArialMT-61"/>
      <use x="161.230469" xlink:href="#ArialMT-72"/>
      <use x="194.53125" xlink:href="#ArialMT-63"/>
      <use x="244.53125" xlink:href="#ArialMT-68"/>
      <use x="300.146484" xlink:href="#ArialMT-20"/>
      <use x="327.929688" xlink:href="#ArialMT-73"/>
      <use x="377.929688" xlink:href="#ArialMT-74"/>
      <use x="405.712891" xlink:href="#ArialMT-69"/>
      <use x="427.929688" xlink:href="#ArialMT-6d"/>
      <use x="511.230469" xlink:href="#ArialMT-75"/>
      <use x="566.845703" xlink:href="#ArialMT-6c"/>
      <use x="589.0625" xlink:href="#ArialMT-69"/>
      <use x="611.279297" xlink:href="#ArialMT-20"/>
      <use x="639.0625" xlink:href="#ArialMT-28"/>
      <use x="672.363281" xlink:href="#ArialMT-63"/>
      <use x="722.363281" xlink:href="#ArialMT-6c"/>
      <use x="744.580078" xlink:href="#ArialMT-61"/>
      <use x="800.195312" xlink:href="#ArialMT-73"/>
      <use x="850.195312" xlink:href="#ArialMT-73"/>
      <use x="900.195312" xlink:href="#ArialMT-69"/>
      <use x="922.412109" xlink:href="#ArialMT-66"/>
      <use x="950.195312" xlink:href="#ArialMT-79"/>
      <use x="1000.195312" xlink:href="#ArialMT-29"/>
     </g>
    </g>
    <g id="patch_19">
     <path d="M 418.035132 451.636 
L 448.835132 451.636 
L 448.835132 440.856 
L 418.035132 440.856 
z
" style="fill:#fc8d62;fill-opacity:0.25;stroke:#fc8d62;stroke-linejoin:miter;stroke-width:0.8;"/>
    </g>
    <g id="text_32">
     <!-- ImageNet -->
     <g style="fill:#262626;" transform="translate(461.155132 451.636)scale(0.154 -0.154)">
      <defs>
       <path d="M 597 0 
L 597 4581 
L 1203 4581 
L 1203 0 
L 597 0 
z
" id="ArialMT-49" transform="scale(0.015625)"/>
       <path d="M 319 -275 
L 866 -356 
Q 900 -609 1056 -725 
Q 1266 -881 1628 -881 
Q 2019 -881 2231 -725 
Q 2444 -569 2519 -288 
Q 2563 -116 2559 434 
Q 2191 0 1641 0 
Q 956 0 581 494 
Q 206 988 206 1678 
Q 206 2153 378 2554 
Q 550 2956 876 3175 
Q 1203 3394 1644 3394 
Q 2231 3394 2613 2919 
L 2613 3319 
L 3131 3319 
L 3131 450 
Q 3131 -325 2973 -648 
Q 2816 -972 2473 -1159 
Q 2131 -1347 1631 -1347 
Q 1038 -1347 672 -1080 
Q 306 -813 319 -275 
z
M 784 1719 
Q 784 1066 1043 766 
Q 1303 466 1694 466 
Q 2081 466 2343 764 
Q 2606 1063 2606 1700 
Q 2606 2309 2336 2618 
Q 2066 2928 1684 2928 
Q 1309 2928 1046 2623 
Q 784 2319 784 1719 
z
" id="ArialMT-67" transform="scale(0.015625)"/>
       <path d="M 488 0 
L 488 4581 
L 1109 4581 
L 3516 984 
L 3516 4581 
L 4097 4581 
L 4097 0 
L 3475 0 
L 1069 3600 
L 1069 0 
L 488 0 
z
" id="ArialMT-4e" transform="scale(0.015625)"/>
      </defs>
      <use xlink:href="#ArialMT-49"/>
      <use x="27.783203" xlink:href="#ArialMT-6d"/>
      <use x="111.083984" xlink:href="#ArialMT-61"/>
      <use x="166.699219" xlink:href="#ArialMT-67"/>
      <use x="222.314453" xlink:href="#ArialMT-65"/>
      <use x="277.929688" xlink:href="#ArialMT-4e"/>
      <use x="350.146484" xlink:href="#ArialMT-65"/>
      <use x="405.761719" xlink:href="#ArialMT-74"/>
     </g>
    </g>
   </g>
  </g>
  <g id="axes_5">
   <g id="matplotlib.axis_9">
    <g id="text_33">
     <!-- $\beta$ -->
     <g style="fill:#262626;" transform="translate(337.973456 691.879)scale(0.16 -0.16)">
      <defs>
       <path d="M 872 216 
L 572 -1331 
L -6 -1331 
L 928 3478 
Q 1206 4903 2538 4903 
Q 3888 4903 3659 3700 
Q 3503 2844 2894 2531 
Q 3713 2250 3553 1416 
Q 3272 -69 1759 -66 
Q 1097 -63 872 216 
z
M 1019 966 
Q 1259 422 1875 425 
Q 2775 425 2966 1406 
Q 3138 2288 1675 2219 
L 1778 2750 
Q 2909 2731 3106 3750 
Q 3241 4438 2509 4434 
Q 1691 4434 1503 3459 
L 1019 966 
z
" id="DejaVuSans-Oblique-3b2" transform="scale(0.015625)"/>
      </defs>
      <use transform="translate(0 0.390625)" xlink:href="#DejaVuSans-Oblique-3b2"/>
     </g>
    </g>
   </g>
   <g id="matplotlib.axis_10">
    <g id="text_34">
     <!-- Density -->
     <g style="fill:#262626;" transform="translate(18.6525 364.067062)rotate(-90)scale(0.16 -0.16)">
      <defs>
       <path d="M 422 0 
L 422 3319 
L 928 3319 
L 928 2847 
Q 1294 3394 1984 3394 
Q 2284 3394 2536 3286 
Q 2788 3178 2913 3003 
Q 3038 2828 3088 2588 
Q 3119 2431 3119 2041 
L 3119 0 
L 2556 0 
L 2556 2019 
Q 2556 2363 2490 2533 
Q 2425 2703 2258 2804 
Q 2091 2906 1866 2906 
Q 1506 2906 1245 2678 
Q 984 2450 984 1813 
L 984 0 
L 422 0 
z
" id="ArialMT-6e" transform="scale(0.015625)"/>
      </defs>
      <use xlink:href="#ArialMT-44"/>
      <use x="72.216797" xlink:href="#ArialMT-65"/>
      <use x="127.832031" xlink:href="#ArialMT-6e"/>
      <use x="183.447266" xlink:href="#ArialMT-73"/>
      <use x="233.447266" xlink:href="#ArialMT-69"/>
      <use x="255.664062" xlink:href="#ArialMT-74"/>
      <use x="283.447266" xlink:href="#ArialMT-79"/>
     </g>
    </g>
   </g>
  </g>
 </g>
 <defs>
  <clipPath id="peb5343388e">
   <rect height="289.805875" width="282.688687" x="52.02" y="25.225125"/>
  </clipPath>
  <clipPath id="p49475c6364">
   <rect height="289.805875" width="282.688687" x="351.478226" y="25.225125"/>
  </clipPath>
  <clipPath id="p20e784f8bc">
   <rect height="289.805875" width="282.688687" x="52.02" y="359.753125"/>
  </clipPath>
  <clipPath id="pee37f2937a">
   <rect height="289.805875" width="282.688687" x="351.478226" y="359.753125"/>
  </clipPath>
 </defs>
</svg>
