<?xml version="1.0" encoding="utf-8" standalone="no"?>
<!DOCTYPE svg PUBLIC "-//W3C//DTD SVG 1.1//EN"
  "http://www.w3.org/Graphics/SVG/1.1/DTD/svg11.dtd">
<svg height="147.318874pt" version="1.1" viewBox="0 0 270.909268 147.318874" width="270.909268pt" xmlns="http://www.w3.org/2000/svg" xmlns:xlink="http://www.w3.org/1999/xlink">
 <metadata>
  <rdf:RDF xmlns:cc="http://creativecommons.org/ns#" xmlns:dc="http://purl.org/dc/elements/1.1/" xmlns:rdf="http://www.w3.org/1999/02/22-rdf-syntax-ns#">
   <cc:Work>
    <dc:type rdf:resource="http://purl.org/dc/dcmitype/StillImage"/>
    <dc:date>2021-08-09T10:59:53.763671</dc:date>
    <dc:format>image/svg+xml</dc:format>
    <dc:creator>
     <cc:Agent>
      <dc:title>Matplotlib v3.4.2, https://matplotlib.org/</dc:title>
     </cc:Agent>
    </dc:creator>
   </cc:Work>
  </rdf:RDF>
 </metadata>
 <defs>
  <style type="text/css">*{stroke-linecap:butt;stroke-linejoin:round;}</style>
 </defs>
 <g id="figure_1">
  <g id="patch_1">
   <path d="M 0 147.318874 
L 270.909268 147.318874 
L 270.909268 0 
L 0 0 
z
" style="fill:#ffffff;"/>
  </g>
  <g id="axes_1">
   <g id="patch_2">
    <path d="M 25.351 63.703068 
L 70.580273 63.703068 
L 70.580273 15.063125 
L 25.351 15.063125 
z
" style="fill:#eaeaf2;"/>
   </g>
   <g id="matplotlib.axis_1">
    <g id="xtick_1">
     <g id="line2d_1">
      <path clip-path="url(#pa7170431cb)" d="M 27.406876 63.703068 
L 27.406876 15.063125 
" style="fill:none;stroke:#ffffff;stroke-linecap:round;stroke-width:0.8;"/>
     </g>
     <g id="line2d_2"/>
    </g>
    <g id="xtick_2">
     <g id="line2d_3">
      <path clip-path="url(#pa7170431cb)" d="M 41.112716 63.703068 
L 41.112716 15.063125 
" style="fill:none;stroke:#ffffff;stroke-linecap:round;stroke-width:0.8;"/>
     </g>
     <g id="line2d_4"/>
    </g>
    <g id="xtick_3">
     <g id="line2d_5">
      <path clip-path="url(#pa7170431cb)" d="M 54.818557 63.703068 
L 54.818557 15.063125 
" style="fill:none;stroke:#ffffff;stroke-linecap:round;stroke-width:0.8;"/>
     </g>
     <g id="line2d_6"/>
    </g>
    <g id="xtick_4">
     <g id="line2d_7">
      <path clip-path="url(#pa7170431cb)" d="M 68.524397 63.703068 
L 68.524397 15.063125 
" style="fill:none;stroke:#ffffff;stroke-linecap:round;stroke-width:0.8;"/>
     </g>
     <g id="line2d_8"/>
    </g>
   </g>
   <g id="matplotlib.axis_2">
    <g id="ytick_1">
     <g id="line2d_9">
      <path clip-path="url(#pa7170431cb)" d="M 25.351 50.319222 
L 70.580273 50.319222 
" style="fill:none;stroke:#ffffff;stroke-linecap:round;stroke-width:0.8;"/>
     </g>
     <g id="line2d_10"/>
     <g id="text_1">
      <!-- 0.6 -->
      <g style="fill:#262626;" transform="translate(16.011 52.466566)scale(0.06 -0.06)">
       <defs>
        <path d="M 266 2259 
Q 266 3072 433 3567 
Q 600 4063 929 4331 
Q 1259 4600 1759 4600 
Q 2128 4600 2406 4451 
Q 2684 4303 2865 4023 
Q 3047 3744 3150 3342 
Q 3253 2941 3253 2259 
Q 3253 1453 3087 958 
Q 2922 463 2592 192 
Q 2263 -78 1759 -78 
Q 1097 -78 719 397 
Q 266 969 266 2259 
z
M 844 2259 
Q 844 1131 1108 757 
Q 1372 384 1759 384 
Q 2147 384 2411 759 
Q 2675 1134 2675 2259 
Q 2675 3391 2411 3762 
Q 2147 4134 1753 4134 
Q 1366 4134 1134 3806 
Q 844 3388 844 2259 
z
" id="ArialMT-30" transform="scale(0.015625)"/>
        <path d="M 581 0 
L 581 641 
L 1222 641 
L 1222 0 
L 581 0 
z
" id="ArialMT-2e" transform="scale(0.015625)"/>
        <path d="M 3184 3459 
L 2625 3416 
Q 2550 3747 2413 3897 
Q 2184 4138 1850 4138 
Q 1581 4138 1378 3988 
Q 1113 3794 959 3422 
Q 806 3050 800 2363 
Q 1003 2672 1297 2822 
Q 1591 2972 1913 2972 
Q 2475 2972 2870 2558 
Q 3266 2144 3266 1488 
Q 3266 1056 3080 686 
Q 2894 316 2569 119 
Q 2244 -78 1831 -78 
Q 1128 -78 684 439 
Q 241 956 241 2144 
Q 241 3472 731 4075 
Q 1159 4600 1884 4600 
Q 2425 4600 2770 4297 
Q 3116 3994 3184 3459 
z
M 888 1484 
Q 888 1194 1011 928 
Q 1134 663 1356 523 
Q 1578 384 1822 384 
Q 2178 384 2434 671 
Q 2691 959 2691 1453 
Q 2691 1928 2437 2201 
Q 2184 2475 1800 2475 
Q 1419 2475 1153 2201 
Q 888 1928 888 1484 
z
" id="ArialMT-36" transform="scale(0.015625)"/>
       </defs>
       <use xlink:href="#ArialMT-30"/>
       <use x="55.615234" xlink:href="#ArialMT-2e"/>
       <use x="83.398438" xlink:href="#ArialMT-36"/>
      </g>
     </g>
    </g>
    <g id="ytick_2">
     <g id="line2d_11">
      <path clip-path="url(#pa7170431cb)" d="M 25.351 33.796627 
L 70.580273 33.796627 
" style="fill:none;stroke:#ffffff;stroke-linecap:round;stroke-width:0.8;"/>
     </g>
     <g id="line2d_12"/>
     <g id="text_2">
      <!-- 0.8 -->
      <g style="fill:#262626;" transform="translate(16.011 35.943971)scale(0.06 -0.06)">
       <defs>
        <path d="M 1131 2484 
Q 781 2613 612 2850 
Q 444 3088 444 3419 
Q 444 3919 803 4259 
Q 1163 4600 1759 4600 
Q 2359 4600 2725 4251 
Q 3091 3903 3091 3403 
Q 3091 3084 2923 2848 
Q 2756 2613 2416 2484 
Q 2838 2347 3058 2040 
Q 3278 1734 3278 1309 
Q 3278 722 2862 322 
Q 2447 -78 1769 -78 
Q 1091 -78 675 323 
Q 259 725 259 1325 
Q 259 1772 486 2073 
Q 713 2375 1131 2484 
z
M 1019 3438 
Q 1019 3113 1228 2906 
Q 1438 2700 1772 2700 
Q 2097 2700 2305 2904 
Q 2513 3109 2513 3406 
Q 2513 3716 2298 3927 
Q 2084 4138 1766 4138 
Q 1444 4138 1231 3931 
Q 1019 3725 1019 3438 
z
M 838 1322 
Q 838 1081 952 856 
Q 1066 631 1291 507 
Q 1516 384 1775 384 
Q 2178 384 2440 643 
Q 2703 903 2703 1303 
Q 2703 1709 2433 1975 
Q 2163 2241 1756 2241 
Q 1359 2241 1098 1978 
Q 838 1716 838 1322 
z
" id="ArialMT-38" transform="scale(0.015625)"/>
       </defs>
       <use xlink:href="#ArialMT-30"/>
       <use x="55.615234" xlink:href="#ArialMT-2e"/>
       <use x="83.398438" xlink:href="#ArialMT-38"/>
      </g>
     </g>
    </g>
    <g id="ytick_3">
     <g id="line2d_13">
      <path clip-path="url(#pa7170431cb)" d="M 25.351 17.274031 
L 70.580273 17.274031 
" style="fill:none;stroke:#ffffff;stroke-linecap:round;stroke-width:0.8;"/>
     </g>
     <g id="line2d_14"/>
     <g id="text_3">
      <!-- 1.0 -->
      <g style="fill:#262626;" transform="translate(16.011 19.421375)scale(0.06 -0.06)">
       <defs>
        <path d="M 2384 0 
L 1822 0 
L 1822 3584 
Q 1619 3391 1289 3197 
Q 959 3003 697 2906 
L 697 3450 
Q 1169 3672 1522 3987 
Q 1875 4303 2022 4600 
L 2384 4600 
L 2384 0 
z
" id="ArialMT-31" transform="scale(0.015625)"/>
       </defs>
       <use xlink:href="#ArialMT-31"/>
       <use x="55.615234" xlink:href="#ArialMT-2e"/>
       <use x="83.398438" xlink:href="#ArialMT-30"/>
      </g>
     </g>
    </g>
   </g>
   <g id="PolyCollection_1">
    <defs>
     <path d="M 27.406876 -130.044843 
L 27.406876 -130.044843 
L 41.112716 -130.044843 
L 54.818557 -130.044843 
L 68.524397 -130.044843 
L 68.524397 -130.044843 
L 68.524397 -130.044843 
L 54.818557 -130.044843 
L 41.112716 -130.044843 
L 27.406876 -130.044843 
z
" id="m9f89515d31" style="stroke:#66c2a5;stroke-opacity:0.2;stroke-width:0.24;"/>
    </defs>
    <g clip-path="url(#pa7170431cb)">
     <use style="fill:#66c2a5;fill-opacity:0.2;stroke:#66c2a5;stroke-opacity:0.2;stroke-width:0.24;" x="0" xlink:href="#m9f89515d31" y="147.318874"/>
    </g>
   </g>
   <g id="PolyCollection_2">
    <defs>
     <path d="M 27.406876 -130.044843 
L 27.406876 -130.044843 
L 41.112716 -130.044843 
L 54.818557 -129.676035 
L 68.524397 -128.666666 
L 68.524397 -129.268405 
L 68.524397 -129.268405 
L 54.818557 -129.889555 
L 41.112716 -130.044843 
L 27.406876 -130.044843 
z
" id="m3323c4c1b7" style="stroke:#fc8d62;stroke-opacity:0.2;stroke-width:0.24;"/>
    </defs>
    <g clip-path="url(#pa7170431cb)">
     <use style="fill:#fc8d62;fill-opacity:0.2;stroke:#fc8d62;stroke-opacity:0.2;stroke-width:0.24;" x="0" xlink:href="#m3323c4c1b7" y="147.318874"/>
    </g>
   </g>
   <g id="PolyCollection_3">
    <defs>
     <path d="M 27.406876 -114.904306 
L 27.406876 -98.016785 
L 41.112716 -93.7852 
L 54.818557 -88.971286 
L 68.524397 -88.738354 
L 68.524397 -108.071654 
L 68.524397 -108.071654 
L 54.818557 -113.972581 
L 41.112716 -111.45207 
L 27.406876 -114.904306 
z
" id="m5a6ff7e5ae" style="stroke:#8da0cb;stroke-opacity:0.2;stroke-width:0.24;"/>
    </defs>
    <g clip-path="url(#pa7170431cb)">
     <use style="fill:#8da0cb;fill-opacity:0.2;stroke:#8da0cb;stroke-opacity:0.2;stroke-width:0.24;" x="0" xlink:href="#m5a6ff7e5ae" y="147.318874"/>
    </g>
   </g>
   <g id="PolyCollection_4">
    <defs>
     <path d="M 27.406876 -130.044843 
L 27.406876 -130.044843 
L 41.112716 -129.928377 
L 54.818557 -128.026104 
L 68.524397 -124.338025 
L 68.524397 -126.143728 
L 68.524397 -126.143728 
L 54.818557 -128.899597 
L 41.112716 -130.025432 
L 27.406876 -130.044843 
z
" id="m5ffb754ffa" style="stroke:#e78ac3;stroke-opacity:0.2;stroke-width:0.24;"/>
    </defs>
    <g clip-path="url(#pa7170431cb)">
     <use style="fill:#e78ac3;fill-opacity:0.2;stroke:#e78ac3;stroke-opacity:0.2;stroke-width:0.24;" x="0" xlink:href="#m5ffb754ffa" y="147.318874"/>
    </g>
   </g>
   <g id="PolyCollection_5">
    <defs>
     <path d="M 27.406876 -130.044843 
L 27.406876 -130.044843 
L 41.112716 -128.783131 
L 54.818557 -129.443103 
L 68.524397 -128.880186 
L 68.524397 -129.7925 
L 68.524397 -129.7925 
L 54.818557 -129.714856 
L 41.112716 -129.637213 
L 27.406876 -130.044843 
z
" id="m1b7b9503d3" style="stroke:#a6d854;stroke-opacity:0.2;stroke-width:0.24;"/>
    </defs>
    <g clip-path="url(#pa7170431cb)">
     <use style="fill:#a6d854;fill-opacity:0.2;stroke:#a6d854;stroke-opacity:0.2;stroke-width:0.24;" x="0" xlink:href="#m1b7b9503d3" y="147.318874"/>
    </g>
   </g>
   <g id="PolyCollection_6">
    <defs>
     <path d="M 27.406876 -130.044843 
L 27.406876 -130.044843 
L 41.112716 -130.044843 
L 54.818557 -130.044843 
L 68.524397 -130.044843 
L 68.524397 -130.044843 
L 68.524397 -130.044843 
L 54.818557 -130.044843 
L 41.112716 -130.044843 
L 27.406876 -130.044843 
z
" id="m4cb1174594" style="stroke:#ffd92f;stroke-opacity:0.2;stroke-width:0.24;"/>
    </defs>
    <g clip-path="url(#pa7170431cb)">
     <use style="fill:#ffd92f;fill-opacity:0.2;stroke:#ffd92f;stroke-opacity:0.2;stroke-width:0.24;" x="0" xlink:href="#m4cb1174594" y="147.318874"/>
    </g>
   </g>
   <g id="line2d_15">
    <path clip-path="url(#pa7170431cb)" d="M 27.406876 17.274031 
L 41.112716 17.274031 
L 54.818557 17.274031 
L 68.524397 17.274031 
" style="fill:none;stroke:#66c2a5;stroke-linecap:round;stroke-width:1.4;"/>
   </g>
   <g id="line2d_16">
    <path clip-path="url(#pa7170431cb)" d="M 27.406876 17.274031 
L 41.112716 17.274031 
L 54.818557 17.526374 
L 68.524397 18.341633 
" style="fill:none;stroke:#fc8d62;stroke-dasharray:5.6,2.1;stroke-dashoffset:0;stroke-width:1.4;"/>
   </g>
   <g id="line2d_17">
    <path clip-path="url(#pa7170431cb)" d="M 27.406876 39.984836 
L 41.112716 45.846941 
L 54.818557 45.846941 
L 68.524397 51.553758 
" style="fill:none;stroke:#8da0cb;stroke-dasharray:5.6,2.1;stroke-dashoffset:0;stroke-width:1.4;"/>
   </g>
   <g id="line2d_18">
    <path clip-path="url(#pa7170431cb)" d="M 27.406876 17.274031 
L 41.112716 17.332264 
L 54.818557 18.807496 
L 68.524397 22.087946 
" style="fill:none;stroke:#e78ac3;stroke-dasharray:5.6,2.1;stroke-dashoffset:0;stroke-width:1.4;"/>
   </g>
   <g id="line2d_19">
    <path clip-path="url(#pa7170431cb)" d="M 27.406876 17.274031 
L 41.112716 18.089291 
L 54.818557 17.739894 
L 68.524397 17.934004 
" style="fill:none;stroke:#a6d854;stroke-dasharray:5.6,2.1;stroke-dashoffset:0;stroke-width:1.4;"/>
   </g>
   <g id="line2d_20">
    <path clip-path="url(#pa7170431cb)" d="M 27.406876 17.274031 
L 41.112716 17.274031 
L 54.818557 17.274031 
L 68.524397 17.274031 
" style="fill:none;stroke:#ffd92f;stroke-dasharray:5.6,2.1;stroke-dashoffset:0;stroke-width:1.4;"/>
   </g>
   <g id="line2d_21"/>
   <g id="line2d_22"/>
   <g id="line2d_23"/>
   <g id="line2d_24"/>
   <g id="line2d_25"/>
   <g id="line2d_26"/>
   <g id="line2d_27"/>
   <g id="line2d_28"/>
   <g id="patch_3">
    <path d="M 25.351 63.703068 
L 25.351 15.063125 
" style="fill:none;"/>
   </g>
   <g id="patch_4">
    <path d="M 70.580273 63.703068 
L 70.580273 15.063125 
" style="fill:none;"/>
   </g>
   <g id="patch_5">
    <path d="M 25.351 63.703068 
L 70.580273 63.703068 
" style="fill:none;"/>
   </g>
   <g id="patch_6">
    <path d="M 25.351 15.063125 
L 70.580273 15.063125 
" style="fill:none;"/>
   </g>
   <g id="text_4">
    <!-- AlexNet -->
    <g style="fill:#262626;" transform="translate(28.77746 62.298104)scale(0.08 -0.08)">
     <defs>
      <path d="M 4597 0 
L 3591 0 
L 3191 1041 
L 1359 1041 
L 981 0 
L 0 0 
L 1784 4581 
L 2763 4581 
L 4597 0 
z
M 2894 1813 
L 2263 3513 
L 1644 1813 
L 2894 1813 
z
" id="Arial-BoldMT-41" transform="scale(0.015625)"/>
      <path d="M 459 0 
L 459 4581 
L 1338 4581 
L 1338 0 
L 459 0 
z
" id="Arial-BoldMT-6c" transform="scale(0.015625)"/>
      <path d="M 2381 1056 
L 3256 909 
Q 3088 428 2723 176 
Q 2359 -75 1813 -75 
Q 947 -75 531 491 
Q 203 944 203 1634 
Q 203 2459 634 2926 
Q 1066 3394 1725 3394 
Q 2466 3394 2894 2905 
Q 3322 2416 3303 1406 
L 1103 1406 
Q 1113 1016 1316 798 
Q 1519 581 1822 581 
Q 2028 581 2168 693 
Q 2309 806 2381 1056 
z
M 2431 1944 
Q 2422 2325 2234 2523 
Q 2047 2722 1778 2722 
Q 1491 2722 1303 2513 
Q 1116 2303 1119 1944 
L 2431 1944 
z
" id="Arial-BoldMT-65" transform="scale(0.015625)"/>
      <path d="M 38 0 
L 1234 1709 
L 88 3319 
L 1159 3319 
L 1747 2406 
L 2366 3319 
L 3397 3319 
L 2272 1747 
L 3500 0 
L 2422 0 
L 1747 1028 
L 1066 0 
L 38 0 
z
" id="Arial-BoldMT-78" transform="scale(0.015625)"/>
      <path d="M 475 0 
L 475 4581 
L 1375 4581 
L 3250 1522 
L 3250 4581 
L 4109 4581 
L 4109 0 
L 3181 0 
L 1334 2988 
L 1334 0 
L 475 0 
z
" id="Arial-BoldMT-4e" transform="scale(0.015625)"/>
      <path d="M 1981 3319 
L 1981 2619 
L 1381 2619 
L 1381 1281 
Q 1381 875 1398 808 
Q 1416 741 1477 697 
Q 1538 653 1625 653 
Q 1747 653 1978 738 
L 2053 56 
Q 1747 -75 1359 -75 
Q 1122 -75 931 4 
Q 741 84 652 211 
Q 563 338 528 553 
Q 500 706 500 1172 
L 500 2619 
L 97 2619 
L 97 3319 
L 500 3319 
L 500 3978 
L 1381 4491 
L 1381 3319 
L 1981 3319 
z
" id="Arial-BoldMT-74" transform="scale(0.015625)"/>
     </defs>
     <use xlink:href="#Arial-BoldMT-41"/>
     <use x="72.216797" xlink:href="#Arial-BoldMT-6c"/>
     <use x="100" xlink:href="#Arial-BoldMT-65"/>
     <use x="155.615234" xlink:href="#Arial-BoldMT-78"/>
     <use x="211.230469" xlink:href="#Arial-BoldMT-4e"/>
     <use x="283.447266" xlink:href="#Arial-BoldMT-65"/>
     <use x="339.0625" xlink:href="#Arial-BoldMT-74"/>
    </g>
   </g>
   <g id="text_5">
    <!-- RVvGV -->
    <g style="fill:#262626;" transform="translate(41.332511 10.063125)scale(0.04 -0.04)">
     <defs>
      <path d="M 503 0 
L 503 4581 
L 2534 4581 
Q 3147 4581 3465 4457 
Q 3784 4334 3975 4021 
Q 4166 3709 4166 3331 
Q 4166 2844 3850 2509 
Q 3534 2175 2875 2084 
Q 3116 1969 3241 1856 
Q 3506 1613 3744 1247 
L 4541 0 
L 3778 0 
L 3172 953 
Q 2906 1366 2734 1584 
Q 2563 1803 2427 1890 
Q 2291 1978 2150 2013 
Q 2047 2034 1813 2034 
L 1109 2034 
L 1109 0 
L 503 0 
z
M 1109 2559 
L 2413 2559 
Q 2828 2559 3062 2645 
Q 3297 2731 3419 2920 
Q 3541 3109 3541 3331 
Q 3541 3656 3305 3865 
Q 3069 4075 2559 4075 
L 1109 4075 
L 1109 2559 
z
" id="ArialMT-52" transform="scale(0.015625)"/>
      <path d="M 1803 0 
L 28 4581 
L 684 4581 
L 1875 1253 
Q 2019 853 2116 503 
Q 2222 878 2363 1253 
L 3600 4581 
L 4219 4581 
L 2425 0 
L 1803 0 
z
" id="ArialMT-56" transform="scale(0.015625)"/>
      <path d="M 1344 0 
L 81 3319 
L 675 3319 
L 1388 1331 
Q 1503 1009 1600 663 
Q 1675 925 1809 1294 
L 2547 3319 
L 3125 3319 
L 1869 0 
L 1344 0 
z
" id="ArialMT-76" transform="scale(0.015625)"/>
      <path d="M 2638 1797 
L 2638 2334 
L 4578 2338 
L 4578 638 
Q 4131 281 3656 101 
Q 3181 -78 2681 -78 
Q 2006 -78 1454 211 
Q 903 500 622 1047 
Q 341 1594 341 2269 
Q 341 2938 620 3517 
Q 900 4097 1425 4378 
Q 1950 4659 2634 4659 
Q 3131 4659 3532 4498 
Q 3934 4338 4162 4050 
Q 4391 3763 4509 3300 
L 3963 3150 
Q 3859 3500 3706 3700 
Q 3553 3900 3268 4020 
Q 2984 4141 2638 4141 
Q 2222 4141 1919 4014 
Q 1616 3888 1430 3681 
Q 1244 3475 1141 3228 
Q 966 2803 966 2306 
Q 966 1694 1177 1281 
Q 1388 869 1791 669 
Q 2194 469 2647 469 
Q 3041 469 3416 620 
Q 3791 772 3984 944 
L 3984 1797 
L 2638 1797 
z
" id="ArialMT-47" transform="scale(0.015625)"/>
     </defs>
     <use xlink:href="#ArialMT-52"/>
     <use x="70.466797" xlink:href="#ArialMT-56"/>
     <use x="137.166016" xlink:href="#ArialMT-76"/>
     <use x="187.166016" xlink:href="#ArialMT-47"/>
     <use x="264.949219" xlink:href="#ArialMT-56"/>
    </g>
   </g>
  </g>
  <g id="axes_2">
   <g id="patch_7">
    <path d="M 79.626127 63.703068 
L 124.8554 63.703068 
L 124.8554 15.063125 
L 79.626127 15.063125 
z
" style="fill:#eaeaf2;"/>
   </g>
   <g id="matplotlib.axis_3">
    <g id="xtick_5">
     <g id="line2d_29">
      <path clip-path="url(#pa188fea4ea)" d="M 81.682003 63.703068 
L 81.682003 15.063125 
" style="fill:none;stroke:#ffffff;stroke-linecap:round;stroke-width:0.8;"/>
     </g>
     <g id="line2d_30"/>
    </g>
    <g id="xtick_6">
     <g id="line2d_31">
      <path clip-path="url(#pa188fea4ea)" d="M 95.387844 63.703068 
L 95.387844 15.063125 
" style="fill:none;stroke:#ffffff;stroke-linecap:round;stroke-width:0.8;"/>
     </g>
     <g id="line2d_32"/>
    </g>
    <g id="xtick_7">
     <g id="line2d_33">
      <path clip-path="url(#pa188fea4ea)" d="M 109.093684 63.703068 
L 109.093684 15.063125 
" style="fill:none;stroke:#ffffff;stroke-linecap:round;stroke-width:0.8;"/>
     </g>
     <g id="line2d_34"/>
    </g>
    <g id="xtick_8">
     <g id="line2d_35">
      <path clip-path="url(#pa188fea4ea)" d="M 122.799524 63.703068 
L 122.799524 15.063125 
" style="fill:none;stroke:#ffffff;stroke-linecap:round;stroke-width:0.8;"/>
     </g>
     <g id="line2d_36"/>
    </g>
   </g>
   <g id="matplotlib.axis_4">
    <g id="ytick_4">
     <g id="line2d_37">
      <path clip-path="url(#pa188fea4ea)" d="M 79.626127 50.319222 
L 124.8554 50.319222 
" style="fill:none;stroke:#ffffff;stroke-linecap:round;stroke-width:0.8;"/>
     </g>
     <g id="line2d_38"/>
    </g>
    <g id="ytick_5">
     <g id="line2d_39">
      <path clip-path="url(#pa188fea4ea)" d="M 79.626127 33.796627 
L 124.8554 33.796627 
" style="fill:none;stroke:#ffffff;stroke-linecap:round;stroke-width:0.8;"/>
     </g>
     <g id="line2d_40"/>
    </g>
    <g id="ytick_6">
     <g id="line2d_41">
      <path clip-path="url(#pa188fea4ea)" d="M 79.626127 17.274031 
L 124.8554 17.274031 
" style="fill:none;stroke:#ffffff;stroke-linecap:round;stroke-width:0.8;"/>
     </g>
     <g id="line2d_42"/>
    </g>
   </g>
   <g id="PolyCollection_7">
    <defs>
     <path d="M 81.682003 -130.044843 
L 81.682003 -130.044843 
L 95.387844 -130.044843 
L 109.093684 -130.044843 
L 122.799524 -130.044843 
L 122.799524 -130.044843 
L 122.799524 -130.044843 
L 109.093684 -130.044843 
L 95.387844 -130.044843 
L 81.682003 -130.044843 
z
" id="mffe09a0f6c" style="stroke:#66c2a5;stroke-opacity:0.2;stroke-width:0.24;"/>
    </defs>
    <g clip-path="url(#pa188fea4ea)">
     <use style="fill:#66c2a5;fill-opacity:0.2;stroke:#66c2a5;stroke-opacity:0.2;stroke-width:0.24;" x="0" xlink:href="#mffe09a0f6c" y="147.318874"/>
    </g>
   </g>
   <g id="PolyCollection_8">
    <defs>
     <path d="M 81.682003 -130.044843 
L 81.682003 -130.044843 
L 95.387844 -130.044843 
L 109.093684 -127.793173 
L 122.799524 -117.136565 
L 122.799524 -119.271769 
L 122.799524 -119.271769 
L 109.093684 -128.259036 
L 95.387844 -130.044843 
L 81.682003 -130.044843 
z
" id="maa6e76ba36" style="stroke:#fc8d62;stroke-opacity:0.2;stroke-width:0.24;"/>
    </defs>
    <g clip-path="url(#pa188fea4ea)">
     <use style="fill:#fc8d62;fill-opacity:0.2;stroke:#fc8d62;stroke-opacity:0.2;stroke-width:0.24;" x="0" xlink:href="#maa6e76ba36" y="147.318874"/>
    </g>
   </g>
   <g id="PolyCollection_9">
    <defs>
     <path d="M 81.682003 -107.295217 
L 81.682003 -95.532185 
L 95.387844 -95.338075 
L 109.093684 -89.47597 
L 122.799524 -88.738354 
L 122.799524 -88.738354 
L 122.799524 -88.738354 
L 109.093684 -91.184133 
L 95.387844 -100.151989 
L 81.682003 -107.295217 
z
" id="me9d3121479" style="stroke:#8da0cb;stroke-opacity:0.2;stroke-width:0.24;"/>
    </defs>
    <g clip-path="url(#pa188fea4ea)">
     <use style="fill:#8da0cb;fill-opacity:0.2;stroke:#8da0cb;stroke-opacity:0.2;stroke-width:0.24;" x="0" xlink:href="#me9d3121479" y="147.318874"/>
    </g>
   </g>
   <g id="PolyCollection_10">
    <defs>
     <path d="M 81.682003 -130.044843 
L 81.682003 -130.044843 
L 95.387844 -129.928377 
L 109.093684 -128.220214 
L 122.799524 -122.280465 
L 122.799524 -123.736286 
L 122.799524 -123.736286 
L 109.093684 -129.268405 
L 95.387844 -130.044843 
L 81.682003 -130.044843 
z
" id="m8747b18552" style="stroke:#e78ac3;stroke-opacity:0.2;stroke-width:0.24;"/>
    </defs>
    <g clip-path="url(#pa188fea4ea)">
     <use style="fill:#e78ac3;fill-opacity:0.2;stroke:#e78ac3;stroke-opacity:0.2;stroke-width:0.24;" x="0" xlink:href="#m8747b18552" y="147.318874"/>
    </g>
   </g>
   <g id="PolyCollection_11">
    <defs>
     <path d="M 81.682003 -130.044843 
L 81.682003 -129.928377 
L 95.387844 -128.569611 
L 109.093684 -116.82599 
L 122.799524 -100.1714 
L 122.799524 -102.384733 
L 122.799524 -102.384733 
L 109.093684 -119.718706 
L 95.387844 -129.054884 
L 81.682003 -130.044843 
z
" id="m82df4088e8" style="stroke:#a6d854;stroke-opacity:0.2;stroke-width:0.24;"/>
    </defs>
    <g clip-path="url(#pa188fea4ea)">
     <use style="fill:#a6d854;fill-opacity:0.2;stroke:#a6d854;stroke-opacity:0.2;stroke-width:0.24;" x="0" xlink:href="#m82df4088e8" y="147.318874"/>
    </g>
   </g>
   <g id="PolyCollection_12">
    <defs>
     <path d="M 81.682003 -130.044843 
L 81.682003 -130.044843 
L 95.387844 -130.044843 
L 109.093684 -130.044843 
L 122.799524 -130.044843 
L 122.799524 -130.044843 
L 122.799524 -130.044843 
L 109.093684 -130.044843 
L 95.387844 -130.044843 
L 81.682003 -130.044843 
z
" id="m4c2a516d84" style="stroke:#ffd92f;stroke-opacity:0.2;stroke-width:0.24;"/>
    </defs>
    <g clip-path="url(#pa188fea4ea)">
     <use style="fill:#ffd92f;fill-opacity:0.2;stroke:#ffd92f;stroke-opacity:0.2;stroke-width:0.24;" x="0" xlink:href="#m4c2a516d84" y="147.318874"/>
    </g>
   </g>
   <g id="line2d_43">
    <path clip-path="url(#pa188fea4ea)" d="M 81.682003 17.274031 
L 95.387844 17.274031 
L 109.093684 17.274031 
L 122.799524 17.274031 
" style="fill:none;stroke:#66c2a5;stroke-linecap:round;stroke-width:1.4;"/>
   </g>
   <g id="line2d_44">
    <path clip-path="url(#pa188fea4ea)" d="M 81.682003 17.274031 
L 95.387844 17.274031 
L 109.093684 19.29277 
L 122.799524 28.998241 
" style="fill:none;stroke:#fc8d62;stroke-dasharray:5.6,2.1;stroke-dashoffset:0;stroke-width:1.4;"/>
   </g>
   <g id="line2d_45">
    <path clip-path="url(#pa188fea4ea)" d="M 81.682003 46.118694 
L 95.387844 49.651486 
L 109.093684 56.872357 
L 122.799524 58.58052 
" style="fill:none;stroke:#8da0cb;stroke-dasharray:5.6,2.1;stroke-dashoffset:0;stroke-width:1.4;"/>
   </g>
   <g id="line2d_46">
    <path clip-path="url(#pa188fea4ea)" d="M 81.682003 17.274031 
L 95.387844 17.312853 
L 109.093684 18.535743 
L 122.799524 24.281382 
" style="fill:none;stroke:#e78ac3;stroke-dasharray:5.6,2.1;stroke-dashoffset:0;stroke-width:1.4;"/>
   </g>
   <g id="line2d_47">
    <path clip-path="url(#pa188fea4ea)" d="M 81.682003 17.312853 
L 95.387844 18.496921 
L 109.093684 28.95942 
L 122.799524 45.982817 
" style="fill:none;stroke:#a6d854;stroke-dasharray:5.6,2.1;stroke-dashoffset:0;stroke-width:1.4;"/>
   </g>
   <g id="line2d_48">
    <path clip-path="url(#pa188fea4ea)" d="M 81.682003 17.274031 
L 95.387844 17.274031 
L 109.093684 17.274031 
L 122.799524 17.274031 
" style="fill:none;stroke:#ffd92f;stroke-dasharray:5.6,2.1;stroke-dashoffset:0;stroke-width:1.4;"/>
   </g>
   <g id="patch_8">
    <path d="M 79.626127 63.703068 
L 79.626127 15.063125 
" style="fill:none;"/>
   </g>
   <g id="patch_9">
    <path d="M 124.8554 63.703068 
L 124.8554 15.063125 
" style="fill:none;"/>
   </g>
   <g id="patch_10">
    <path d="M 79.626127 63.703068 
L 124.8554 63.703068 
" style="fill:none;"/>
   </g>
   <g id="patch_11">
    <path d="M 79.626127 15.063125 
L 124.8554 15.063125 
" style="fill:none;"/>
   </g>
   <g id="text_6">
    <!-- RVvRHGV -->
    <g style="fill:#262626;" transform="translate(92.718889 10.063125)scale(0.04 -0.04)">
     <defs>
      <path d="M 513 0 
L 513 4581 
L 1119 4581 
L 1119 2700 
L 3500 2700 
L 3500 4581 
L 4106 4581 
L 4106 0 
L 3500 0 
L 3500 2159 
L 1119 2159 
L 1119 0 
L 513 0 
z
" id="ArialMT-48" transform="scale(0.015625)"/>
     </defs>
     <use xlink:href="#ArialMT-52"/>
     <use x="70.466797" xlink:href="#ArialMT-56"/>
     <use x="137.166016" xlink:href="#ArialMT-76"/>
     <use x="187.166016" xlink:href="#ArialMT-52"/>
     <use x="259.382812" xlink:href="#ArialMT-48"/>
     <use x="331.599609" xlink:href="#ArialMT-47"/>
     <use x="409.382812" xlink:href="#ArialMT-56"/>
    </g>
   </g>
  </g>
  <g id="axes_3">
   <g id="patch_12">
    <path d="M 133.901255 63.703068 
L 179.130528 63.703068 
L 179.130528 15.063125 
L 133.901255 15.063125 
z
" style="fill:#eaeaf2;"/>
   </g>
   <g id="matplotlib.axis_5">
    <g id="xtick_9">
     <g id="line2d_49">
      <path clip-path="url(#p145d18275d)" d="M 135.957131 63.703068 
L 135.957131 15.063125 
" style="fill:none;stroke:#ffffff;stroke-linecap:round;stroke-width:0.8;"/>
     </g>
     <g id="line2d_50"/>
    </g>
    <g id="xtick_10">
     <g id="line2d_51">
      <path clip-path="url(#p145d18275d)" d="M 149.662971 63.703068 
L 149.662971 15.063125 
" style="fill:none;stroke:#ffffff;stroke-linecap:round;stroke-width:0.8;"/>
     </g>
     <g id="line2d_52"/>
    </g>
    <g id="xtick_11">
     <g id="line2d_53">
      <path clip-path="url(#p145d18275d)" d="M 163.368811 63.703068 
L 163.368811 15.063125 
" style="fill:none;stroke:#ffffff;stroke-linecap:round;stroke-width:0.8;"/>
     </g>
     <g id="line2d_54"/>
    </g>
    <g id="xtick_12">
     <g id="line2d_55">
      <path clip-path="url(#p145d18275d)" d="M 177.074652 63.703068 
L 177.074652 15.063125 
" style="fill:none;stroke:#ffffff;stroke-linecap:round;stroke-width:0.8;"/>
     </g>
     <g id="line2d_56"/>
    </g>
   </g>
   <g id="matplotlib.axis_6">
    <g id="ytick_7">
     <g id="line2d_57">
      <path clip-path="url(#p145d18275d)" d="M 133.901255 50.319222 
L 179.130528 50.319222 
" style="fill:none;stroke:#ffffff;stroke-linecap:round;stroke-width:0.8;"/>
     </g>
     <g id="line2d_58"/>
    </g>
    <g id="ytick_8">
     <g id="line2d_59">
      <path clip-path="url(#p145d18275d)" d="M 133.901255 33.796627 
L 179.130528 33.796627 
" style="fill:none;stroke:#ffffff;stroke-linecap:round;stroke-width:0.8;"/>
     </g>
     <g id="line2d_60"/>
    </g>
    <g id="ytick_9">
     <g id="line2d_61">
      <path clip-path="url(#p145d18275d)" d="M 133.901255 17.274031 
L 179.130528 17.274031 
" style="fill:none;stroke:#ffffff;stroke-linecap:round;stroke-width:0.8;"/>
     </g>
     <g id="line2d_62"/>
    </g>
   </g>
   <g id="PolyCollection_13">
    <defs>
     <path d="M 135.957131 -130.044843 
L 135.957131 -130.044843 
L 149.662971 -130.044843 
L 163.368811 -129.850733 
L 177.074652 -129.268405 
L 177.074652 -129.967199 
L 177.074652 -129.967199 
L 163.368811 -130.025432 
L 149.662971 -130.044843 
L 135.957131 -130.044843 
z
" id="mc9f174c2aa" style="stroke:#66c2a5;stroke-opacity:0.2;stroke-width:0.24;"/>
    </defs>
    <g clip-path="url(#p145d18275d)">
     <use style="fill:#66c2a5;fill-opacity:0.2;stroke:#66c2a5;stroke-opacity:0.2;stroke-width:0.24;" x="0" xlink:href="#mc9f174c2aa" y="147.318874"/>
    </g>
   </g>
   <g id="PolyCollection_14">
    <defs>
     <path d="M 135.957131 -119.795864 
L 135.957131 -116.049552 
L 149.662971 -106.381932 
L 163.368811 -94.056953 
L 177.074652 -91.998908 
L 177.074652 -94.620356 
L 177.074652 -94.620356 
L 163.368811 -96.231464 
L 149.662971 -109.799228 
L 135.957131 -119.795864 
z
" id="m0ad87a895d" style="stroke:#fc8d62;stroke-opacity:0.2;stroke-width:0.24;"/>
    </defs>
    <g clip-path="url(#p145d18275d)">
     <use style="fill:#fc8d62;fill-opacity:0.2;stroke:#fc8d62;stroke-opacity:0.2;stroke-width:0.24;" x="0" xlink:href="#m0ad87a895d" y="147.318874"/>
    </g>
   </g>
   <g id="PolyCollection_15">
    <defs>
     <path d="M 135.957131 -90.446517 
L 135.957131 -86.680794 
L 149.662971 -88.427779 
L 163.368811 -88.621889 
L 177.074652 -88.738354 
L 177.074652 -88.738354 
L 177.074652 -88.738354 
L 163.368811 -88.738354 
L 149.662971 -88.893642 
L 135.957131 -90.446517 
z
" id="m178903176c" style="stroke:#8da0cb;stroke-opacity:0.2;stroke-width:0.24;"/>
    </defs>
    <g clip-path="url(#p145d18275d)">
     <use style="fill:#8da0cb;fill-opacity:0.2;stroke:#8da0cb;stroke-opacity:0.2;stroke-width:0.24;" x="0" xlink:href="#m178903176c" y="147.318874"/>
    </g>
   </g>
   <g id="PolyCollection_16">
    <defs>
     <path d="M 135.957131 -118.010057 
L 135.957131 -112.865672 
L 149.662971 -100.734318 
L 163.368811 -89.57254 
L 177.074652 -91.688818 
L 177.074652 -93.435803 
L 177.074652 -93.435803 
L 163.368811 -91.494708 
L 149.662971 -104.014767 
L 135.957131 -118.010057 
z
" id="m830a9a0700" style="stroke:#e78ac3;stroke-opacity:0.2;stroke-width:0.24;"/>
    </defs>
    <g clip-path="url(#p145d18275d)">
     <use style="fill:#e78ac3;fill-opacity:0.2;stroke:#e78ac3;stroke-opacity:0.2;stroke-width:0.24;" x="0" xlink:href="#m830a9a0700" y="147.318874"/>
    </g>
   </g>
   <g id="PolyCollection_17">
    <defs>
     <path d="M 135.957131 -104.131718 
L 135.957131 -101.336057 
L 149.662971 -96.289211 
L 163.368811 -92.05714 
L 177.074652 -92.581236 
L 177.074652 -94.134597 
L 177.074652 -94.134597 
L 163.368811 -93.396981 
L 149.662971 -97.162704 
L 135.957131 -104.131718 
z
" id="m68f90bac1f" style="stroke:#a6d854;stroke-opacity:0.2;stroke-width:0.24;"/>
    </defs>
    <g clip-path="url(#p145d18275d)">
     <use style="fill:#a6d854;fill-opacity:0.2;stroke:#a6d854;stroke-opacity:0.2;stroke-width:0.24;" x="0" xlink:href="#m68f90bac1f" y="147.318874"/>
    </g>
   </g>
   <g id="PolyCollection_18">
    <defs>
     <path d="M 135.957131 -124.939764 
L 135.957131 -122.222232 
L 149.662971 -113.603773 
L 163.368811 -106.557601 
L 177.074652 -97.589259 
L 177.074652 -98.793708 
L 177.074652 -98.793708 
L 163.368811 -108.343407 
L 149.662971 -116.147092 
L 135.957131 -124.939764 
z
" id="mb0add78874" style="stroke:#ffd92f;stroke-opacity:0.2;stroke-width:0.24;"/>
    </defs>
    <g clip-path="url(#p145d18275d)">
     <use style="fill:#ffd92f;fill-opacity:0.2;stroke:#ffd92f;stroke-opacity:0.2;stroke-width:0.24;" x="0" xlink:href="#mb0add78874" y="147.318874"/>
    </g>
   </g>
   <g id="line2d_63">
    <path clip-path="url(#p145d18275d)" d="M 135.957131 17.274031 
L 149.662971 17.274031 
L 163.368811 17.371086 
L 177.074652 17.681661 
" style="fill:none;stroke:#66c2a5;stroke-linecap:round;stroke-width:1.4;"/>
   </g>
   <g id="line2d_64">
    <path clip-path="url(#p145d18275d)" d="M 135.957131 29.464104 
L 149.662971 39.286042 
L 163.368811 52.136086 
L 177.074652 53.921893 
" style="fill:none;stroke:#fc8d62;stroke-dasharray:5.6,2.1;stroke-dashoffset:0;stroke-width:1.4;"/>
   </g>
   <g id="line2d_65">
    <path clip-path="url(#p145d18275d)" d="M 135.957131 58.58052 
L 149.662971 58.619342 
L 163.368811 58.619342 
L 177.074652 58.58052 
" style="fill:none;stroke:#8da0cb;stroke-dasharray:5.6,2.1;stroke-dashoffset:0;stroke-width:1.4;"/>
   </g>
   <g id="line2d_66">
    <path clip-path="url(#p145d18275d)" d="M 135.957131 31.909883 
L 149.662971 44.856982 
L 163.368811 56.755891 
L 177.074652 54.717742 
" style="fill:none;stroke:#e78ac3;stroke-dasharray:5.6,2.1;stroke-dashoffset:0;stroke-width:1.4;"/>
   </g>
   <g id="line2d_67">
    <path clip-path="url(#p145d18275d)" d="M 135.957131 44.60464 
L 149.662971 50.5638 
L 163.368811 54.581865 
L 177.074652 54.038359 
" style="fill:none;stroke:#a6d854;stroke-dasharray:5.6,2.1;stroke-dashoffset:0;stroke-width:1.4;"/>
   </g>
   <g id="line2d_68">
    <path clip-path="url(#p145d18275d)" d="M 135.957131 23.62141 
L 149.662971 32.414568 
L 163.368811 39.810137 
L 177.074652 49.107979 
" style="fill:none;stroke:#ffd92f;stroke-dasharray:5.6,2.1;stroke-dashoffset:0;stroke-width:1.4;"/>
   </g>
   <g id="patch_13">
    <path d="M 133.901255 63.703068 
L 133.901255 15.063125 
" style="fill:none;"/>
   </g>
   <g id="patch_14">
    <path d="M 179.130528 63.703068 
L 179.130528 15.063125 
" style="fill:none;"/>
   </g>
   <g id="patch_15">
    <path d="M 133.901255 63.703068 
L 179.130528 63.703068 
" style="fill:none;"/>
   </g>
   <g id="patch_16">
    <path d="M 133.901255 15.063125 
L 179.130528 15.063125 
" style="fill:none;"/>
   </g>
   <g id="text_7">
    <!-- 2 v 5 -->
    <g style="fill:#262626;" transform="translate(152.180266 10.063125)scale(0.04 -0.04)">
     <defs>
      <path d="M 3222 541 
L 3222 0 
L 194 0 
Q 188 203 259 391 
Q 375 700 629 1000 
Q 884 1300 1366 1694 
Q 2113 2306 2375 2664 
Q 2638 3022 2638 3341 
Q 2638 3675 2398 3904 
Q 2159 4134 1775 4134 
Q 1369 4134 1125 3890 
Q 881 3647 878 3216 
L 300 3275 
Q 359 3922 746 4261 
Q 1134 4600 1788 4600 
Q 2447 4600 2831 4234 
Q 3216 3869 3216 3328 
Q 3216 3053 3103 2787 
Q 2991 2522 2730 2228 
Q 2469 1934 1863 1422 
Q 1356 997 1212 845 
Q 1069 694 975 541 
L 3222 541 
z
" id="ArialMT-32" transform="scale(0.015625)"/>
      <path id="ArialMT-20" transform="scale(0.015625)"/>
      <path d="M 266 1200 
L 856 1250 
Q 922 819 1161 601 
Q 1400 384 1738 384 
Q 2144 384 2425 690 
Q 2706 997 2706 1503 
Q 2706 1984 2436 2262 
Q 2166 2541 1728 2541 
Q 1456 2541 1237 2417 
Q 1019 2294 894 2097 
L 366 2166 
L 809 4519 
L 3088 4519 
L 3088 3981 
L 1259 3981 
L 1013 2750 
Q 1425 3038 1878 3038 
Q 2478 3038 2890 2622 
Q 3303 2206 3303 1553 
Q 3303 931 2941 478 
Q 2500 -78 1738 -78 
Q 1113 -78 717 272 
Q 322 622 266 1200 
z
" id="ArialMT-35" transform="scale(0.015625)"/>
     </defs>
     <use xlink:href="#ArialMT-32"/>
     <use x="55.615234" xlink:href="#ArialMT-20"/>
     <use x="83.398438" xlink:href="#ArialMT-76"/>
     <use x="133.398438" xlink:href="#ArialMT-20"/>
     <use x="161.181641" xlink:href="#ArialMT-35"/>
    </g>
   </g>
  </g>
  <g id="axes_4">
   <g id="patch_17">
    <path d="M 25.351 122.070999 
L 70.580273 122.070999 
L 70.580273 73.431056 
L 25.351 73.431056 
z
" style="fill:#eaeaf2;"/>
   </g>
   <g id="matplotlib.axis_7">
    <g id="xtick_13">
     <g id="line2d_69">
      <path clip-path="url(#pe4a732a769)" d="M 27.406876 122.070999 
L 27.406876 73.431056 
" style="fill:none;stroke:#ffffff;stroke-linecap:round;stroke-width:0.8;"/>
     </g>
     <g id="line2d_70"/>
     <g id="text_8">
      <!-- 1 -->
      <g style="fill:#262626;" transform="translate(25.738595 128.365687)scale(0.06 -0.06)">
       <use xlink:href="#ArialMT-31"/>
      </g>
     </g>
    </g>
    <g id="xtick_14">
     <g id="line2d_71">
      <path clip-path="url(#pe4a732a769)" d="M 41.112716 122.070999 
L 41.112716 73.431056 
" style="fill:none;stroke:#ffffff;stroke-linecap:round;stroke-width:0.8;"/>
     </g>
     <g id="line2d_72"/>
     <g id="text_9">
      <!-- 2 -->
      <g style="fill:#262626;" transform="translate(39.444435 128.365687)scale(0.06 -0.06)">
       <use xlink:href="#ArialMT-32"/>
      </g>
     </g>
    </g>
    <g id="xtick_15">
     <g id="line2d_73">
      <path clip-path="url(#pe4a732a769)" d="M 54.818557 122.070999 
L 54.818557 73.431056 
" style="fill:none;stroke:#ffffff;stroke-linecap:round;stroke-width:0.8;"/>
     </g>
     <g id="line2d_74"/>
     <g id="text_10">
      <!-- 4 -->
      <g style="fill:#262626;" transform="translate(53.150275 128.365687)scale(0.06 -0.06)">
       <defs>
        <path d="M 2069 0 
L 2069 1097 
L 81 1097 
L 81 1613 
L 2172 4581 
L 2631 4581 
L 2631 1613 
L 3250 1613 
L 3250 1097 
L 2631 1097 
L 2631 0 
L 2069 0 
z
M 2069 1613 
L 2069 3678 
L 634 1613 
L 2069 1613 
z
" id="ArialMT-34" transform="scale(0.015625)"/>
       </defs>
       <use xlink:href="#ArialMT-34"/>
      </g>
     </g>
    </g>
    <g id="xtick_16">
     <g id="line2d_75">
      <path clip-path="url(#pe4a732a769)" d="M 68.524397 122.070999 
L 68.524397 73.431056 
" style="fill:none;stroke:#ffffff;stroke-linecap:round;stroke-width:0.8;"/>
     </g>
     <g id="line2d_76"/>
     <g id="text_11">
      <!-- 8 -->
      <g style="fill:#262626;" transform="translate(66.856116 128.365687)scale(0.06 -0.06)">
       <use xlink:href="#ArialMT-38"/>
      </g>
     </g>
    </g>
   </g>
   <g id="matplotlib.axis_8">
    <g id="ytick_10">
     <g id="line2d_77">
      <path clip-path="url(#pe4a732a769)" d="M 25.351 108.687153 
L 70.580273 108.687153 
" style="fill:none;stroke:#ffffff;stroke-linecap:round;stroke-width:0.8;"/>
     </g>
     <g id="line2d_78"/>
     <g id="text_12">
      <!-- 0.6 -->
      <g style="fill:#262626;" transform="translate(16.011 110.834497)scale(0.06 -0.06)">
       <use xlink:href="#ArialMT-30"/>
       <use x="55.615234" xlink:href="#ArialMT-2e"/>
       <use x="83.398438" xlink:href="#ArialMT-36"/>
      </g>
     </g>
    </g>
    <g id="ytick_11">
     <g id="line2d_79">
      <path clip-path="url(#pe4a732a769)" d="M 25.351 92.164558 
L 70.580273 92.164558 
" style="fill:none;stroke:#ffffff;stroke-linecap:round;stroke-width:0.8;"/>
     </g>
     <g id="line2d_80"/>
     <g id="text_13">
      <!-- 0.8 -->
      <g style="fill:#262626;" transform="translate(16.011 94.311902)scale(0.06 -0.06)">
       <use xlink:href="#ArialMT-30"/>
       <use x="55.615234" xlink:href="#ArialMT-2e"/>
       <use x="83.398438" xlink:href="#ArialMT-38"/>
      </g>
     </g>
    </g>
    <g id="ytick_12">
     <g id="line2d_81">
      <path clip-path="url(#pe4a732a769)" d="M 25.351 75.641963 
L 70.580273 75.641963 
" style="fill:none;stroke:#ffffff;stroke-linecap:round;stroke-width:0.8;"/>
     </g>
     <g id="line2d_82"/>
     <g id="text_14">
      <!-- 1.0 -->
      <g style="fill:#262626;" transform="translate(16.011 77.789307)scale(0.06 -0.06)">
       <use xlink:href="#ArialMT-31"/>
       <use x="55.615234" xlink:href="#ArialMT-2e"/>
       <use x="83.398438" xlink:href="#ArialMT-30"/>
      </g>
     </g>
    </g>
   </g>
   <g id="PolyCollection_19">
    <defs>
     <path d="M 27.406876 -71.676911 
L 27.406876 -71.676911 
L 41.112716 -71.676911 
L 54.818557 -71.676911 
L 68.524397 -71.676911 
L 68.524397 -71.676911 
L 68.524397 -71.676911 
L 54.818557 -71.676911 
L 41.112716 -71.676911 
L 27.406876 -71.676911 
z
" id="m2ea701d513" style="stroke:#66c2a5;stroke-opacity:0.2;stroke-width:0.24;"/>
    </defs>
    <g clip-path="url(#pe4a732a769)">
     <use style="fill:#66c2a5;fill-opacity:0.2;stroke:#66c2a5;stroke-opacity:0.2;stroke-width:0.24;" x="0" xlink:href="#m2ea701d513" y="147.318874"/>
    </g>
   </g>
   <g id="PolyCollection_20">
    <defs>
     <path d="M 27.406876 -71.676911 
L 27.406876 -71.676911 
L 41.112716 -71.366336 
L 54.818557 -68.474106 
L 68.524397 -59.137442 
L 68.524397 -60.515619 
L 68.524397 -60.515619 
L 54.818557 -69.406316 
L 41.112716 -71.541035 
L 27.406876 -71.676911 
z
" id="m794f3c5c48" style="stroke:#fc8d62;stroke-opacity:0.2;stroke-width:0.24;"/>
    </defs>
    <g clip-path="url(#pe4a732a769)">
     <use style="fill:#fc8d62;fill-opacity:0.2;stroke:#fc8d62;stroke-opacity:0.2;stroke-width:0.24;" x="0" xlink:href="#m794f3c5c48" y="147.318874"/>
    </g>
   </g>
   <g id="PolyCollection_21">
    <defs>
     <path d="M 27.406876 -53.430624 
L 27.406876 -40.308826 
L 41.112716 -36.620747 
L 54.818557 -35.184337 
L 68.524397 -33.010311 
L 68.524397 -37.280719 
L 68.524397 -37.280719 
L 54.818557 -42.172277 
L 41.112716 -45.666247 
L 27.406876 -53.430624 
z
" id="m6fe6c3e4d5" style="stroke:#8da0cb;stroke-opacity:0.2;stroke-width:0.24;"/>
    </defs>
    <g clip-path="url(#pe4a732a769)">
     <use style="fill:#8da0cb;fill-opacity:0.2;stroke:#8da0cb;stroke-opacity:0.2;stroke-width:0.24;" x="0" xlink:href="#m6fe6c3e4d5" y="147.318874"/>
    </g>
   </g>
   <g id="PolyCollection_22">
    <defs>
     <path d="M 27.406876 -71.676911 
L 27.406876 -71.676911 
L 41.112716 -71.676911 
L 54.818557 -71.44398 
L 68.524397 -69.871208 
L 68.524397 -70.356967 
L 68.524397 -70.356967 
L 54.818557 -71.638089 
L 41.112716 -71.676911 
L 27.406876 -71.676911 
z
" id="mf151b05722" style="stroke:#e78ac3;stroke-opacity:0.2;stroke-width:0.24;"/>
    </defs>
    <g clip-path="url(#pe4a732a769)">
     <use style="fill:#e78ac3;fill-opacity:0.2;stroke:#e78ac3;stroke-opacity:0.2;stroke-width:0.24;" x="0" xlink:href="#mf151b05722" y="147.318874"/>
    </g>
   </g>
   <g id="PolyCollection_23">
    <defs>
     <path d="M 27.406876 -71.676911 
L 27.406876 -71.676911 
L 41.112716 -71.676911 
L 54.818557 -71.676911 
L 68.524397 -71.171741 
L 68.524397 -71.424569 
L 68.524397 -71.424569 
L 54.818557 -71.676911 
L 41.112716 -71.676911 
L 27.406876 -71.676911 
z
" id="mb4549bb62b" style="stroke:#a6d854;stroke-opacity:0.2;stroke-width:0.24;"/>
    </defs>
    <g clip-path="url(#pe4a732a769)">
     <use style="fill:#a6d854;fill-opacity:0.2;stroke:#a6d854;stroke-opacity:0.2;stroke-width:0.24;" x="0" xlink:href="#mb4549bb62b" y="147.318874"/>
    </g>
   </g>
   <g id="PolyCollection_24">
    <defs>
     <path d="M 27.406876 -71.676911 
L 27.406876 -71.676911 
L 41.112716 -71.676911 
L 54.818557 -71.676911 
L 68.524397 -71.676911 
L 68.524397 -71.676911 
L 68.524397 -71.676911 
L 54.818557 -71.676911 
L 41.112716 -71.676911 
L 27.406876 -71.676911 
z
" id="m70315a15ce" style="stroke:#ffd92f;stroke-opacity:0.2;stroke-width:0.24;"/>
    </defs>
    <g clip-path="url(#pe4a732a769)">
     <use style="fill:#ffd92f;fill-opacity:0.2;stroke:#ffd92f;stroke-opacity:0.2;stroke-width:0.24;" x="0" xlink:href="#m70315a15ce" y="147.318874"/>
    </g>
   </g>
   <g id="line2d_83">
    <path clip-path="url(#pe4a732a769)" d="M 27.406876 75.641963 
L 41.112716 75.641963 
L 54.818557 75.641963 
L 68.524397 75.641963 
" style="fill:none;stroke:#66c2a5;stroke-linecap:round;stroke-width:1.4;"/>
   </g>
   <g id="line2d_84">
    <path clip-path="url(#pe4a732a769)" d="M 27.406876 75.641963 
L 41.112716 75.855483 
L 54.818557 78.340084 
L 68.524397 87.404995 
" style="fill:none;stroke:#fc8d62;stroke-dasharray:5.6,2.1;stroke-dashoffset:0;stroke-width:1.4;"/>
   </g>
   <g id="line2d_85">
    <path clip-path="url(#pe4a732a769)" d="M 27.406876 99.24567 
L 41.112716 105.107775 
L 54.818557 108.640567 
L 68.524397 112.212181 
" style="fill:none;stroke:#8da0cb;stroke-dasharray:5.6,2.1;stroke-dashoffset:0;stroke-width:1.4;"/>
   </g>
   <g id="line2d_86">
    <path clip-path="url(#pe4a732a769)" d="M 27.406876 75.641963 
L 41.112716 75.641963 
L 54.818557 75.758428 
L 68.524397 77.214249 
" style="fill:none;stroke:#e78ac3;stroke-dasharray:5.6,2.1;stroke-dashoffset:0;stroke-width:1.4;"/>
   </g>
   <g id="line2d_87">
    <path clip-path="url(#pe4a732a769)" d="M 27.406876 75.641963 
L 41.112716 75.641963 
L 54.818557 75.641963 
L 68.524397 76.030182 
" style="fill:none;stroke:#a6d854;stroke-dasharray:5.6,2.1;stroke-dashoffset:0;stroke-width:1.4;"/>
   </g>
   <g id="line2d_88">
    <path clip-path="url(#pe4a732a769)" d="M 27.406876 75.641963 
L 41.112716 75.641963 
L 54.818557 75.641963 
L 68.524397 75.641963 
" style="fill:none;stroke:#ffd92f;stroke-dasharray:5.6,2.1;stroke-dashoffset:0;stroke-width:1.4;"/>
   </g>
   <g id="patch_18">
    <path d="M 25.351 122.070999 
L 25.351 73.431056 
" style="fill:none;"/>
   </g>
   <g id="patch_19">
    <path d="M 70.580273 122.070999 
L 70.580273 73.431056 
" style="fill:none;"/>
   </g>
   <g id="patch_20">
    <path d="M 25.351 122.070999 
L 70.580273 122.070999 
" style="fill:none;"/>
   </g>
   <g id="patch_21">
    <path d="M 25.351 73.431056 
L 70.580273 73.431056 
" style="fill:none;"/>
   </g>
   <g id="text_15">
    <!-- VGG16 -->
    <g style="fill:#262626;" transform="translate(28.77746 120.666035)scale(0.08 -0.08)">
     <defs>
      <path d="M 1634 0 
L -3 4581 
L 1000 4581 
L 2159 1191 
L 3281 4581 
L 4263 4581 
L 2622 0 
L 1634 0 
z
" id="Arial-BoldMT-56" transform="scale(0.015625)"/>
      <path d="M 2597 1684 
L 2597 2456 
L 4591 2456 
L 4591 631 
Q 4300 350 3748 136 
Q 3197 -78 2631 -78 
Q 1913 -78 1378 223 
Q 844 525 575 1086 
Q 306 1647 306 2306 
Q 306 3022 606 3578 
Q 906 4134 1484 4431 
Q 1925 4659 2581 4659 
Q 3434 4659 3914 4301 
Q 4394 3944 4531 3313 
L 3613 3141 
Q 3516 3478 3248 3673 
Q 2981 3869 2581 3869 
Q 1975 3869 1617 3484 
Q 1259 3100 1259 2344 
Q 1259 1528 1621 1120 
Q 1984 713 2572 713 
Q 2863 713 3155 827 
Q 3447 941 3656 1103 
L 3656 1684 
L 2597 1684 
z
" id="Arial-BoldMT-47" transform="scale(0.015625)"/>
      <path d="M 2519 0 
L 1641 0 
L 1641 3309 
Q 1159 2859 506 2644 
L 506 3441 
Q 850 3553 1253 3867 
Q 1656 4181 1806 4600 
L 2519 4600 
L 2519 0 
z
" id="Arial-BoldMT-31" transform="scale(0.015625)"/>
      <path d="M 3247 3459 
L 2397 3366 
Q 2366 3628 2234 3753 
Q 2103 3878 1894 3878 
Q 1616 3878 1423 3628 
Q 1231 3378 1181 2588 
Q 1509 2975 1997 2975 
Q 2547 2975 2939 2556 
Q 3331 2138 3331 1475 
Q 3331 772 2918 347 
Q 2506 -78 1859 -78 
Q 1166 -78 719 461 
Q 272 1000 272 2228 
Q 272 3488 737 4044 
Q 1203 4600 1947 4600 
Q 2469 4600 2811 4308 
Q 3153 4016 3247 3459 
z
M 1256 1544 
Q 1256 1116 1453 883 
Q 1650 650 1903 650 
Q 2147 650 2309 840 
Q 2472 1031 2472 1466 
Q 2472 1913 2297 2120 
Q 2122 2328 1859 2328 
Q 1606 2328 1431 2129 
Q 1256 1931 1256 1544 
z
" id="Arial-BoldMT-36" transform="scale(0.015625)"/>
     </defs>
     <use xlink:href="#Arial-BoldMT-56"/>
     <use x="66.699219" xlink:href="#Arial-BoldMT-47"/>
     <use x="144.482422" xlink:href="#Arial-BoldMT-47"/>
     <use x="222.265625" xlink:href="#Arial-BoldMT-31"/>
     <use x="277.880859" xlink:href="#Arial-BoldMT-36"/>
    </g>
   </g>
  </g>
  <g id="axes_5">
   <g id="patch_22">
    <path d="M 79.626127 122.070999 
L 124.8554 122.070999 
L 124.8554 73.431056 
L 79.626127 73.431056 
z
" style="fill:#eaeaf2;"/>
   </g>
   <g id="matplotlib.axis_9">
    <g id="xtick_17">
     <g id="line2d_89">
      <path clip-path="url(#p31f6d1d785)" d="M 81.682003 122.070999 
L 81.682003 73.431056 
" style="fill:none;stroke:#ffffff;stroke-linecap:round;stroke-width:0.8;"/>
     </g>
     <g id="line2d_90"/>
     <g id="text_16">
      <!-- 1 -->
      <g style="fill:#262626;" transform="translate(80.013722 128.365687)scale(0.06 -0.06)">
       <use xlink:href="#ArialMT-31"/>
      </g>
     </g>
    </g>
    <g id="xtick_18">
     <g id="line2d_91">
      <path clip-path="url(#p31f6d1d785)" d="M 95.387844 122.070999 
L 95.387844 73.431056 
" style="fill:none;stroke:#ffffff;stroke-linecap:round;stroke-width:0.8;"/>
     </g>
     <g id="line2d_92"/>
     <g id="text_17">
      <!-- 2 -->
      <g style="fill:#262626;" transform="translate(93.719562 128.365687)scale(0.06 -0.06)">
       <use xlink:href="#ArialMT-32"/>
      </g>
     </g>
    </g>
    <g id="xtick_19">
     <g id="line2d_93">
      <path clip-path="url(#p31f6d1d785)" d="M 109.093684 122.070999 
L 109.093684 73.431056 
" style="fill:none;stroke:#ffffff;stroke-linecap:round;stroke-width:0.8;"/>
     </g>
     <g id="line2d_94"/>
     <g id="text_18">
      <!-- 4 -->
      <g style="fill:#262626;" transform="translate(107.425403 128.365687)scale(0.06 -0.06)">
       <use xlink:href="#ArialMT-34"/>
      </g>
     </g>
    </g>
    <g id="xtick_20">
     <g id="line2d_95">
      <path clip-path="url(#p31f6d1d785)" d="M 122.799524 122.070999 
L 122.799524 73.431056 
" style="fill:none;stroke:#ffffff;stroke-linecap:round;stroke-width:0.8;"/>
     </g>
     <g id="line2d_96"/>
     <g id="text_19">
      <!-- 8 -->
      <g style="fill:#262626;" transform="translate(121.131243 128.365687)scale(0.06 -0.06)">
       <use xlink:href="#ArialMT-38"/>
      </g>
     </g>
    </g>
   </g>
   <g id="matplotlib.axis_10">
    <g id="ytick_13">
     <g id="line2d_97">
      <path clip-path="url(#p31f6d1d785)" d="M 79.626127 108.687153 
L 124.8554 108.687153 
" style="fill:none;stroke:#ffffff;stroke-linecap:round;stroke-width:0.8;"/>
     </g>
     <g id="line2d_98"/>
    </g>
    <g id="ytick_14">
     <g id="line2d_99">
      <path clip-path="url(#p31f6d1d785)" d="M 79.626127 92.164558 
L 124.8554 92.164558 
" style="fill:none;stroke:#ffffff;stroke-linecap:round;stroke-width:0.8;"/>
     </g>
     <g id="line2d_100"/>
    </g>
    <g id="ytick_15">
     <g id="line2d_101">
      <path clip-path="url(#p31f6d1d785)" d="M 79.626127 75.641963 
L 124.8554 75.641963 
" style="fill:none;stroke:#ffffff;stroke-linecap:round;stroke-width:0.8;"/>
     </g>
     <g id="line2d_102"/>
    </g>
   </g>
   <g id="PolyCollection_25">
    <defs>
     <path d="M 81.682003 -71.676911 
L 81.682003 -71.676911 
L 95.387844 -71.676911 
L 109.093684 -71.676911 
L 122.799524 -71.676911 
L 122.799524 -71.676911 
L 122.799524 -71.676911 
L 109.093684 -71.676911 
L 95.387844 -71.676911 
L 81.682003 -71.676911 
z
" id="m50718d1b93" style="stroke:#66c2a5;stroke-opacity:0.2;stroke-width:0.24;"/>
    </defs>
    <g clip-path="url(#p31f6d1d785)">
     <use style="fill:#66c2a5;fill-opacity:0.2;stroke:#66c2a5;stroke-opacity:0.2;stroke-width:0.24;" x="0" xlink:href="#m50718d1b93" y="147.318874"/>
    </g>
   </g>
   <g id="PolyCollection_26">
    <defs>
     <path d="M 81.682003 -71.676911 
L 81.682003 -71.676911 
L 95.387844 -71.482317 
L 109.093684 -68.182941 
L 122.799524 -59.195674 
L 122.799524 -60.573851 
L 122.799524 -60.573851 
L 109.093684 -69.347598 
L 95.387844 -71.638089 
L 81.682003 -71.676911 
z
" id="m4b28b2bf8c" style="stroke:#fc8d62;stroke-opacity:0.2;stroke-width:0.24;"/>
    </defs>
    <g clip-path="url(#p31f6d1d785)">
     <use style="fill:#fc8d62;fill-opacity:0.2;stroke:#fc8d62;stroke-opacity:0.2;stroke-width:0.24;" x="0" xlink:href="#m4b28b2bf8c" y="147.318874"/>
    </g>
   </g>
   <g id="PolyCollection_27">
    <defs>
     <path d="M 81.682003 -48.81082 
L 81.682003 -36.698391 
L 95.387844 -35.766665 
L 109.093684 -36.581925 
L 122.799524 -32.544449 
L 122.799524 -34.679653 
L 122.799524 -34.679653 
L 109.093684 -40.929976 
L 95.387844 -43.453399 
L 81.682003 -48.81082 
z
" id="m45fe107a8b" style="stroke:#8da0cb;stroke-opacity:0.2;stroke-width:0.24;"/>
    </defs>
    <g clip-path="url(#p31f6d1d785)">
     <use style="fill:#8da0cb;fill-opacity:0.2;stroke:#8da0cb;stroke-opacity:0.2;stroke-width:0.24;" x="0" xlink:href="#m45fe107a8b" y="147.318874"/>
    </g>
   </g>
   <g id="PolyCollection_28">
    <defs>
     <path d="M 81.682003 -71.676911 
L 81.682003 -71.676911 
L 95.387844 -71.676911 
L 109.093684 -70.842241 
L 122.799524 -65.756573 
L 122.799524 -66.746532 
L 122.799524 -66.746532 
L 109.093684 -71.075172 
L 95.387844 -71.676911 
L 81.682003 -71.676911 
z
" id="m29bb341fcc" style="stroke:#e78ac3;stroke-opacity:0.2;stroke-width:0.24;"/>
    </defs>
    <g clip-path="url(#p31f6d1d785)">
     <use style="fill:#e78ac3;fill-opacity:0.2;stroke:#e78ac3;stroke-opacity:0.2;stroke-width:0.24;" x="0" xlink:href="#m29bb341fcc" y="147.318874"/>
    </g>
   </g>
   <g id="PolyCollection_29">
    <defs>
     <path d="M 81.682003 -71.676911 
L 81.682003 -71.676911 
L 95.387844 -71.676911 
L 109.093684 -71.541035 
L 122.799524 -68.105298 
L 122.799524 -68.57116 
L 122.799524 -68.57116 
L 109.093684 -71.618678 
L 95.387844 -71.676911 
L 81.682003 -71.676911 
z
" id="md177583105" style="stroke:#a6d854;stroke-opacity:0.2;stroke-width:0.24;"/>
    </defs>
    <g clip-path="url(#p31f6d1d785)">
     <use style="fill:#a6d854;fill-opacity:0.2;stroke:#a6d854;stroke-opacity:0.2;stroke-width:0.24;" x="0" xlink:href="#md177583105" y="147.318874"/>
    </g>
   </g>
   <g id="PolyCollection_30">
    <defs>
     <path d="M 81.682003 -71.676911 
L 81.682003 -71.676911 
L 95.387844 -71.676911 
L 109.093684 -71.676911 
L 122.799524 -71.676911 
L 122.799524 -71.676911 
L 122.799524 -71.676911 
L 109.093684 -71.676911 
L 95.387844 -71.676911 
L 81.682003 -71.676911 
z
" id="mb15f1a6328" style="stroke:#ffd92f;stroke-opacity:0.2;stroke-width:0.24;"/>
    </defs>
    <g clip-path="url(#p31f6d1d785)">
     <use style="fill:#ffd92f;fill-opacity:0.2;stroke:#ffd92f;stroke-opacity:0.2;stroke-width:0.24;" x="0" xlink:href="#mb15f1a6328" y="147.318874"/>
    </g>
   </g>
   <g id="line2d_103">
    <path clip-path="url(#p31f6d1d785)" d="M 81.682003 75.641963 
L 95.387844 75.641963 
L 109.093684 75.641963 
L 122.799524 75.641963 
" style="fill:none;stroke:#66c2a5;stroke-linecap:round;stroke-width:1.4;"/>
   </g>
   <g id="line2d_104">
    <path clip-path="url(#p31f6d1d785)" d="M 81.682003 75.641963 
L 95.387844 75.758428 
L 109.093684 78.514782 
L 122.799524 87.404995 
" style="fill:none;stroke:#fc8d62;stroke-dasharray:5.6,2.1;stroke-dashoffset:0;stroke-width:1.4;"/>
   </g>
   <g id="line2d_105">
    <path clip-path="url(#p31f6d1d785)" d="M 81.682003 103.943119 
L 95.387844 106.544185 
L 109.093684 108.252348 
L 122.799524 113.803878 
" style="fill:none;stroke:#8da0cb;stroke-dasharray:5.6,2.1;stroke-dashoffset:0;stroke-width:1.4;"/>
   </g>
   <g id="line2d_106">
    <path clip-path="url(#p31f6d1d785)" d="M 81.682003 75.641963 
L 95.387844 75.641963 
L 109.093684 76.379579 
L 122.799524 81.038205 
" style="fill:none;stroke:#e78ac3;stroke-dasharray:5.6,2.1;stroke-dashoffset:0;stroke-width:1.4;"/>
   </g>
   <g id="line2d_107">
    <path clip-path="url(#p31f6d1d785)" d="M 81.682003 75.641963 
L 95.387844 75.641963 
L 109.093684 75.739017 
L 122.799524 79.000056 
" style="fill:none;stroke:#a6d854;stroke-dasharray:5.6,2.1;stroke-dashoffset:0;stroke-width:1.4;"/>
   </g>
   <g id="line2d_108">
    <path clip-path="url(#p31f6d1d785)" d="M 81.682003 75.641963 
L 95.387844 75.641963 
L 109.093684 75.641963 
L 122.799524 75.641963 
" style="fill:none;stroke:#ffd92f;stroke-dasharray:5.6,2.1;stroke-dashoffset:0;stroke-width:1.4;"/>
   </g>
   <g id="patch_23">
    <path d="M 79.626127 122.070999 
L 79.626127 73.431056 
" style="fill:none;"/>
   </g>
   <g id="patch_24">
    <path d="M 124.8554 122.070999 
L 124.8554 73.431056 
" style="fill:none;"/>
   </g>
   <g id="patch_25">
    <path d="M 79.626127 122.070999 
L 124.8554 122.070999 
" style="fill:none;"/>
   </g>
   <g id="patch_26">
    <path d="M 79.626127 73.431056 
L 124.8554 73.431056 
" style="fill:none;"/>
   </g>
  </g>
  <g id="axes_6">
   <g id="patch_27">
    <path d="M 133.901255 122.070999 
L 179.130528 122.070999 
L 179.130528 73.431056 
L 133.901255 73.431056 
z
" style="fill:#eaeaf2;"/>
   </g>
   <g id="matplotlib.axis_11">
    <g id="xtick_21">
     <g id="line2d_109">
      <path clip-path="url(#p4be65df72e)" d="M 135.957131 122.070999 
L 135.957131 73.431056 
" style="fill:none;stroke:#ffffff;stroke-linecap:round;stroke-width:0.8;"/>
     </g>
     <g id="line2d_110"/>
     <g id="text_20">
      <!-- 1 -->
      <g style="fill:#262626;" transform="translate(134.28885 128.365687)scale(0.06 -0.06)">
       <use xlink:href="#ArialMT-31"/>
      </g>
     </g>
    </g>
    <g id="xtick_22">
     <g id="line2d_111">
      <path clip-path="url(#p4be65df72e)" d="M 149.662971 122.070999 
L 149.662971 73.431056 
" style="fill:none;stroke:#ffffff;stroke-linecap:round;stroke-width:0.8;"/>
     </g>
     <g id="line2d_112"/>
     <g id="text_21">
      <!-- 2 -->
      <g style="fill:#262626;" transform="translate(147.99469 128.365687)scale(0.06 -0.06)">
       <use xlink:href="#ArialMT-32"/>
      </g>
     </g>
    </g>
    <g id="xtick_23">
     <g id="line2d_113">
      <path clip-path="url(#p4be65df72e)" d="M 163.368811 122.070999 
L 163.368811 73.431056 
" style="fill:none;stroke:#ffffff;stroke-linecap:round;stroke-width:0.8;"/>
     </g>
     <g id="line2d_114"/>
     <g id="text_22">
      <!-- 4 -->
      <g style="fill:#262626;" transform="translate(161.70053 128.365687)scale(0.06 -0.06)">
       <use xlink:href="#ArialMT-34"/>
      </g>
     </g>
    </g>
    <g id="xtick_24">
     <g id="line2d_115">
      <path clip-path="url(#p4be65df72e)" d="M 177.074652 122.070999 
L 177.074652 73.431056 
" style="fill:none;stroke:#ffffff;stroke-linecap:round;stroke-width:0.8;"/>
     </g>
     <g id="line2d_116"/>
     <g id="text_23">
      <!-- 8 -->
      <g style="fill:#262626;" transform="translate(175.40637 128.365687)scale(0.06 -0.06)">
       <use xlink:href="#ArialMT-38"/>
      </g>
     </g>
    </g>
   </g>
   <g id="matplotlib.axis_12">
    <g id="ytick_16">
     <g id="line2d_117">
      <path clip-path="url(#p4be65df72e)" d="M 133.901255 108.687153 
L 179.130528 108.687153 
" style="fill:none;stroke:#ffffff;stroke-linecap:round;stroke-width:0.8;"/>
     </g>
     <g id="line2d_118"/>
    </g>
    <g id="ytick_17">
     <g id="line2d_119">
      <path clip-path="url(#p4be65df72e)" d="M 133.901255 92.164558 
L 179.130528 92.164558 
" style="fill:none;stroke:#ffffff;stroke-linecap:round;stroke-width:0.8;"/>
     </g>
     <g id="line2d_120"/>
    </g>
    <g id="ytick_18">
     <g id="line2d_121">
      <path clip-path="url(#p4be65df72e)" d="M 133.901255 75.641963 
L 179.130528 75.641963 
" style="fill:none;stroke:#ffffff;stroke-linecap:round;stroke-width:0.8;"/>
     </g>
     <g id="line2d_122"/>
    </g>
   </g>
   <g id="PolyCollection_31">
    <defs>
     <path d="M 135.957131 -71.676911 
L 135.957131 -71.676911 
L 149.662971 -71.676911 
L 163.368811 -71.676911 
L 177.074652 -71.676911 
L 177.074652 -71.676911 
L 177.074652 -71.676911 
L 163.368811 -71.676911 
L 149.662971 -71.676911 
L 135.957131 -71.676911 
z
" id="ma521ba609e" style="stroke:#66c2a5;stroke-opacity:0.2;stroke-width:0.24;"/>
    </defs>
    <g clip-path="url(#p4be65df72e)">
     <use style="fill:#66c2a5;fill-opacity:0.2;stroke:#66c2a5;stroke-opacity:0.2;stroke-width:0.24;" x="0" xlink:href="#ma521ba609e" y="147.318874"/>
    </g>
   </g>
   <g id="PolyCollection_32">
    <defs>
     <path d="M 135.957131 -71.676911 
L 135.957131 -71.676911 
L 149.662971 -68.939483 
L 163.368811 -58.147483 
L 177.074652 -47.102657 
L 177.074652 -49.276682 
L 177.074652 -49.276682 
L 163.368811 -60.341405 
L 149.662971 -70.20168 
L 135.957131 -71.676911 
z
" id="m3a7bee6bfb" style="stroke:#fc8d62;stroke-opacity:0.2;stroke-width:0.24;"/>
    </defs>
    <g clip-path="url(#p4be65df72e)">
     <use style="fill:#fc8d62;fill-opacity:0.2;stroke:#fc8d62;stroke-opacity:0.2;stroke-width:0.24;" x="0" xlink:href="#m3a7bee6bfb" y="147.318874"/>
    </g>
   </g>
   <g id="PolyCollection_33">
    <defs>
     <path d="M 135.957131 -32.505627 
L 135.957131 -31.651545 
L 149.662971 -29.826917 
L 163.368811 -27.458781 
L 177.074652 -30.525711 
L 177.074652 -32.311517 
L 177.074652 -32.311517 
L 163.368811 -29.982204 
L 149.662971 -32.078586 
L 135.957131 -32.505627 
z
" id="m29f79b4954" style="stroke:#8da0cb;stroke-opacity:0.2;stroke-width:0.24;"/>
    </defs>
    <g clip-path="url(#p4be65df72e)">
     <use style="fill:#8da0cb;fill-opacity:0.2;stroke:#8da0cb;stroke-opacity:0.2;stroke-width:0.24;" x="0" xlink:href="#m29f79b4954" y="147.318874"/>
    </g>
   </g>
   <g id="PolyCollection_34">
    <defs>
     <path d="M 135.957131 -69.075845 
L 135.957131 -67.63895 
L 149.662971 -55.81817 
L 163.368811 -41.162908 
L 177.074652 -33.476174 
L 177.074652 -34.913069 
L 177.074652 -34.913069 
L 163.368811 -43.375755 
L 149.662971 -57.876216 
L 135.957131 -69.075845 
z
" id="m55dbd7304a" style="stroke:#e78ac3;stroke-opacity:0.2;stroke-width:0.24;"/>
    </defs>
    <g clip-path="url(#p4be65df72e)">
     <use style="fill:#e78ac3;fill-opacity:0.2;stroke:#e78ac3;stroke-opacity:0.2;stroke-width:0.24;" x="0" xlink:href="#m55dbd7304a" y="147.318874"/>
    </g>
   </g>
   <g id="PolyCollection_35">
    <defs>
     <path d="M 135.957131 -71.482802 
L 135.957131 -69.755228 
L 149.662971 -61.56381 
L 163.368811 -50.149689 
L 177.074652 -40.813511 
L 177.074652 -43.550939 
L 177.074652 -43.550939 
L 163.368811 -54.576355 
L 149.662971 -65.562949 
L 135.957131 -71.482802 
z
" id="me68abcf47e" style="stroke:#a6d854;stroke-opacity:0.2;stroke-width:0.24;"/>
    </defs>
    <g clip-path="url(#p4be65df72e)">
     <use style="fill:#a6d854;fill-opacity:0.2;stroke:#a6d854;stroke-opacity:0.2;stroke-width:0.24;" x="0" xlink:href="#me68abcf47e" y="147.318874"/>
    </g>
   </g>
   <g id="PolyCollection_36">
    <defs>
     <path d="M 135.957131 -71.676911 
L 135.957131 -71.676911 
L 149.662971 -71.676911 
L 163.368811 -71.676911 
L 177.074652 -71.676911 
L 177.074652 -71.676911 
L 177.074652 -71.676911 
L 163.368811 -71.676911 
L 149.662971 -71.676911 
L 135.957131 -71.676911 
z
" id="m40578e6d68" style="stroke:#ffd92f;stroke-opacity:0.2;stroke-width:0.24;"/>
    </defs>
    <g clip-path="url(#p4be65df72e)">
     <use style="fill:#ffd92f;fill-opacity:0.2;stroke:#ffd92f;stroke-opacity:0.2;stroke-width:0.24;" x="0" xlink:href="#m40578e6d68" y="147.318874"/>
    </g>
   </g>
   <g id="line2d_123">
    <path clip-path="url(#p4be65df72e)" d="M 135.957131 75.641963 
L 149.662971 75.641963 
L 163.368811 75.641963 
L 177.074652 75.641963 
" style="fill:none;stroke:#66c2a5;stroke-linecap:round;stroke-width:1.4;"/>
   </g>
   <g id="line2d_124">
    <path clip-path="url(#p4be65df72e)" d="M 135.957131 75.641963 
L 149.662971 77.699523 
L 163.368811 88.045556 
L 177.074652 99.109794 
" style="fill:none;stroke:#fc8d62;stroke-dasharray:5.6,2.1;stroke-dashoffset:0;stroke-width:1.4;"/>
   </g>
   <g id="line2d_125">
    <path clip-path="url(#p4be65df72e)" d="M 135.957131 115.240288 
L 149.662971 116.249657 
L 163.368811 118.695436 
L 177.074652 115.90026 
" style="fill:none;stroke:#8da0cb;stroke-dasharray:5.6,2.1;stroke-dashoffset:0;stroke-width:1.4;"/>
   </g>
   <g id="line2d_126">
    <path clip-path="url(#p4be65df72e)" d="M 135.957131 78.922412 
L 149.662971 90.471924 
L 163.368811 105.010721 
L 177.074652 113.143906 
" style="fill:none;stroke:#e78ac3;stroke-dasharray:5.6,2.1;stroke-dashoffset:0;stroke-width:1.4;"/>
   </g>
   <g id="line2d_127">
    <path clip-path="url(#p4be65df72e)" d="M 135.957131 76.476633 
L 149.662971 83.639272 
L 163.368811 94.781153 
L 177.074652 105.068953 
" style="fill:none;stroke:#a6d854;stroke-dasharray:5.6,2.1;stroke-dashoffset:0;stroke-width:1.4;"/>
   </g>
   <g id="line2d_128">
    <path clip-path="url(#p4be65df72e)" d="M 135.957131 75.641963 
L 149.662971 75.641963 
L 163.368811 75.641963 
L 177.074652 75.641963 
" style="fill:none;stroke:#ffd92f;stroke-dasharray:5.6,2.1;stroke-dashoffset:0;stroke-width:1.4;"/>
   </g>
   <g id="patch_28">
    <path d="M 133.901255 122.070999 
L 133.901255 73.431056 
" style="fill:none;"/>
   </g>
   <g id="patch_29">
    <path d="M 179.130528 122.070999 
L 179.130528 73.431056 
" style="fill:none;"/>
   </g>
   <g id="patch_30">
    <path d="M 133.901255 122.070999 
L 179.130528 122.070999 
" style="fill:none;"/>
   </g>
   <g id="patch_31">
    <path d="M 133.901255 73.431056 
L 179.130528 73.431056 
" style="fill:none;"/>
   </g>
  </g>
  <g id="axes_7">
   <g id="matplotlib.axis_13">
    <g id="text_24">
     <!-- Set size -->
     <g style="fill:#262626;" transform="translate(86.589826 138.369874)scale(0.088 -0.088)">
      <defs>
       <path d="M 288 1472 
L 859 1522 
Q 900 1178 1048 958 
Q 1197 738 1509 602 
Q 1822 466 2213 466 
Q 2559 466 2825 569 
Q 3091 672 3220 851 
Q 3350 1031 3350 1244 
Q 3350 1459 3225 1620 
Q 3100 1781 2813 1891 
Q 2628 1963 1997 2114 
Q 1366 2266 1113 2400 
Q 784 2572 623 2826 
Q 463 3081 463 3397 
Q 463 3744 659 4045 
Q 856 4347 1234 4503 
Q 1613 4659 2075 4659 
Q 2584 4659 2973 4495 
Q 3363 4331 3572 4012 
Q 3781 3694 3797 3291 
L 3216 3247 
Q 3169 3681 2898 3903 
Q 2628 4125 2100 4125 
Q 1550 4125 1298 3923 
Q 1047 3722 1047 3438 
Q 1047 3191 1225 3031 
Q 1400 2872 2139 2705 
Q 2878 2538 3153 2413 
Q 3553 2228 3743 1945 
Q 3934 1663 3934 1294 
Q 3934 928 3725 604 
Q 3516 281 3123 101 
Q 2731 -78 2241 -78 
Q 1619 -78 1198 103 
Q 778 284 539 648 
Q 300 1013 288 1472 
z
" id="ArialMT-53" transform="scale(0.015625)"/>
       <path d="M 2694 1069 
L 3275 997 
Q 3138 488 2766 206 
Q 2394 -75 1816 -75 
Q 1088 -75 661 373 
Q 234 822 234 1631 
Q 234 2469 665 2931 
Q 1097 3394 1784 3394 
Q 2450 3394 2872 2941 
Q 3294 2488 3294 1666 
Q 3294 1616 3291 1516 
L 816 1516 
Q 847 969 1125 678 
Q 1403 388 1819 388 
Q 2128 388 2347 550 
Q 2566 713 2694 1069 
z
M 847 1978 
L 2700 1978 
Q 2663 2397 2488 2606 
Q 2219 2931 1791 2931 
Q 1403 2931 1139 2672 
Q 875 2413 847 1978 
z
" id="ArialMT-65" transform="scale(0.015625)"/>
       <path d="M 1650 503 
L 1731 6 
Q 1494 -44 1306 -44 
Q 1000 -44 831 53 
Q 663 150 594 308 
Q 525 466 525 972 
L 525 2881 
L 113 2881 
L 113 3319 
L 525 3319 
L 525 4141 
L 1084 4478 
L 1084 3319 
L 1650 3319 
L 1650 2881 
L 1084 2881 
L 1084 941 
Q 1084 700 1114 631 
Q 1144 563 1211 522 
Q 1278 481 1403 481 
Q 1497 481 1650 503 
z
" id="ArialMT-74" transform="scale(0.015625)"/>
       <path d="M 197 991 
L 753 1078 
Q 800 744 1014 566 
Q 1228 388 1613 388 
Q 2000 388 2187 545 
Q 2375 703 2375 916 
Q 2375 1106 2209 1216 
Q 2094 1291 1634 1406 
Q 1016 1563 777 1677 
Q 538 1791 414 1992 
Q 291 2194 291 2438 
Q 291 2659 392 2848 
Q 494 3038 669 3163 
Q 800 3259 1026 3326 
Q 1253 3394 1513 3394 
Q 1903 3394 2198 3281 
Q 2494 3169 2634 2976 
Q 2775 2784 2828 2463 
L 2278 2388 
Q 2241 2644 2061 2787 
Q 1881 2931 1553 2931 
Q 1166 2931 1000 2803 
Q 834 2675 834 2503 
Q 834 2394 903 2306 
Q 972 2216 1119 2156 
Q 1203 2125 1616 2013 
Q 2213 1853 2448 1751 
Q 2684 1650 2818 1456 
Q 2953 1263 2953 975 
Q 2953 694 2789 445 
Q 2625 197 2315 61 
Q 2006 -75 1616 -75 
Q 969 -75 630 194 
Q 291 463 197 991 
z
" id="ArialMT-73" transform="scale(0.015625)"/>
       <path d="M 425 3934 
L 425 4581 
L 988 4581 
L 988 3934 
L 425 3934 
z
M 425 0 
L 425 3319 
L 988 3319 
L 988 0 
L 425 0 
z
" id="ArialMT-69" transform="scale(0.015625)"/>
       <path d="M 125 0 
L 125 456 
L 2238 2881 
Q 1878 2863 1603 2863 
L 250 2863 
L 250 3319 
L 2963 3319 
L 2963 2947 
L 1166 841 
L 819 456 
Q 1197 484 1528 484 
L 3063 484 
L 3063 0 
L 125 0 
z
" id="ArialMT-7a" transform="scale(0.015625)"/>
      </defs>
      <use xlink:href="#ArialMT-53"/>
      <use x="66.699219" xlink:href="#ArialMT-65"/>
      <use x="122.314453" xlink:href="#ArialMT-74"/>
      <use x="150.097656" xlink:href="#ArialMT-20"/>
      <use x="177.880859" xlink:href="#ArialMT-73"/>
      <use x="227.880859" xlink:href="#ArialMT-69"/>
      <use x="250.097656" xlink:href="#ArialMT-7a"/>
      <use x="300.097656" xlink:href="#ArialMT-65"/>
     </g>
    </g>
   </g>
   <g id="matplotlib.axis_14">
    <g id="text_25">
     <!-- Accuracy -->
     <g style="fill:#262626;" transform="translate(13.498875 86.660687)rotate(-90)scale(0.088 -0.088)">
      <defs>
       <path d="M -9 0 
L 1750 4581 
L 2403 4581 
L 4278 0 
L 3588 0 
L 3053 1388 
L 1138 1388 
L 634 0 
L -9 0 
z
M 1313 1881 
L 2866 1881 
L 2388 3150 
Q 2169 3728 2063 4100 
Q 1975 3659 1816 3225 
L 1313 1881 
z
" id="ArialMT-41" transform="scale(0.015625)"/>
       <path d="M 2588 1216 
L 3141 1144 
Q 3050 572 2676 248 
Q 2303 -75 1759 -75 
Q 1078 -75 664 370 
Q 250 816 250 1647 
Q 250 2184 428 2587 
Q 606 2991 970 3192 
Q 1334 3394 1763 3394 
Q 2303 3394 2647 3120 
Q 2991 2847 3088 2344 
L 2541 2259 
Q 2463 2594 2264 2762 
Q 2066 2931 1784 2931 
Q 1359 2931 1093 2626 
Q 828 2322 828 1663 
Q 828 994 1084 691 
Q 1341 388 1753 388 
Q 2084 388 2306 591 
Q 2528 794 2588 1216 
z
" id="ArialMT-63" transform="scale(0.015625)"/>
       <path d="M 2597 0 
L 2597 488 
Q 2209 -75 1544 -75 
Q 1250 -75 995 37 
Q 741 150 617 320 
Q 494 491 444 738 
Q 409 903 409 1263 
L 409 3319 
L 972 3319 
L 972 1478 
Q 972 1038 1006 884 
Q 1059 663 1231 536 
Q 1403 409 1656 409 
Q 1909 409 2131 539 
Q 2353 669 2445 892 
Q 2538 1116 2538 1541 
L 2538 3319 
L 3100 3319 
L 3100 0 
L 2597 0 
z
" id="ArialMT-75" transform="scale(0.015625)"/>
       <path d="M 416 0 
L 416 3319 
L 922 3319 
L 922 2816 
Q 1116 3169 1280 3281 
Q 1444 3394 1641 3394 
Q 1925 3394 2219 3213 
L 2025 2691 
Q 1819 2813 1613 2813 
Q 1428 2813 1281 2702 
Q 1134 2591 1072 2394 
Q 978 2094 978 1738 
L 978 0 
L 416 0 
z
" id="ArialMT-72" transform="scale(0.015625)"/>
       <path d="M 2588 409 
Q 2275 144 1986 34 
Q 1697 -75 1366 -75 
Q 819 -75 525 192 
Q 231 459 231 875 
Q 231 1119 342 1320 
Q 453 1522 633 1644 
Q 813 1766 1038 1828 
Q 1203 1872 1538 1913 
Q 2219 1994 2541 2106 
Q 2544 2222 2544 2253 
Q 2544 2597 2384 2738 
Q 2169 2928 1744 2928 
Q 1347 2928 1158 2789 
Q 969 2650 878 2297 
L 328 2372 
Q 403 2725 575 2942 
Q 747 3159 1072 3276 
Q 1397 3394 1825 3394 
Q 2250 3394 2515 3294 
Q 2781 3194 2906 3042 
Q 3031 2891 3081 2659 
Q 3109 2516 3109 2141 
L 3109 1391 
Q 3109 606 3145 398 
Q 3181 191 3288 0 
L 2700 0 
Q 2613 175 2588 409 
z
M 2541 1666 
Q 2234 1541 1622 1453 
Q 1275 1403 1131 1340 
Q 988 1278 909 1158 
Q 831 1038 831 891 
Q 831 666 1001 516 
Q 1172 366 1500 366 
Q 1825 366 2078 508 
Q 2331 650 2450 897 
Q 2541 1088 2541 1459 
L 2541 1666 
z
" id="ArialMT-61" transform="scale(0.015625)"/>
       <path d="M 397 -1278 
L 334 -750 
Q 519 -800 656 -800 
Q 844 -800 956 -737 
Q 1069 -675 1141 -563 
Q 1194 -478 1313 -144 
Q 1328 -97 1363 -6 
L 103 3319 
L 709 3319 
L 1400 1397 
Q 1534 1031 1641 628 
Q 1738 1016 1872 1384 
L 2581 3319 
L 3144 3319 
L 1881 -56 
Q 1678 -603 1566 -809 
Q 1416 -1088 1222 -1217 
Q 1028 -1347 759 -1347 
Q 597 -1347 397 -1278 
z
" id="ArialMT-79" transform="scale(0.015625)"/>
      </defs>
      <use xlink:href="#ArialMT-41"/>
      <use x="66.699219" xlink:href="#ArialMT-63"/>
      <use x="116.699219" xlink:href="#ArialMT-63"/>
      <use x="166.699219" xlink:href="#ArialMT-75"/>
      <use x="222.314453" xlink:href="#ArialMT-72"/>
      <use x="255.615234" xlink:href="#ArialMT-61"/>
      <use x="311.230469" xlink:href="#ArialMT-63"/>
      <use x="361.230469" xlink:href="#ArialMT-79"/>
     </g>
    </g>
   </g>
   <g id="legend_1">
    <g id="patch_32">
     <path d="M 186.688174 103.758056 
L 262.709268 103.758056 
Q 263.709268 103.758056 263.709268 102.758056 
L 263.709268 32.114306 
Q 263.709268 31.114306 262.709268 31.114306 
L 186.688174 31.114306 
Q 185.688174 31.114306 185.688174 32.114306 
L 185.688174 102.758056 
Q 185.688174 103.758056 186.688174 103.758056 
z
" style="fill:#eaeaf2;opacity:0.8;stroke:#cccccc;stroke-linejoin:miter;stroke-width:0.24;"/>
    </g>
    <g id="text_26">
     <!-- dataset -->
     <g style="fill:#262626;" transform="translate(201.688174 36.693212)scale(0.05 -0.05)">
      <defs>
       <path d="M 2575 0 
L 2575 419 
Q 2259 -75 1647 -75 
Q 1250 -75 917 144 
Q 584 363 401 755 
Q 219 1147 219 1656 
Q 219 2153 384 2558 
Q 550 2963 881 3178 
Q 1213 3394 1622 3394 
Q 1922 3394 2156 3267 
Q 2391 3141 2538 2938 
L 2538 4581 
L 3097 4581 
L 3097 0 
L 2575 0 
z
M 797 1656 
Q 797 1019 1065 703 
Q 1334 388 1700 388 
Q 2069 388 2326 689 
Q 2584 991 2584 1609 
Q 2584 2291 2321 2609 
Q 2059 2928 1675 2928 
Q 1300 2928 1048 2622 
Q 797 2316 797 1656 
z
" id="ArialMT-64" transform="scale(0.015625)"/>
      </defs>
      <use xlink:href="#ArialMT-64"/>
      <use x="55.615234" xlink:href="#ArialMT-61"/>
      <use x="111.230469" xlink:href="#ArialMT-74"/>
      <use x="139.013672" xlink:href="#ArialMT-61"/>
      <use x="194.628906" xlink:href="#ArialMT-73"/>
      <use x="244.628906" xlink:href="#ArialMT-65"/>
      <use x="300.244141" xlink:href="#ArialMT-74"/>
     </g>
    </g>
    <g id="line2d_129">
     <path d="M 187.688174 42.015869 
L 197.688174 42.015869 
" style="fill:none;stroke:#66c2a5;stroke-linecap:round;stroke-width:1.4;"/>
    </g>
    <g id="line2d_130"/>
    <g id="text_27">
     <!-- Searchstims -->
     <g style="fill:#262626;" transform="translate(201.688174 43.765869)scale(0.05 -0.05)">
      <defs>
       <path d="M 422 0 
L 422 4581 
L 984 4581 
L 984 2938 
Q 1378 3394 1978 3394 
Q 2347 3394 2619 3248 
Q 2891 3103 3008 2847 
Q 3125 2591 3125 2103 
L 3125 0 
L 2563 0 
L 2563 2103 
Q 2563 2525 2380 2717 
Q 2197 2909 1863 2909 
Q 1613 2909 1392 2779 
Q 1172 2650 1078 2428 
Q 984 2206 984 1816 
L 984 0 
L 422 0 
z
" id="ArialMT-68" transform="scale(0.015625)"/>
       <path d="M 422 0 
L 422 3319 
L 925 3319 
L 925 2853 
Q 1081 3097 1340 3245 
Q 1600 3394 1931 3394 
Q 2300 3394 2536 3241 
Q 2772 3088 2869 2813 
Q 3263 3394 3894 3394 
Q 4388 3394 4653 3120 
Q 4919 2847 4919 2278 
L 4919 0 
L 4359 0 
L 4359 2091 
Q 4359 2428 4304 2576 
Q 4250 2725 4106 2815 
Q 3963 2906 3769 2906 
Q 3419 2906 3187 2673 
Q 2956 2441 2956 1928 
L 2956 0 
L 2394 0 
L 2394 2156 
Q 2394 2531 2256 2718 
Q 2119 2906 1806 2906 
Q 1569 2906 1367 2781 
Q 1166 2656 1075 2415 
Q 984 2175 984 1722 
L 984 0 
L 422 0 
z
" id="ArialMT-6d" transform="scale(0.015625)"/>
      </defs>
      <use xlink:href="#ArialMT-53"/>
      <use x="66.699219" xlink:href="#ArialMT-65"/>
      <use x="122.314453" xlink:href="#ArialMT-61"/>
      <use x="177.929688" xlink:href="#ArialMT-72"/>
      <use x="211.230469" xlink:href="#ArialMT-63"/>
      <use x="261.230469" xlink:href="#ArialMT-68"/>
      <use x="316.845703" xlink:href="#ArialMT-73"/>
      <use x="366.845703" xlink:href="#ArialMT-74"/>
      <use x="394.628906" xlink:href="#ArialMT-69"/>
      <use x="416.845703" xlink:href="#ArialMT-6d"/>
      <use x="500.146484" xlink:href="#ArialMT-73"/>
     </g>
    </g>
    <g id="line2d_131">
     <path d="M 187.688174 49.088525 
L 197.688174 49.088525 
" style="fill:none;stroke:#fc8d62;stroke-linecap:round;stroke-width:1.4;"/>
    </g>
    <g id="line2d_132"/>
    <g id="text_28">
     <!-- ImageNet -->
     <g style="fill:#262626;" transform="translate(201.688174 50.838525)scale(0.05 -0.05)">
      <defs>
       <path d="M 597 0 
L 597 4581 
L 1203 4581 
L 1203 0 
L 597 0 
z
" id="ArialMT-49" transform="scale(0.015625)"/>
       <path d="M 319 -275 
L 866 -356 
Q 900 -609 1056 -725 
Q 1266 -881 1628 -881 
Q 2019 -881 2231 -725 
Q 2444 -569 2519 -288 
Q 2563 -116 2559 434 
Q 2191 0 1641 0 
Q 956 0 581 494 
Q 206 988 206 1678 
Q 206 2153 378 2554 
Q 550 2956 876 3175 
Q 1203 3394 1644 3394 
Q 2231 3394 2613 2919 
L 2613 3319 
L 3131 3319 
L 3131 450 
Q 3131 -325 2973 -648 
Q 2816 -972 2473 -1159 
Q 2131 -1347 1631 -1347 
Q 1038 -1347 672 -1080 
Q 306 -813 319 -275 
z
M 784 1719 
Q 784 1066 1043 766 
Q 1303 466 1694 466 
Q 2081 466 2343 764 
Q 2606 1063 2606 1700 
Q 2606 2309 2336 2618 
Q 2066 2928 1684 2928 
Q 1309 2928 1046 2623 
Q 784 2319 784 1719 
z
" id="ArialMT-67" transform="scale(0.015625)"/>
       <path d="M 488 0 
L 488 4581 
L 1109 4581 
L 3516 984 
L 3516 4581 
L 4097 4581 
L 4097 0 
L 3475 0 
L 1069 3600 
L 1069 0 
L 488 0 
z
" id="ArialMT-4e" transform="scale(0.015625)"/>
      </defs>
      <use xlink:href="#ArialMT-49"/>
      <use x="27.783203" xlink:href="#ArialMT-6d"/>
      <use x="111.083984" xlink:href="#ArialMT-61"/>
      <use x="166.699219" xlink:href="#ArialMT-67"/>
      <use x="222.314453" xlink:href="#ArialMT-65"/>
      <use x="277.929688" xlink:href="#ArialMT-4e"/>
      <use x="350.146484" xlink:href="#ArialMT-65"/>
      <use x="405.761719" xlink:href="#ArialMT-74"/>
     </g>
    </g>
    <g id="line2d_133">
     <path d="M 187.688174 56.219775 
L 197.688174 56.219775 
" style="fill:none;stroke:#8da0cb;stroke-linecap:round;stroke-width:1.4;"/>
    </g>
    <g id="line2d_134"/>
    <g id="text_29">
     <!-- random weights -->
     <g style="fill:#262626;" transform="translate(201.688174 57.969775)scale(0.05 -0.05)">
      <defs>
       <path d="M 422 0 
L 422 3319 
L 928 3319 
L 928 2847 
Q 1294 3394 1984 3394 
Q 2284 3394 2536 3286 
Q 2788 3178 2913 3003 
Q 3038 2828 3088 2588 
Q 3119 2431 3119 2041 
L 3119 0 
L 2556 0 
L 2556 2019 
Q 2556 2363 2490 2533 
Q 2425 2703 2258 2804 
Q 2091 2906 1866 2906 
Q 1506 2906 1245 2678 
Q 984 2450 984 1813 
L 984 0 
L 422 0 
z
" id="ArialMT-6e" transform="scale(0.015625)"/>
       <path d="M 213 1659 
Q 213 2581 725 3025 
Q 1153 3394 1769 3394 
Q 2453 3394 2887 2945 
Q 3322 2497 3322 1706 
Q 3322 1066 3130 698 
Q 2938 331 2570 128 
Q 2203 -75 1769 -75 
Q 1072 -75 642 372 
Q 213 819 213 1659 
z
M 791 1659 
Q 791 1022 1069 705 
Q 1347 388 1769 388 
Q 2188 388 2466 706 
Q 2744 1025 2744 1678 
Q 2744 2294 2464 2611 
Q 2184 2928 1769 2928 
Q 1347 2928 1069 2612 
Q 791 2297 791 1659 
z
" id="ArialMT-6f" transform="scale(0.015625)"/>
       <path d="M 1034 0 
L 19 3319 
L 600 3319 
L 1128 1403 
L 1325 691 
Q 1338 744 1497 1375 
L 2025 3319 
L 2603 3319 
L 3100 1394 
L 3266 759 
L 3456 1400 
L 4025 3319 
L 4572 3319 
L 3534 0 
L 2950 0 
L 2422 1988 
L 2294 2553 
L 1622 0 
L 1034 0 
z
" id="ArialMT-77" transform="scale(0.015625)"/>
      </defs>
      <use xlink:href="#ArialMT-72"/>
      <use x="33.300781" xlink:href="#ArialMT-61"/>
      <use x="88.916016" xlink:href="#ArialMT-6e"/>
      <use x="144.53125" xlink:href="#ArialMT-64"/>
      <use x="200.146484" xlink:href="#ArialMT-6f"/>
      <use x="255.761719" xlink:href="#ArialMT-6d"/>
      <use x="339.0625" xlink:href="#ArialMT-20"/>
      <use x="366.845703" xlink:href="#ArialMT-77"/>
      <use x="439.0625" xlink:href="#ArialMT-65"/>
      <use x="494.677734" xlink:href="#ArialMT-69"/>
      <use x="516.894531" xlink:href="#ArialMT-67"/>
      <use x="572.509766" xlink:href="#ArialMT-68"/>
      <use x="628.125" xlink:href="#ArialMT-74"/>
      <use x="655.908203" xlink:href="#ArialMT-73"/>
     </g>
    </g>
    <g id="line2d_135">
     <path d="M 187.688174 63.411962 
L 197.688174 63.411962 
" style="fill:none;stroke:#e78ac3;stroke-linecap:round;stroke-width:1.4;"/>
    </g>
    <g id="line2d_136"/>
    <g id="text_30">
     <!-- Stylized ImageNet -->
     <g style="fill:#262626;" transform="translate(201.688174 65.161962)scale(0.05 -0.05)">
      <defs>
       <path d="M 409 0 
L 409 4581 
L 972 4581 
L 972 0 
L 409 0 
z
" id="ArialMT-6c" transform="scale(0.015625)"/>
      </defs>
      <use xlink:href="#ArialMT-53"/>
      <use x="66.699219" xlink:href="#ArialMT-74"/>
      <use x="94.482422" xlink:href="#ArialMT-79"/>
      <use x="144.482422" xlink:href="#ArialMT-6c"/>
      <use x="166.699219" xlink:href="#ArialMT-69"/>
      <use x="188.916016" xlink:href="#ArialMT-7a"/>
      <use x="238.916016" xlink:href="#ArialMT-65"/>
      <use x="294.53125" xlink:href="#ArialMT-64"/>
      <use x="350.146484" xlink:href="#ArialMT-20"/>
      <use x="377.929688" xlink:href="#ArialMT-49"/>
      <use x="405.712891" xlink:href="#ArialMT-6d"/>
      <use x="489.013672" xlink:href="#ArialMT-61"/>
      <use x="544.628906" xlink:href="#ArialMT-67"/>
      <use x="600.244141" xlink:href="#ArialMT-65"/>
      <use x="655.859375" xlink:href="#ArialMT-4e"/>
      <use x="728.076172" xlink:href="#ArialMT-65"/>
      <use x="783.691406" xlink:href="#ArialMT-74"/>
     </g>
    </g>
    <g id="line2d_137">
     <path d="M 187.688174 70.60415 
L 197.688174 70.60415 
" style="fill:none;stroke:#a6d854;stroke-linecap:round;stroke-width:1.4;"/>
    </g>
    <g id="line2d_138"/>
    <g id="text_31">
     <!-- DomainNet, Clipart domain -->
     <g style="fill:#262626;" transform="translate(201.688174 72.35415)scale(0.05 -0.05)">
      <defs>
       <path d="M 494 0 
L 494 4581 
L 2072 4581 
Q 2606 4581 2888 4516 
Q 3281 4425 3559 4188 
Q 3922 3881 4101 3404 
Q 4281 2928 4281 2316 
Q 4281 1794 4159 1391 
Q 4038 988 3847 723 
Q 3656 459 3429 307 
Q 3203 156 2883 78 
Q 2563 0 2147 0 
L 494 0 
z
M 1100 541 
L 2078 541 
Q 2531 541 2789 625 
Q 3047 709 3200 863 
Q 3416 1078 3536 1442 
Q 3656 1806 3656 2325 
Q 3656 3044 3420 3430 
Q 3184 3816 2847 3947 
Q 2603 4041 2063 4041 
L 1100 4041 
L 1100 541 
z
" id="ArialMT-44" transform="scale(0.015625)"/>
       <path d="M 569 0 
L 569 641 
L 1209 641 
L 1209 0 
Q 1209 -353 1084 -570 
Q 959 -788 688 -906 
L 531 -666 
Q 709 -588 793 -436 
Q 878 -284 888 0 
L 569 0 
z
" id="ArialMT-2c" transform="scale(0.015625)"/>
       <path d="M 3763 1606 
L 4369 1453 
Q 4178 706 3683 314 
Q 3188 -78 2472 -78 
Q 1731 -78 1267 223 
Q 803 525 561 1097 
Q 319 1669 319 2325 
Q 319 3041 592 3573 
Q 866 4106 1370 4382 
Q 1875 4659 2481 4659 
Q 3169 4659 3637 4309 
Q 4106 3959 4291 3325 
L 3694 3184 
Q 3534 3684 3231 3912 
Q 2928 4141 2469 4141 
Q 1941 4141 1586 3887 
Q 1231 3634 1087 3207 
Q 944 2781 944 2328 
Q 944 1744 1114 1308 
Q 1284 872 1643 656 
Q 2003 441 2422 441 
Q 2931 441 3284 734 
Q 3638 1028 3763 1606 
z
" id="ArialMT-43" transform="scale(0.015625)"/>
       <path d="M 422 -1272 
L 422 3319 
L 934 3319 
L 934 2888 
Q 1116 3141 1344 3267 
Q 1572 3394 1897 3394 
Q 2322 3394 2647 3175 
Q 2972 2956 3137 2557 
Q 3303 2159 3303 1684 
Q 3303 1175 3120 767 
Q 2938 359 2589 142 
Q 2241 -75 1856 -75 
Q 1575 -75 1351 44 
Q 1128 163 984 344 
L 984 -1272 
L 422 -1272 
z
M 931 1641 
Q 931 1000 1190 694 
Q 1450 388 1819 388 
Q 2194 388 2461 705 
Q 2728 1022 2728 1688 
Q 2728 2322 2467 2637 
Q 2206 2953 1844 2953 
Q 1484 2953 1207 2617 
Q 931 2281 931 1641 
z
" id="ArialMT-70" transform="scale(0.015625)"/>
      </defs>
      <use xlink:href="#ArialMT-44"/>
      <use x="72.216797" xlink:href="#ArialMT-6f"/>
      <use x="127.832031" xlink:href="#ArialMT-6d"/>
      <use x="211.132812" xlink:href="#ArialMT-61"/>
      <use x="266.748047" xlink:href="#ArialMT-69"/>
      <use x="288.964844" xlink:href="#ArialMT-6e"/>
      <use x="344.580078" xlink:href="#ArialMT-4e"/>
      <use x="416.796875" xlink:href="#ArialMT-65"/>
      <use x="472.412109" xlink:href="#ArialMT-74"/>
      <use x="500.195312" xlink:href="#ArialMT-2c"/>
      <use x="527.978516" xlink:href="#ArialMT-20"/>
      <use x="555.761719" xlink:href="#ArialMT-43"/>
      <use x="627.978516" xlink:href="#ArialMT-6c"/>
      <use x="650.195312" xlink:href="#ArialMT-69"/>
      <use x="672.412109" xlink:href="#ArialMT-70"/>
      <use x="728.027344" xlink:href="#ArialMT-61"/>
      <use x="783.642578" xlink:href="#ArialMT-72"/>
      <use x="816.943359" xlink:href="#ArialMT-74"/>
      <use x="844.726562" xlink:href="#ArialMT-20"/>
      <use x="872.509766" xlink:href="#ArialMT-64"/>
      <use x="928.125" xlink:href="#ArialMT-6f"/>
      <use x="983.740234" xlink:href="#ArialMT-6d"/>
      <use x="1067.041016" xlink:href="#ArialMT-61"/>
      <use x="1122.65625" xlink:href="#ArialMT-69"/>
      <use x="1144.873047" xlink:href="#ArialMT-6e"/>
     </g>
    </g>
    <g id="line2d_139">
     <path d="M 187.688174 77.737744 
L 197.688174 77.737744 
" style="fill:none;stroke:#ffd92f;stroke-linecap:round;stroke-width:1.4;"/>
    </g>
    <g id="line2d_140"/>
    <g id="text_32">
     <!-- Searchstims (classify) -->
     <g style="fill:#262626;" transform="translate(201.688174 79.487744)scale(0.05 -0.05)">
      <defs>
       <path d="M 1497 -1347 
Q 1031 -759 709 28 
Q 388 816 388 1659 
Q 388 2403 628 3084 
Q 909 3875 1497 4659 
L 1900 4659 
Q 1522 4009 1400 3731 
Q 1209 3300 1100 2831 
Q 966 2247 966 1656 
Q 966 153 1900 -1347 
L 1497 -1347 
z
" id="ArialMT-28" transform="scale(0.015625)"/>
       <path d="M 556 0 
L 556 2881 
L 59 2881 
L 59 3319 
L 556 3319 
L 556 3672 
Q 556 4006 616 4169 
Q 697 4388 901 4523 
Q 1106 4659 1475 4659 
Q 1713 4659 2000 4603 
L 1916 4113 
Q 1741 4144 1584 4144 
Q 1328 4144 1222 4034 
Q 1116 3925 1116 3625 
L 1116 3319 
L 1763 3319 
L 1763 2881 
L 1116 2881 
L 1116 0 
L 556 0 
z
" id="ArialMT-66" transform="scale(0.015625)"/>
       <path d="M 791 -1347 
L 388 -1347 
Q 1322 153 1322 1656 
Q 1322 2244 1188 2822 
Q 1081 3291 891 3722 
Q 769 4003 388 4659 
L 791 4659 
Q 1378 3875 1659 3084 
Q 1900 2403 1900 1659 
Q 1900 816 1576 28 
Q 1253 -759 791 -1347 
z
" id="ArialMT-29" transform="scale(0.015625)"/>
      </defs>
      <use xlink:href="#ArialMT-53"/>
      <use x="66.699219" xlink:href="#ArialMT-65"/>
      <use x="122.314453" xlink:href="#ArialMT-61"/>
      <use x="177.929688" xlink:href="#ArialMT-72"/>
      <use x="211.230469" xlink:href="#ArialMT-63"/>
      <use x="261.230469" xlink:href="#ArialMT-68"/>
      <use x="316.845703" xlink:href="#ArialMT-73"/>
      <use x="366.845703" xlink:href="#ArialMT-74"/>
      <use x="394.628906" xlink:href="#ArialMT-69"/>
      <use x="416.845703" xlink:href="#ArialMT-6d"/>
      <use x="500.146484" xlink:href="#ArialMT-73"/>
      <use x="550.146484" xlink:href="#ArialMT-20"/>
      <use x="577.929688" xlink:href="#ArialMT-28"/>
      <use x="611.230469" xlink:href="#ArialMT-63"/>
      <use x="661.230469" xlink:href="#ArialMT-6c"/>
      <use x="683.447266" xlink:href="#ArialMT-61"/>
      <use x="739.0625" xlink:href="#ArialMT-73"/>
      <use x="789.0625" xlink:href="#ArialMT-73"/>
      <use x="839.0625" xlink:href="#ArialMT-69"/>
      <use x="861.279297" xlink:href="#ArialMT-66"/>
      <use x="889.0625" xlink:href="#ArialMT-79"/>
      <use x="939.0625" xlink:href="#ArialMT-29"/>
     </g>
    </g>
    <g id="text_33">
     <!-- method -->
     <g style="fill:#262626;" transform="translate(201.688174 86.618994)scale(0.05 -0.05)">
      <use xlink:href="#ArialMT-6d"/>
      <use x="83.300781" xlink:href="#ArialMT-65"/>
      <use x="138.916016" xlink:href="#ArialMT-74"/>
      <use x="166.699219" xlink:href="#ArialMT-68"/>
      <use x="222.314453" xlink:href="#ArialMT-6f"/>
      <use x="277.929688" xlink:href="#ArialMT-64"/>
     </g>
    </g>
    <g id="line2d_141">
     <path d="M 187.688174 91.94165 
L 197.688174 91.94165 
" style="fill:none;stroke:#333333;stroke-linecap:round;stroke-width:1.4;"/>
    </g>
    <g id="line2d_142"/>
    <g id="text_34">
     <!-- initialize -->
     <g style="fill:#262626;" transform="translate(201.688174 93.69165)scale(0.05 -0.05)">
      <use xlink:href="#ArialMT-69"/>
      <use x="22.216797" xlink:href="#ArialMT-6e"/>
      <use x="77.832031" xlink:href="#ArialMT-69"/>
      <use x="100.048828" xlink:href="#ArialMT-74"/>
      <use x="127.832031" xlink:href="#ArialMT-69"/>
      <use x="150.048828" xlink:href="#ArialMT-61"/>
      <use x="205.664062" xlink:href="#ArialMT-6c"/>
      <use x="227.880859" xlink:href="#ArialMT-69"/>
      <use x="250.097656" xlink:href="#ArialMT-7a"/>
      <use x="300.097656" xlink:href="#ArialMT-65"/>
     </g>
    </g>
    <g id="line2d_143">
     <path d="M 187.688174 99.014306 
L 197.688174 99.014306 
" style="fill:none;stroke:#333333;stroke-dasharray:5.6,2.1;stroke-dashoffset:0;stroke-width:1.4;"/>
    </g>
    <g id="line2d_144"/>
    <g id="text_35">
     <!-- transfer -->
     <g style="fill:#262626;" transform="translate(201.688174 100.764306)scale(0.05 -0.05)">
      <use xlink:href="#ArialMT-74"/>
      <use x="27.783203" xlink:href="#ArialMT-72"/>
      <use x="61.083984" xlink:href="#ArialMT-61"/>
      <use x="116.699219" xlink:href="#ArialMT-6e"/>
      <use x="172.314453" xlink:href="#ArialMT-73"/>
      <use x="222.314453" xlink:href="#ArialMT-66"/>
      <use x="250.097656" xlink:href="#ArialMT-65"/>
      <use x="305.712891" xlink:href="#ArialMT-72"/>
     </g>
    </g>
   </g>
  </g>
 </g>
 <defs>
  <clipPath id="pa7170431cb">
   <rect height="48.639943" width="45.229273" x="25.351" y="15.063125"/>
  </clipPath>
  <clipPath id="pa188fea4ea">
   <rect height="48.639943" width="45.229273" x="79.626127" y="15.063125"/>
  </clipPath>
  <clipPath id="p145d18275d">
   <rect height="48.639943" width="45.229273" x="133.901255" y="15.063125"/>
  </clipPath>
  <clipPath id="pe4a732a769">
   <rect height="48.639943" width="45.229273" x="25.351" y="73.431056"/>
  </clipPath>
  <clipPath id="p31f6d1d785">
   <rect height="48.639943" width="45.229273" x="79.626127" y="73.431056"/>
  </clipPath>
  <clipPath id="p4be65df72e">
   <rect height="48.639943" width="45.229273" x="133.901255" y="73.431056"/>
  </clipPath>
 </defs>
</svg>
