<?xml version="1.0" encoding="utf-8" standalone="no"?>
<!DOCTYPE svg PUBLIC "-//W3C//DTD SVG 1.1//EN"
  "http://www.w3.org/Graphics/SVG/1.1/DTD/svg11.dtd">
<svg height="360pt" version="1.1" viewBox="0 0 892.475 360" width="892.475pt" xmlns="http://www.w3.org/2000/svg" xmlns:xlink="http://www.w3.org/1999/xlink">
 <metadata>
  <rdf:RDF xmlns:cc="http://creativecommons.org/ns#" xmlns:dc="http://purl.org/dc/elements/1.1/" xmlns:rdf="http://www.w3.org/1999/02/22-rdf-syntax-ns#">
   <cc:Work>
    <dc:type rdf:resource="http://purl.org/dc/dcmitype/StillImage"/>
    <dc:date>2021-07-19T18:53:45.859369</dc:date>
    <dc:format>image/svg+xml</dc:format>
    <dc:creator>
     <cc:Agent>
      <dc:title>Matplotlib v3.4.2, https://matplotlib.org/</dc:title>
     </cc:Agent>
    </dc:creator>
   </cc:Work>
  </rdf:RDF>
 </metadata>
 <defs>
  <style type="text/css">*{stroke-linecap:butt;stroke-linejoin:round;}</style>
 </defs>
 <g id="figure_1">
  <g id="patch_1">
   <path d="M 0 360 
L 892.475 360 
L 892.475 0 
L 0 0 
z
" style="fill:#ffffff;"/>
  </g>
  <g id="axes_1">
   <g id="patch_2">
    <path d="M 47.053265 327.54 
L 372.633244 327.54 
L 372.633244 26.96 
L 47.053265 26.96 
z
" style="fill:#eaeaf2;"/>
   </g>
   <g id="matplotlib.axis_1">
    <g id="xtick_1">
     <g id="line2d_1">
      <path clip-path="url(#pb771927944)" d="M 61.852355 327.54 
L 61.852355 26.96 
" style="fill:none;stroke:#ffffff;stroke-linecap:round;"/>
     </g>
     <g id="text_1">
      <!-- 1 -->
      <g style="fill:#262626;" transform="translate(58.79384 344.913594)scale(0.11 -0.11)">
       <defs>
        <path d="M 2384 0 
L 1822 0 
L 1822 3584 
Q 1619 3391 1289 3197 
Q 959 3003 697 2906 
L 697 3450 
Q 1169 3672 1522 3987 
Q 1875 4303 2022 4600 
L 2384 4600 
L 2384 0 
z
" id="ArialMT-31" transform="scale(0.015625)"/>
       </defs>
       <use xlink:href="#ArialMT-31"/>
      </g>
     </g>
    </g>
    <g id="xtick_2">
     <g id="line2d_2">
      <path clip-path="url(#pb771927944)" d="M 160.512955 327.54 
L 160.512955 26.96 
" style="fill:none;stroke:#ffffff;stroke-linecap:round;"/>
     </g>
     <g id="text_2">
      <!-- 2 -->
      <g style="fill:#262626;" transform="translate(157.454439 344.913594)scale(0.11 -0.11)">
       <defs>
        <path d="M 3222 541 
L 3222 0 
L 194 0 
Q 188 203 259 391 
Q 375 700 629 1000 
Q 884 1300 1366 1694 
Q 2113 2306 2375 2664 
Q 2638 3022 2638 3341 
Q 2638 3675 2398 3904 
Q 2159 4134 1775 4134 
Q 1369 4134 1125 3890 
Q 881 3647 878 3216 
L 300 3275 
Q 359 3922 746 4261 
Q 1134 4600 1788 4600 
Q 2447 4600 2831 4234 
Q 3216 3869 3216 3328 
Q 3216 3053 3103 2787 
Q 2991 2522 2730 2228 
Q 2469 1934 1863 1422 
Q 1356 997 1212 845 
Q 1069 694 975 541 
L 3222 541 
z
" id="ArialMT-32" transform="scale(0.015625)"/>
       </defs>
       <use xlink:href="#ArialMT-32"/>
      </g>
     </g>
    </g>
    <g id="xtick_3">
     <g id="line2d_3">
      <path clip-path="url(#pb771927944)" d="M 259.173555 327.54 
L 259.173555 26.96 
" style="fill:none;stroke:#ffffff;stroke-linecap:round;"/>
     </g>
     <g id="text_3">
      <!-- 4 -->
      <g style="fill:#262626;" transform="translate(256.115039 344.913594)scale(0.11 -0.11)">
       <defs>
        <path d="M 2069 0 
L 2069 1097 
L 81 1097 
L 81 1613 
L 2172 4581 
L 2631 4581 
L 2631 1613 
L 3250 1613 
L 3250 1097 
L 2631 1097 
L 2631 0 
L 2069 0 
z
M 2069 1613 
L 2069 3678 
L 634 1613 
L 2069 1613 
z
" id="ArialMT-34" transform="scale(0.015625)"/>
       </defs>
       <use xlink:href="#ArialMT-34"/>
      </g>
     </g>
    </g>
    <g id="xtick_4">
     <g id="line2d_4">
      <path clip-path="url(#pb771927944)" d="M 357.834154 327.54 
L 357.834154 26.96 
" style="fill:none;stroke:#ffffff;stroke-linecap:round;"/>
     </g>
     <g id="text_4">
      <!-- 8 -->
      <g style="fill:#262626;" transform="translate(354.775639 344.913594)scale(0.11 -0.11)">
       <defs>
        <path d="M 1131 2484 
Q 781 2613 612 2850 
Q 444 3088 444 3419 
Q 444 3919 803 4259 
Q 1163 4600 1759 4600 
Q 2359 4600 2725 4251 
Q 3091 3903 3091 3403 
Q 3091 3084 2923 2848 
Q 2756 2613 2416 2484 
Q 2838 2347 3058 2040 
Q 3278 1734 3278 1309 
Q 3278 722 2862 322 
Q 2447 -78 1769 -78 
Q 1091 -78 675 323 
Q 259 725 259 1325 
Q 259 1772 486 2073 
Q 713 2375 1131 2484 
z
M 1019 3438 
Q 1019 3113 1228 2906 
Q 1438 2700 1772 2700 
Q 2097 2700 2305 2904 
Q 2513 3109 2513 3406 
Q 2513 3716 2298 3927 
Q 2084 4138 1766 4138 
Q 1444 4138 1231 3931 
Q 1019 3725 1019 3438 
z
M 838 1322 
Q 838 1081 952 856 
Q 1066 631 1291 507 
Q 1516 384 1775 384 
Q 2178 384 2440 643 
Q 2703 903 2703 1303 
Q 2703 1709 2433 1975 
Q 2163 2241 1756 2241 
Q 1359 2241 1098 1978 
Q 838 1716 838 1322 
z
" id="ArialMT-38" transform="scale(0.015625)"/>
       </defs>
       <use xlink:href="#ArialMT-38"/>
      </g>
     </g>
    </g>
    <g id="xtick_5"/>
    <g id="xtick_6"/>
    <g id="xtick_7"/>
    <g id="xtick_8"/>
   </g>
   <g id="matplotlib.axis_2">
    <g id="ytick_1">
     <g id="line2d_5">
      <path clip-path="url(#pb771927944)" d="M 47.053265 327.54 
L 372.633244 327.54 
" style="fill:none;stroke:#ffffff;stroke-linecap:round;"/>
     </g>
     <g id="text_5">
      <!-- 0.03 -->
      <g style="fill:#262626;" transform="translate(16.146234 331.476797)scale(0.11 -0.11)">
       <defs>
        <path d="M 266 2259 
Q 266 3072 433 3567 
Q 600 4063 929 4331 
Q 1259 4600 1759 4600 
Q 2128 4600 2406 4451 
Q 2684 4303 2865 4023 
Q 3047 3744 3150 3342 
Q 3253 2941 3253 2259 
Q 3253 1453 3087 958 
Q 2922 463 2592 192 
Q 2263 -78 1759 -78 
Q 1097 -78 719 397 
Q 266 969 266 2259 
z
M 844 2259 
Q 844 1131 1108 757 
Q 1372 384 1759 384 
Q 2147 384 2411 759 
Q 2675 1134 2675 2259 
Q 2675 3391 2411 3762 
Q 2147 4134 1753 4134 
Q 1366 4134 1134 3806 
Q 844 3388 844 2259 
z
" id="ArialMT-30" transform="scale(0.015625)"/>
        <path d="M 581 0 
L 581 641 
L 1222 641 
L 1222 0 
L 581 0 
z
" id="ArialMT-2e" transform="scale(0.015625)"/>
        <path d="M 269 1209 
L 831 1284 
Q 928 806 1161 595 
Q 1394 384 1728 384 
Q 2125 384 2398 659 
Q 2672 934 2672 1341 
Q 2672 1728 2419 1979 
Q 2166 2231 1775 2231 
Q 1616 2231 1378 2169 
L 1441 2663 
Q 1497 2656 1531 2656 
Q 1891 2656 2178 2843 
Q 2466 3031 2466 3422 
Q 2466 3731 2256 3934 
Q 2047 4138 1716 4138 
Q 1388 4138 1169 3931 
Q 950 3725 888 3313 
L 325 3413 
Q 428 3978 793 4289 
Q 1159 4600 1703 4600 
Q 2078 4600 2393 4439 
Q 2709 4278 2876 4000 
Q 3044 3722 3044 3409 
Q 3044 3113 2884 2869 
Q 2725 2625 2413 2481 
Q 2819 2388 3044 2092 
Q 3269 1797 3269 1353 
Q 3269 753 2831 336 
Q 2394 -81 1725 -81 
Q 1122 -81 723 278 
Q 325 638 269 1209 
z
" id="ArialMT-33" transform="scale(0.015625)"/>
       </defs>
       <use xlink:href="#ArialMT-30"/>
       <use x="55.615234" xlink:href="#ArialMT-2e"/>
       <use x="83.398438" xlink:href="#ArialMT-30"/>
       <use x="139.013672" xlink:href="#ArialMT-33"/>
      </g>
     </g>
    </g>
    <g id="ytick_2">
     <g id="line2d_6">
      <path clip-path="url(#pb771927944)" d="M 47.053265 228.893144 
L 372.633244 228.893144 
" style="fill:none;stroke:#ffffff;stroke-linecap:round;"/>
     </g>
     <g id="text_6">
      <!-- 0.10 -->
      <g style="fill:#262626;" transform="translate(16.146234 232.829941)scale(0.11 -0.11)">
       <use xlink:href="#ArialMT-30"/>
       <use x="55.615234" xlink:href="#ArialMT-2e"/>
       <use x="83.398438" xlink:href="#ArialMT-31"/>
       <use x="139.013672" xlink:href="#ArialMT-30"/>
      </g>
     </g>
    </g>
    <g id="ytick_3">
     <g id="line2d_7">
      <path clip-path="url(#pb771927944)" d="M 47.053265 138.878944 
L 372.633244 138.878944 
" style="fill:none;stroke:#ffffff;stroke-linecap:round;"/>
     </g>
     <g id="text_7">
      <!-- 0.30 -->
      <g style="fill:#262626;" transform="translate(16.146234 142.815741)scale(0.11 -0.11)">
       <use xlink:href="#ArialMT-30"/>
       <use x="55.615234" xlink:href="#ArialMT-2e"/>
       <use x="83.398438" xlink:href="#ArialMT-33"/>
       <use x="139.013672" xlink:href="#ArialMT-30"/>
      </g>
     </g>
    </g>
    <g id="ytick_4"/>
    <g id="ytick_5"/>
    <g id="ytick_6"/>
    <g id="ytick_7"/>
    <g id="ytick_8"/>
    <g id="ytick_9"/>
    <g id="ytick_10"/>
    <g id="ytick_11"/>
    <g id="ytick_12"/>
    <g id="ytick_13"/>
    <g id="ytick_14"/>
    <g id="ytick_15"/>
    <g id="ytick_16"/>
   </g>
   <g id="line2d_8">
    <path clip-path="url(#pb771927944)" d="M 61.852355 106.123465 
L 160.512955 91.399175 
L 259.173555 77.617498 
L 357.834154 75.951846 
" style="fill:none;stroke:#fc8d62;stroke-dasharray:5.55,2.4;stroke-dashoffset:0;stroke-opacity:0.65;stroke-width:1.5;"/>
   </g>
   <g id="line2d_9">
    <path clip-path="url(#pb771927944)" d="M 61.852355 107.603134 
L 160.512955 92.633616 
L 259.173555 78.922215 
L 357.834154 77.876785 
" style="fill:none;stroke:#fc8d62;stroke-dasharray:5.55,2.4;stroke-dashoffset:0;stroke-opacity:0.65;stroke-width:1.5;"/>
   </g>
   <g id="line2d_10">
    <path clip-path="url(#pb771927944)" d="M 61.852355 145.926199 
L 160.512955 109.68232 
L 259.173555 75.698571 
L 357.834154 48.419423 
" style="fill:none;stroke:#fc8d62;stroke-dasharray:5.55,2.4;stroke-dashoffset:0;stroke-opacity:0.65;stroke-width:1.5;"/>
   </g>
   <g id="line2d_11">
    <path clip-path="url(#pb771927944)" d="M 61.852355 108.920134 
L 160.512955 97.766218 
L 259.173555 81.459915 
L 357.834154 75.825111 
" style="fill:none;stroke:#fc8d62;stroke-dasharray:5.55,2.4;stroke-dashoffset:0;stroke-opacity:0.65;stroke-width:1.5;"/>
   </g>
   <g id="line2d_12">
    <path clip-path="url(#pb771927944)" d="M 61.852355 103.774576 
L 160.512955 90.183057 
L 259.173555 78.659604 
L 357.834154 79.449975 
" style="fill:none;stroke:#fc8d62;stroke-dasharray:5.55,2.4;stroke-dashoffset:0;stroke-opacity:0.65;stroke-width:1.5;"/>
   </g>
   <g id="line2d_13">
    <path clip-path="url(#pb771927944)" d="M 61.852355 110.066089 
L 160.512955 96.779044 
L 259.173555 79.18567 
L 357.834154 70.671845 
" style="fill:none;stroke:#fc8d62;stroke-dasharray:5.55,2.4;stroke-dashoffset:0;stroke-opacity:0.65;stroke-width:1.5;"/>
   </g>
   <g id="line2d_14">
    <path clip-path="url(#pb771927944)" d="M 61.852355 112.407233 
L 160.512955 95.642175 
L 259.173555 81.595681 
L 357.834154 73.576768 
" style="fill:none;stroke:#fc8d62;stroke-dasharray:5.55,2.4;stroke-dashoffset:0;stroke-opacity:0.65;stroke-width:1.5;"/>
   </g>
   <g id="line2d_15">
    <path clip-path="url(#pb771927944)" d="M 61.852355 115.021314 
L 160.512955 98.264302 
L 259.173555 76.716403 
L 357.834154 73.453651 
" style="fill:none;stroke:#fc8d62;stroke-dasharray:5.55,2.4;stroke-dashoffset:0;stroke-opacity:0.65;stroke-width:1.5;"/>
   </g>
   <g id="line2d_16">
    <path clip-path="url(#pb771927944)" d="M 61.852355 162.368043 
L 160.512955 118.357529 
L 259.173555 92.47829 
L 357.834154 68.21187 
" style="fill:none;stroke:#e78ac3;stroke-dasharray:5.55,2.4;stroke-dashoffset:0;stroke-opacity:0.65;stroke-width:1.5;"/>
   </g>
   <g id="line2d_17">
    <path clip-path="url(#pb771927944)" d="M 61.852355 161.282802 
L 160.512955 117.300296 
L 259.173555 83.10414 
L 357.834154 44.180489 
" style="fill:none;stroke:#e78ac3;stroke-dasharray:5.55,2.4;stroke-dashoffset:0;stroke-opacity:0.65;stroke-width:1.5;"/>
   </g>
   <g id="line2d_18">
    <path clip-path="url(#pb771927944)" d="M 160.512955 114.817243 
L 259.173555 89.432048 
L 357.834154 65.265085 
" style="fill:none;stroke:#e78ac3;stroke-dasharray:5.55,2.4;stroke-dashoffset:0;stroke-opacity:0.65;stroke-width:1.5;"/>
   </g>
   <g id="line2d_19">
    <path clip-path="url(#pb771927944)" d="M 61.852355 166.092978 
L 160.512955 118.784272 
L 259.173555 92.47829 
L 357.834154 65.488036 
" style="fill:none;stroke:#e78ac3;stroke-dasharray:5.55,2.4;stroke-dashoffset:0;stroke-opacity:0.65;stroke-width:1.5;"/>
   </g>
   <g id="line2d_20">
    <path clip-path="url(#pb771927944)" d="M 61.852355 174.51419 
L 160.512955 126.40115 
L 259.173555 93.414694 
L 357.834154 65.488036 
" style="fill:none;stroke:#e78ac3;stroke-dasharray:5.55,2.4;stroke-dashoffset:0;stroke-opacity:0.65;stroke-width:1.5;"/>
   </g>
   <g id="line2d_21">
    <path clip-path="url(#pb771927944)" d="M 61.852355 155.390684 
L 160.512955 113.804444 
L 259.173555 83.10414 
L 357.834154 59.77563 
" style="fill:none;stroke:#e78ac3;stroke-dasharray:5.55,2.4;stroke-dashoffset:0;stroke-opacity:0.65;stroke-width:1.5;"/>
   </g>
   <g id="line2d_22">
    <path clip-path="url(#pb771927944)" d="M 61.852355 158.11075 
L 160.512955 121.392486 
L 259.173555 85.065058 
L 357.834154 42.89957 
" style="fill:none;stroke:#e78ac3;stroke-dasharray:5.55,2.4;stroke-dashoffset:0;stroke-opacity:0.65;stroke-width:1.5;"/>
   </g>
   <g id="line2d_23">
    <path clip-path="url(#pb771927944)" d="M 61.852355 176.653593 
L 160.512955 125.699853 
L 259.173555 93.257881 
L 357.834154 63.93997 
" style="fill:none;stroke:#e78ac3;stroke-dasharray:5.55,2.4;stroke-dashoffset:0;stroke-opacity:0.65;stroke-width:1.5;"/>
   </g>
   <g id="line2d_24">
    <path clip-path="url(#pb771927944)" d="M 61.852355 161.642954 
L 160.512955 154.063781 
L 259.173555 122.280673 
L 357.834154 98.598047 
" style="fill:none;stroke:#a6d854;stroke-dasharray:5.55,2.4;stroke-dashoffset:0;stroke-opacity:0.65;stroke-width:1.5;"/>
   </g>
   <g id="line2d_25">
    <path clip-path="url(#pb771927944)" d="M 61.852355 204.222262 
L 160.512955 158.11075 
L 259.173555 113.603377 
L 357.834154 86.928914 
" style="fill:none;stroke:#a6d854;stroke-dasharray:5.55,2.4;stroke-dashoffset:0;stroke-opacity:0.65;stroke-width:1.5;"/>
   </g>
   <g id="line2d_26">
    <path clip-path="url(#pb771927944)" d="M 61.852355 170.396014 
L 160.512955 157.080114 
L 259.173555 116.672442 
L 357.834154 101.318113 
" style="fill:none;stroke:#a6d854;stroke-dasharray:5.55,2.4;stroke-dashoffset:0;stroke-opacity:0.65;stroke-width:1.5;"/>
   </g>
   <g id="line2d_27">
    <path clip-path="url(#pb771927944)" d="M 61.852355 190.301677 
L 259.173555 126.636257 
L 357.834154 102.537139 
" style="fill:none;stroke:#a6d854;stroke-dasharray:5.55,2.4;stroke-dashoffset:0;stroke-opacity:0.65;stroke-width:1.5;"/>
   </g>
   <g id="line2d_28">
    <path clip-path="url(#pb771927944)" d="M 61.852355 158.11075 
L 160.512955 156.062282 
L 259.173555 131.485864 
L 357.834154 110.25865 
" style="fill:none;stroke:#a6d854;stroke-dasharray:5.55,2.4;stroke-dashoffset:0;stroke-opacity:0.65;stroke-width:1.5;"/>
   </g>
   <g id="line2d_29">
    <path clip-path="url(#pb771927944)" d="M 61.852355 168.805004 
L 160.512955 156.400156 
L 259.173555 108.920134 
L 357.834154 95.481046 
" style="fill:none;stroke:#a6d854;stroke-dasharray:5.55,2.4;stroke-dashoffset:0;stroke-opacity:0.65;stroke-width:1.5;"/>
   </g>
   <g id="line2d_30">
    <path clip-path="url(#pb771927944)" d="M 61.852355 171.203257 
L 160.512955 156.062282 
L 259.173555 123.631271 
L 357.834154 102.88879 
" style="fill:none;stroke:#a6d854;stroke-dasharray:5.55,2.4;stroke-dashoffset:0;stroke-opacity:0.65;stroke-width:1.5;"/>
   </g>
   <g id="line2d_31">
    <path clip-path="url(#pb771927944)" d="M 61.852355 216.650456 
L 160.512955 157.765762 
L 259.173555 116.881193 
L 357.834154 100.801175 
" style="fill:none;stroke:#a6d854;stroke-dasharray:5.55,2.4;stroke-dashoffset:0;stroke-opacity:0.65;stroke-width:1.5;"/>
   </g>
   <g id="line2d_32"/>
   <g id="line2d_33"/>
   <g id="line2d_34"/>
   <g id="line2d_35">
    <path clip-path="url(#pb771927944)" d="M 61.852355 111.721242 
L 357.834154 68.733321 
L 357.834154 68.733321 
" style="fill:none;stroke:#fc8d62;stroke-linecap:round;stroke-width:4;"/>
   </g>
   <g id="line2d_36">
    <path clip-path="url(#pb771927944)" d="M 61.852355 179.71887 
L 357.834154 97.161524 
L 357.834154 97.161524 
" style="fill:none;stroke:#a6d854;stroke-linecap:round;stroke-width:4;"/>
   </g>
   <g id="line2d_37">
    <path clip-path="url(#pb771927944)" d="M 61.852355 160.725524 
L 357.834154 55.634416 
L 357.834154 55.634416 
" style="fill:none;stroke:#e78ac3;stroke-linecap:round;stroke-width:4;"/>
   </g>
   <g id="patch_3">
    <path d="M 47.053265 327.54 
L 47.053265 26.96 
" style="fill:none;stroke:#ffffff;stroke-linecap:square;stroke-linejoin:miter;stroke-width:1.25;"/>
   </g>
   <g id="patch_4">
    <path d="M 47.053265 327.54 
L 372.633244 327.54 
" style="fill:none;stroke:#ffffff;stroke-linecap:square;stroke-linejoin:miter;stroke-width:1.25;"/>
   </g>
   <g id="text_8">
    <!-- Alexnet -->
    <g style="fill:#262626;" transform="translate(189.83138 20.96)scale(0.12 -0.12)">
     <defs>
      <path d="M -9 0 
L 1750 4581 
L 2403 4581 
L 4278 0 
L 3588 0 
L 3053 1388 
L 1138 1388 
L 634 0 
L -9 0 
z
M 1313 1881 
L 2866 1881 
L 2388 3150 
Q 2169 3728 2063 4100 
Q 1975 3659 1816 3225 
L 1313 1881 
z
" id="ArialMT-41" transform="scale(0.015625)"/>
      <path d="M 409 0 
L 409 4581 
L 972 4581 
L 972 0 
L 409 0 
z
" id="ArialMT-6c" transform="scale(0.015625)"/>
      <path d="M 2694 1069 
L 3275 997 
Q 3138 488 2766 206 
Q 2394 -75 1816 -75 
Q 1088 -75 661 373 
Q 234 822 234 1631 
Q 234 2469 665 2931 
Q 1097 3394 1784 3394 
Q 2450 3394 2872 2941 
Q 3294 2488 3294 1666 
Q 3294 1616 3291 1516 
L 816 1516 
Q 847 969 1125 678 
Q 1403 388 1819 388 
Q 2128 388 2347 550 
Q 2566 713 2694 1069 
z
M 847 1978 
L 2700 1978 
Q 2663 2397 2488 2606 
Q 2219 2931 1791 2931 
Q 1403 2931 1139 2672 
Q 875 2413 847 1978 
z
" id="ArialMT-65" transform="scale(0.015625)"/>
      <path d="M 47 0 
L 1259 1725 
L 138 3319 
L 841 3319 
L 1350 2541 
Q 1494 2319 1581 2169 
Q 1719 2375 1834 2534 
L 2394 3319 
L 3066 3319 
L 1919 1756 
L 3153 0 
L 2463 0 
L 1781 1031 
L 1600 1309 
L 728 0 
L 47 0 
z
" id="ArialMT-78" transform="scale(0.015625)"/>
      <path d="M 422 0 
L 422 3319 
L 928 3319 
L 928 2847 
Q 1294 3394 1984 3394 
Q 2284 3394 2536 3286 
Q 2788 3178 2913 3003 
Q 3038 2828 3088 2588 
Q 3119 2431 3119 2041 
L 3119 0 
L 2556 0 
L 2556 2019 
Q 2556 2363 2490 2533 
Q 2425 2703 2258 2804 
Q 2091 2906 1866 2906 
Q 1506 2906 1245 2678 
Q 984 2450 984 1813 
L 984 0 
L 422 0 
z
" id="ArialMT-6e" transform="scale(0.015625)"/>
      <path d="M 1650 503 
L 1731 6 
Q 1494 -44 1306 -44 
Q 1000 -44 831 53 
Q 663 150 594 308 
Q 525 466 525 972 
L 525 2881 
L 113 2881 
L 113 3319 
L 525 3319 
L 525 4141 
L 1084 4478 
L 1084 3319 
L 1650 3319 
L 1650 2881 
L 1084 2881 
L 1084 941 
Q 1084 700 1114 631 
Q 1144 563 1211 522 
Q 1278 481 1403 481 
Q 1497 481 1650 503 
z
" id="ArialMT-74" transform="scale(0.015625)"/>
     </defs>
     <use xlink:href="#ArialMT-41"/>
     <use x="66.699219" xlink:href="#ArialMT-6c"/>
     <use x="88.916016" xlink:href="#ArialMT-65"/>
     <use x="144.53125" xlink:href="#ArialMT-78"/>
     <use x="194.53125" xlink:href="#ArialMT-6e"/>
     <use x="250.146484" xlink:href="#ArialMT-65"/>
     <use x="305.761719" xlink:href="#ArialMT-74"/>
    </g>
   </g>
  </g>
  <g id="axes_2">
   <g id="patch_5">
    <path d="M 385.495271 327.54 
L 711.07525 327.54 
L 711.07525 26.96 
L 385.495271 26.96 
z
" style="fill:#eaeaf2;"/>
   </g>
   <g id="matplotlib.axis_3">
    <g id="xtick_9">
     <g id="line2d_38">
      <path clip-path="url(#p70e620b700)" d="M 400.294361 327.54 
L 400.294361 26.96 
" style="fill:none;stroke:#ffffff;stroke-linecap:round;"/>
     </g>
     <g id="text_9">
      <!-- 1 -->
      <g style="fill:#262626;" transform="translate(397.235845 344.913594)scale(0.11 -0.11)">
       <use xlink:href="#ArialMT-31"/>
      </g>
     </g>
    </g>
    <g id="xtick_10">
     <g id="line2d_39">
      <path clip-path="url(#p70e620b700)" d="M 498.954961 327.54 
L 498.954961 26.96 
" style="fill:none;stroke:#ffffff;stroke-linecap:round;"/>
     </g>
     <g id="text_10">
      <!-- 2 -->
      <g style="fill:#262626;" transform="translate(495.896445 344.913594)scale(0.11 -0.11)">
       <use xlink:href="#ArialMT-32"/>
      </g>
     </g>
    </g>
    <g id="xtick_11">
     <g id="line2d_40">
      <path clip-path="url(#p70e620b700)" d="M 597.61556 327.54 
L 597.61556 26.96 
" style="fill:none;stroke:#ffffff;stroke-linecap:round;"/>
     </g>
     <g id="text_11">
      <!-- 4 -->
      <g style="fill:#262626;" transform="translate(594.557045 344.913594)scale(0.11 -0.11)">
       <use xlink:href="#ArialMT-34"/>
      </g>
     </g>
    </g>
    <g id="xtick_12">
     <g id="line2d_41">
      <path clip-path="url(#p70e620b700)" d="M 696.27616 327.54 
L 696.27616 26.96 
" style="fill:none;stroke:#ffffff;stroke-linecap:round;"/>
     </g>
     <g id="text_12">
      <!-- 8 -->
      <g style="fill:#262626;" transform="translate(693.217644 344.913594)scale(0.11 -0.11)">
       <use xlink:href="#ArialMT-38"/>
      </g>
     </g>
    </g>
    <g id="xtick_13"/>
    <g id="xtick_14"/>
    <g id="xtick_15"/>
    <g id="xtick_16"/>
   </g>
   <g id="matplotlib.axis_4">
    <g id="ytick_17">
     <g id="line2d_42">
      <path clip-path="url(#p70e620b700)" d="M 385.495271 327.54 
L 711.07525 327.54 
" style="fill:none;stroke:#ffffff;stroke-linecap:round;"/>
     </g>
    </g>
    <g id="ytick_18">
     <g id="line2d_43">
      <path clip-path="url(#p70e620b700)" d="M 385.495271 228.893144 
L 711.07525 228.893144 
" style="fill:none;stroke:#ffffff;stroke-linecap:round;"/>
     </g>
    </g>
    <g id="ytick_19">
     <g id="line2d_44">
      <path clip-path="url(#p70e620b700)" d="M 385.495271 138.878944 
L 711.07525 138.878944 
" style="fill:none;stroke:#ffffff;stroke-linecap:round;"/>
     </g>
    </g>
    <g id="ytick_20"/>
    <g id="ytick_21"/>
    <g id="ytick_22"/>
    <g id="ytick_23"/>
    <g id="ytick_24"/>
    <g id="ytick_25"/>
    <g id="ytick_26"/>
    <g id="ytick_27"/>
    <g id="ytick_28"/>
    <g id="ytick_29"/>
    <g id="ytick_30"/>
    <g id="ytick_31"/>
    <g id="ytick_32"/>
   </g>
   <g id="line2d_45">
    <path clip-path="url(#p70e620b700)" d="M 400.294361 117.932997 
L 498.954961 92.47829 
L 597.61556 63.285364 
L 696.27616 41.222245 
" style="fill:none;stroke:#fc8d62;stroke-dasharray:5.55,2.4;stroke-dashoffset:0;stroke-opacity:0.65;stroke-width:1.5;"/>
   </g>
   <g id="line2d_46">
    <path clip-path="url(#p70e620b700)" d="M 400.294361 119.860956 
L 498.954961 93.257881 
L 597.61556 62.528209 
L 696.27616 40.232088 
" style="fill:none;stroke:#fc8d62;stroke-dasharray:5.55,2.4;stroke-dashoffset:0;stroke-opacity:0.65;stroke-width:1.5;"/>
   </g>
   <g id="line2d_47">
    <path clip-path="url(#p70e620b700)" d="M 400.294361 100.116958 
L 498.954961 94.044962 
L 597.61556 65.265085 
L 696.27616 40.232088 
" style="fill:none;stroke:#fc8d62;stroke-dasharray:5.55,2.4;stroke-dashoffset:0;stroke-opacity:0.65;stroke-width:1.5;"/>
   </g>
   <g id="line2d_48">
    <path clip-path="url(#p70e620b700)" d="M 400.294361 118.570623 
L 498.954961 88.392068 
L 597.61556 61.884741 
L 696.27616 42.308592 
" style="fill:none;stroke:#fc8d62;stroke-dasharray:5.55,2.4;stroke-dashoffset:0;stroke-opacity:0.65;stroke-width:1.5;"/>
   </g>
   <g id="line2d_49">
    <path clip-path="url(#p70e620b700)" d="M 400.294361 98.598047 
L 498.954961 92.014071 
L 597.61556 63.830506 
L 696.27616 40.232088 
" style="fill:none;stroke:#fc8d62;stroke-dasharray:5.55,2.4;stroke-dashoffset:0;stroke-opacity:0.65;stroke-width:1.5;"/>
   </g>
   <g id="line2d_50">
    <path clip-path="url(#p70e620b700)" d="M 400.294361 109.87398 
L 498.954961 78.528614 
L 597.61556 51.749046 
L 696.27616 40.232088 
" style="fill:none;stroke:#fc8d62;stroke-dasharray:5.55,2.4;stroke-dashoffset:0;stroke-opacity:0.65;stroke-width:1.5;"/>
   </g>
   <g id="line2d_51">
    <path clip-path="url(#p70e620b700)" d="M 400.294361 111.228299 
L 498.954961 89.731626 
L 597.61556 64.049582 
L 696.27616 40.232088 
" style="fill:none;stroke:#fc8d62;stroke-dasharray:5.55,2.4;stroke-dashoffset:0;stroke-opacity:0.65;stroke-width:1.5;"/>
   </g>
   <g id="line2d_52">
    <path clip-path="url(#p70e620b700)" d="M 400.294361 111.619395 
L 498.954961 81.189057 
L 597.61556 50.810497 
L 696.27616 40.232088 
" style="fill:none;stroke:#fc8d62;stroke-dasharray:5.55,2.4;stroke-dashoffset:0;stroke-opacity:0.65;stroke-width:1.5;"/>
   </g>
   <g id="line2d_53">
    <path clip-path="url(#p70e620b700)" d="M 400.294361 107.230704 
L 498.954961 94.203289 
L 597.61556 87.219462 
L 696.27616 79.449975 
" style="fill:none;stroke:#e78ac3;stroke-dasharray:5.55,2.4;stroke-dashoffset:0;stroke-opacity:0.65;stroke-width:1.5;"/>
   </g>
   <g id="line2d_54">
    <path clip-path="url(#p70e620b700)" d="M 400.294361 107.789986 
L 498.954961 94.203289 
L 597.61556 88.392068 
L 696.27616 77.617498 
" style="fill:none;stroke:#e78ac3;stroke-dasharray:5.55,2.4;stroke-dashoffset:0;stroke-opacity:0.65;stroke-width:1.5;"/>
   </g>
   <g id="line2d_55">
    <path clip-path="url(#p70e620b700)" d="M 400.294361 107.230704 
L 498.954961 93.101368 
L 597.61556 84.499991 
L 696.27616 74.195144 
" style="fill:none;stroke:#e78ac3;stroke-dasharray:5.55,2.4;stroke-dashoffset:0;stroke-opacity:0.65;stroke-width:1.5;"/>
   </g>
   <g id="line2d_56">
    <path clip-path="url(#p70e620b700)" d="M 400.294361 107.789986 
L 498.954961 95.965389 
L 597.61556 90.941013 
L 696.27616 79.449975 
" style="fill:none;stroke:#e78ac3;stroke-dasharray:5.55,2.4;stroke-dashoffset:0;stroke-opacity:0.65;stroke-width:1.5;"/>
   </g>
   <g id="line2d_57">
    <path clip-path="url(#p70e620b700)" d="M 400.294361 100.116958 
L 498.954961 86.495015 
L 597.61556 73.576768 
L 696.27616 53.949403 
" style="fill:none;stroke:#e78ac3;stroke-dasharray:5.55,2.4;stroke-dashoffset:0;stroke-opacity:0.65;stroke-width:1.5;"/>
   </g>
   <g id="line2d_58">
    <path clip-path="url(#p70e620b700)" d="M 400.294361 111.619395 
L 498.954961 98.765431 
L 597.61556 90.941013 
L 696.27616 77.876785 
" style="fill:none;stroke:#e78ac3;stroke-dasharray:5.55,2.4;stroke-dashoffset:0;stroke-opacity:0.65;stroke-width:1.5;"/>
   </g>
   <g id="line2d_59">
    <path clip-path="url(#p70e620b700)" d="M 400.294361 115.636595 
L 498.954961 101.145438 
L 597.61556 94.999549 
L 696.27616 89.881827 
" style="fill:none;stroke:#e78ac3;stroke-dasharray:5.55,2.4;stroke-dashoffset:0;stroke-opacity:0.65;stroke-width:1.5;"/>
   </g>
   <g id="line2d_60">
    <path clip-path="url(#p70e620b700)" d="M 400.294361 108.353111 
L 498.954961 96.452612 
L 597.61556 92.633616 
L 696.27616 85.491431 
" style="fill:none;stroke:#e78ac3;stroke-dasharray:5.55,2.4;stroke-dashoffset:0;stroke-opacity:0.65;stroke-width:1.5;"/>
   </g>
   <g id="line2d_61">
    <path clip-path="url(#p70e620b700)" d="M 400.294361 277.794618 
L 498.954961 189.283845 
L 597.61556 125.699853 
L 696.27616 104.490166 
" style="fill:none;stroke:#a6d854;stroke-dasharray:5.55,2.4;stroke-dashoffset:0;stroke-opacity:0.65;stroke-width:1.5;"/>
   </g>
   <g id="line2d_62">
    <path clip-path="url(#p70e620b700)" d="M 400.294361 178.406268 
L 498.954961 165.33432 
L 597.61556 130.987781 
L 696.27616 95.965389 
" style="fill:none;stroke:#a6d854;stroke-dasharray:5.55,2.4;stroke-dashoffset:0;stroke-opacity:0.65;stroke-width:1.5;"/>
   </g>
   <g id="line2d_63">
    <path clip-path="url(#p70e620b700)" d="M 400.294361 181.107649 
L 498.954961 169.19987 
L 597.61556 120.295622 
L 696.27616 78.528614 
" style="fill:none;stroke:#a6d854;stroke-dasharray:5.55,2.4;stroke-dashoffset:0;stroke-opacity:0.65;stroke-width:1.5;"/>
   </g>
   <g id="line2d_64">
    <path clip-path="url(#p70e620b700)" d="M 400.294361 266.667792 
L 498.954961 162.004696 
L 597.61556 121.392486 
L 696.27616 95.803623 
" style="fill:none;stroke:#a6d854;stroke-dasharray:5.55,2.4;stroke-dashoffset:0;stroke-opacity:0.65;stroke-width:1.5;"/>
   </g>
   <g id="line2d_65">
    <path clip-path="url(#p70e620b700)" d="M 400.294361 285.603805 
L 498.954961 176.653593 
L 597.61556 127.34565 
L 696.27616 103.419112 
" style="fill:none;stroke:#a6d854;stroke-dasharray:5.55,2.4;stroke-dashoffset:0;stroke-opacity:0.65;stroke-width:1.5;"/>
   </g>
   <g id="line2d_66">
    <path clip-path="url(#p70e620b700)" d="M 400.294361 228.811168 
L 498.954961 171.203257 
L 597.61556 133.50904 
L 696.27616 103.596651 
" style="fill:none;stroke:#a6d854;stroke-dasharray:5.55,2.4;stroke-dashoffset:0;stroke-opacity:0.65;stroke-width:1.5;"/>
   </g>
   <g id="line2d_67">
    <path clip-path="url(#p70e620b700)" d="M 400.294361 179.745826 
L 498.954961 168.412032 
L 597.61556 132.491208 
L 696.27616 93.414694 
" style="fill:none;stroke:#a6d854;stroke-dasharray:5.55,2.4;stroke-dashoffset:0;stroke-opacity:0.65;stroke-width:1.5;"/>
   </g>
   <g id="line2d_68">
    <path clip-path="url(#p70e620b700)" d="M 400.294361 178.850358 
L 498.954961 164.957609 
L 597.61556 139.07054 
L 696.27616 119.428583 
" style="fill:none;stroke:#a6d854;stroke-dasharray:5.55,2.4;stroke-dashoffset:0;stroke-opacity:0.65;stroke-width:1.5;"/>
   </g>
   <g id="line2d_69">
    <path clip-path="url(#p70e620b700)" d="M 400.294361 107.113485 
L 696.27616 77.087439 
L 696.27616 77.087439 
" style="fill:none;stroke:#e78ac3;stroke-linecap:round;stroke-width:4;"/>
   </g>
   <g id="line2d_70">
    <path clip-path="url(#p70e620b700)" d="M 400.294361 111.083892 
L 696.27616 39.276372 
L 696.27616 39.276372 
" style="fill:none;stroke:#fc8d62;stroke-linecap:round;stroke-width:4;"/>
   </g>
   <g id="line2d_71">
    <path clip-path="url(#p70e620b700)" d="M 400.294361 216.857597 
L 696.27616 93.734635 
L 696.27616 93.734635 
" style="fill:none;stroke:#a6d854;stroke-linecap:round;stroke-width:4;"/>
   </g>
   <g id="patch_6">
    <path d="M 385.495271 327.54 
L 385.495271 26.96 
" style="fill:none;stroke:#ffffff;stroke-linecap:square;stroke-linejoin:miter;stroke-width:1.25;"/>
   </g>
   <g id="patch_7">
    <path d="M 385.495271 327.54 
L 711.07525 327.54 
" style="fill:none;stroke:#ffffff;stroke-linecap:square;stroke-linejoin:miter;stroke-width:1.25;"/>
   </g>
   <g id="text_13">
    <!-- VGG16 -->
    <g style="fill:#262626;" transform="translate(528.276198 20.96)scale(0.12 -0.12)">
     <defs>
      <path d="M 1803 0 
L 28 4581 
L 684 4581 
L 1875 1253 
Q 2019 853 2116 503 
Q 2222 878 2363 1253 
L 3600 4581 
L 4219 4581 
L 2425 0 
L 1803 0 
z
" id="ArialMT-56" transform="scale(0.015625)"/>
      <path d="M 2638 1797 
L 2638 2334 
L 4578 2338 
L 4578 638 
Q 4131 281 3656 101 
Q 3181 -78 2681 -78 
Q 2006 -78 1454 211 
Q 903 500 622 1047 
Q 341 1594 341 2269 
Q 341 2938 620 3517 
Q 900 4097 1425 4378 
Q 1950 4659 2634 4659 
Q 3131 4659 3532 4498 
Q 3934 4338 4162 4050 
Q 4391 3763 4509 3300 
L 3963 3150 
Q 3859 3500 3706 3700 
Q 3553 3900 3268 4020 
Q 2984 4141 2638 4141 
Q 2222 4141 1919 4014 
Q 1616 3888 1430 3681 
Q 1244 3475 1141 3228 
Q 966 2803 966 2306 
Q 966 1694 1177 1281 
Q 1388 869 1791 669 
Q 2194 469 2647 469 
Q 3041 469 3416 620 
Q 3791 772 3984 944 
L 3984 1797 
L 2638 1797 
z
" id="ArialMT-47" transform="scale(0.015625)"/>
      <path d="M 3184 3459 
L 2625 3416 
Q 2550 3747 2413 3897 
Q 2184 4138 1850 4138 
Q 1581 4138 1378 3988 
Q 1113 3794 959 3422 
Q 806 3050 800 2363 
Q 1003 2672 1297 2822 
Q 1591 2972 1913 2972 
Q 2475 2972 2870 2558 
Q 3266 2144 3266 1488 
Q 3266 1056 3080 686 
Q 2894 316 2569 119 
Q 2244 -78 1831 -78 
Q 1128 -78 684 439 
Q 241 956 241 2144 
Q 241 3472 731 4075 
Q 1159 4600 1884 4600 
Q 2425 4600 2770 4297 
Q 3116 3994 3184 3459 
z
M 888 1484 
Q 888 1194 1011 928 
Q 1134 663 1356 523 
Q 1578 384 1822 384 
Q 2178 384 2434 671 
Q 2691 959 2691 1453 
Q 2691 1928 2437 2201 
Q 2184 2475 1800 2475 
Q 1419 2475 1153 2201 
Q 888 1928 888 1484 
z
" id="ArialMT-36" transform="scale(0.015625)"/>
     </defs>
     <use xlink:href="#ArialMT-56"/>
     <use x="66.699219" xlink:href="#ArialMT-47"/>
     <use x="144.482422" xlink:href="#ArialMT-47"/>
     <use x="222.265625" xlink:href="#ArialMT-31"/>
     <use x="277.880859" xlink:href="#ArialMT-36"/>
    </g>
   </g>
  </g>
  <g id="legend_1">
   <g id="text_14">
    <!-- Source dataset -->
    <g style="fill:#262626;" transform="translate(760.795234 159.499453)scale(0.12 -0.12)">
     <defs>
      <path d="M 288 1472 
L 859 1522 
Q 900 1178 1048 958 
Q 1197 738 1509 602 
Q 1822 466 2213 466 
Q 2559 466 2825 569 
Q 3091 672 3220 851 
Q 3350 1031 3350 1244 
Q 3350 1459 3225 1620 
Q 3100 1781 2813 1891 
Q 2628 1963 1997 2114 
Q 1366 2266 1113 2400 
Q 784 2572 623 2826 
Q 463 3081 463 3397 
Q 463 3744 659 4045 
Q 856 4347 1234 4503 
Q 1613 4659 2075 4659 
Q 2584 4659 2973 4495 
Q 3363 4331 3572 4012 
Q 3781 3694 3797 3291 
L 3216 3247 
Q 3169 3681 2898 3903 
Q 2628 4125 2100 4125 
Q 1550 4125 1298 3923 
Q 1047 3722 1047 3438 
Q 1047 3191 1225 3031 
Q 1400 2872 2139 2705 
Q 2878 2538 3153 2413 
Q 3553 2228 3743 1945 
Q 3934 1663 3934 1294 
Q 3934 928 3725 604 
Q 3516 281 3123 101 
Q 2731 -78 2241 -78 
Q 1619 -78 1198 103 
Q 778 284 539 648 
Q 300 1013 288 1472 
z
" id="ArialMT-53" transform="scale(0.015625)"/>
      <path d="M 213 1659 
Q 213 2581 725 3025 
Q 1153 3394 1769 3394 
Q 2453 3394 2887 2945 
Q 3322 2497 3322 1706 
Q 3322 1066 3130 698 
Q 2938 331 2570 128 
Q 2203 -75 1769 -75 
Q 1072 -75 642 372 
Q 213 819 213 1659 
z
M 791 1659 
Q 791 1022 1069 705 
Q 1347 388 1769 388 
Q 2188 388 2466 706 
Q 2744 1025 2744 1678 
Q 2744 2294 2464 2611 
Q 2184 2928 1769 2928 
Q 1347 2928 1069 2612 
Q 791 2297 791 1659 
z
" id="ArialMT-6f" transform="scale(0.015625)"/>
      <path d="M 2597 0 
L 2597 488 
Q 2209 -75 1544 -75 
Q 1250 -75 995 37 
Q 741 150 617 320 
Q 494 491 444 738 
Q 409 903 409 1263 
L 409 3319 
L 972 3319 
L 972 1478 
Q 972 1038 1006 884 
Q 1059 663 1231 536 
Q 1403 409 1656 409 
Q 1909 409 2131 539 
Q 2353 669 2445 892 
Q 2538 1116 2538 1541 
L 2538 3319 
L 3100 3319 
L 3100 0 
L 2597 0 
z
" id="ArialMT-75" transform="scale(0.015625)"/>
      <path d="M 416 0 
L 416 3319 
L 922 3319 
L 922 2816 
Q 1116 3169 1280 3281 
Q 1444 3394 1641 3394 
Q 1925 3394 2219 3213 
L 2025 2691 
Q 1819 2813 1613 2813 
Q 1428 2813 1281 2702 
Q 1134 2591 1072 2394 
Q 978 2094 978 1738 
L 978 0 
L 416 0 
z
" id="ArialMT-72" transform="scale(0.015625)"/>
      <path d="M 2588 1216 
L 3141 1144 
Q 3050 572 2676 248 
Q 2303 -75 1759 -75 
Q 1078 -75 664 370 
Q 250 816 250 1647 
Q 250 2184 428 2587 
Q 606 2991 970 3192 
Q 1334 3394 1763 3394 
Q 2303 3394 2647 3120 
Q 2991 2847 3088 2344 
L 2541 2259 
Q 2463 2594 2264 2762 
Q 2066 2931 1784 2931 
Q 1359 2931 1093 2626 
Q 828 2322 828 1663 
Q 828 994 1084 691 
Q 1341 388 1753 388 
Q 2084 388 2306 591 
Q 2528 794 2588 1216 
z
" id="ArialMT-63" transform="scale(0.015625)"/>
      <path id="ArialMT-20" transform="scale(0.015625)"/>
      <path d="M 2575 0 
L 2575 419 
Q 2259 -75 1647 -75 
Q 1250 -75 917 144 
Q 584 363 401 755 
Q 219 1147 219 1656 
Q 219 2153 384 2558 
Q 550 2963 881 3178 
Q 1213 3394 1622 3394 
Q 1922 3394 2156 3267 
Q 2391 3141 2538 2938 
L 2538 4581 
L 3097 4581 
L 3097 0 
L 2575 0 
z
M 797 1656 
Q 797 1019 1065 703 
Q 1334 388 1700 388 
Q 2069 388 2326 689 
Q 2584 991 2584 1609 
Q 2584 2291 2321 2609 
Q 2059 2928 1675 2928 
Q 1300 2928 1048 2622 
Q 797 2316 797 1656 
z
" id="ArialMT-64" transform="scale(0.015625)"/>
      <path d="M 2588 409 
Q 2275 144 1986 34 
Q 1697 -75 1366 -75 
Q 819 -75 525 192 
Q 231 459 231 875 
Q 231 1119 342 1320 
Q 453 1522 633 1644 
Q 813 1766 1038 1828 
Q 1203 1872 1538 1913 
Q 2219 1994 2541 2106 
Q 2544 2222 2544 2253 
Q 2544 2597 2384 2738 
Q 2169 2928 1744 2928 
Q 1347 2928 1158 2789 
Q 969 2650 878 2297 
L 328 2372 
Q 403 2725 575 2942 
Q 747 3159 1072 3276 
Q 1397 3394 1825 3394 
Q 2250 3394 2515 3294 
Q 2781 3194 2906 3042 
Q 3031 2891 3081 2659 
Q 3109 2516 3109 2141 
L 3109 1391 
Q 3109 606 3145 398 
Q 3181 191 3288 0 
L 2700 0 
Q 2613 175 2588 409 
z
M 2541 1666 
Q 2234 1541 1622 1453 
Q 1275 1403 1131 1340 
Q 988 1278 909 1158 
Q 831 1038 831 891 
Q 831 666 1001 516 
Q 1172 366 1500 366 
Q 1825 366 2078 508 
Q 2331 650 2450 897 
Q 2541 1088 2541 1459 
L 2541 1666 
z
" id="ArialMT-61" transform="scale(0.015625)"/>
      <path d="M 197 991 
L 753 1078 
Q 800 744 1014 566 
Q 1228 388 1613 388 
Q 2000 388 2187 545 
Q 2375 703 2375 916 
Q 2375 1106 2209 1216 
Q 2094 1291 1634 1406 
Q 1016 1563 777 1677 
Q 538 1791 414 1992 
Q 291 2194 291 2438 
Q 291 2659 392 2848 
Q 494 3038 669 3163 
Q 800 3259 1026 3326 
Q 1253 3394 1513 3394 
Q 1903 3394 2198 3281 
Q 2494 3169 2634 2976 
Q 2775 2784 2828 2463 
L 2278 2388 
Q 2241 2644 2061 2787 
Q 1881 2931 1553 2931 
Q 1166 2931 1000 2803 
Q 834 2675 834 2503 
Q 834 2394 903 2306 
Q 972 2216 1119 2156 
Q 1203 2125 1616 2013 
Q 2213 1853 2448 1751 
Q 2684 1650 2818 1456 
Q 2953 1263 2953 975 
Q 2953 694 2789 445 
Q 2625 197 2315 61 
Q 2006 -75 1616 -75 
Q 969 -75 630 194 
Q 291 463 197 991 
z
" id="ArialMT-73" transform="scale(0.015625)"/>
     </defs>
     <use xlink:href="#ArialMT-53"/>
     <use x="66.699219" xlink:href="#ArialMT-6f"/>
     <use x="122.314453" xlink:href="#ArialMT-75"/>
     <use x="177.929688" xlink:href="#ArialMT-72"/>
     <use x="211.230469" xlink:href="#ArialMT-63"/>
     <use x="261.230469" xlink:href="#ArialMT-65"/>
     <use x="316.845703" xlink:href="#ArialMT-20"/>
     <use x="344.628906" xlink:href="#ArialMT-64"/>
     <use x="400.244141" xlink:href="#ArialMT-61"/>
     <use x="455.859375" xlink:href="#ArialMT-74"/>
     <use x="483.642578" xlink:href="#ArialMT-61"/>
     <use x="539.257812" xlink:href="#ArialMT-73"/>
     <use x="589.257812" xlink:href="#ArialMT-65"/>
     <use x="644.873047" xlink:href="#ArialMT-74"/>
    </g>
   </g>
   <g id="line2d_72">
    <path d="M 719.728594 171.408047 
L 741.728594 171.408047 
" style="fill:none;stroke:#fc8d62;stroke-linecap:round;stroke-width:1.5;"/>
   </g>
   <g id="line2d_73"/>
   <g id="text_15">
    <!-- ImageNet -->
    <g style="fill:#262626;" transform="translate(750.528594 175.258047)scale(0.11 -0.11)">
     <defs>
      <path d="M 597 0 
L 597 4581 
L 1203 4581 
L 1203 0 
L 597 0 
z
" id="ArialMT-49" transform="scale(0.015625)"/>
      <path d="M 422 0 
L 422 3319 
L 925 3319 
L 925 2853 
Q 1081 3097 1340 3245 
Q 1600 3394 1931 3394 
Q 2300 3394 2536 3241 
Q 2772 3088 2869 2813 
Q 3263 3394 3894 3394 
Q 4388 3394 4653 3120 
Q 4919 2847 4919 2278 
L 4919 0 
L 4359 0 
L 4359 2091 
Q 4359 2428 4304 2576 
Q 4250 2725 4106 2815 
Q 3963 2906 3769 2906 
Q 3419 2906 3187 2673 
Q 2956 2441 2956 1928 
L 2956 0 
L 2394 0 
L 2394 2156 
Q 2394 2531 2256 2718 
Q 2119 2906 1806 2906 
Q 1569 2906 1367 2781 
Q 1166 2656 1075 2415 
Q 984 2175 984 1722 
L 984 0 
L 422 0 
z
" id="ArialMT-6d" transform="scale(0.015625)"/>
      <path d="M 319 -275 
L 866 -356 
Q 900 -609 1056 -725 
Q 1266 -881 1628 -881 
Q 2019 -881 2231 -725 
Q 2444 -569 2519 -288 
Q 2563 -116 2559 434 
Q 2191 0 1641 0 
Q 956 0 581 494 
Q 206 988 206 1678 
Q 206 2153 378 2554 
Q 550 2956 876 3175 
Q 1203 3394 1644 3394 
Q 2231 3394 2613 2919 
L 2613 3319 
L 3131 3319 
L 3131 450 
Q 3131 -325 2973 -648 
Q 2816 -972 2473 -1159 
Q 2131 -1347 1631 -1347 
Q 1038 -1347 672 -1080 
Q 306 -813 319 -275 
z
M 784 1719 
Q 784 1066 1043 766 
Q 1303 466 1694 466 
Q 2081 466 2343 764 
Q 2606 1063 2606 1700 
Q 2606 2309 2336 2618 
Q 2066 2928 1684 2928 
Q 1309 2928 1046 2623 
Q 784 2319 784 1719 
z
" id="ArialMT-67" transform="scale(0.015625)"/>
      <path d="M 488 0 
L 488 4581 
L 1109 4581 
L 3516 984 
L 3516 4581 
L 4097 4581 
L 4097 0 
L 3475 0 
L 1069 3600 
L 1069 0 
L 488 0 
z
" id="ArialMT-4e" transform="scale(0.015625)"/>
     </defs>
     <use xlink:href="#ArialMT-49"/>
     <use x="27.783203" xlink:href="#ArialMT-6d"/>
     <use x="111.083984" xlink:href="#ArialMT-61"/>
     <use x="166.699219" xlink:href="#ArialMT-67"/>
     <use x="222.314453" xlink:href="#ArialMT-65"/>
     <use x="277.929688" xlink:href="#ArialMT-4e"/>
     <use x="350.146484" xlink:href="#ArialMT-65"/>
     <use x="405.761719" xlink:href="#ArialMT-74"/>
    </g>
   </g>
   <g id="line2d_74">
    <path d="M 719.728594 187.230859 
L 741.728594 187.230859 
" style="fill:none;stroke:#e78ac3;stroke-linecap:round;stroke-width:1.5;"/>
   </g>
   <g id="line2d_75"/>
   <g id="text_16">
    <!-- Stylized ImageNet -->
    <g style="fill:#262626;" transform="translate(750.528594 191.080859)scale(0.11 -0.11)">
     <defs>
      <path d="M 397 -1278 
L 334 -750 
Q 519 -800 656 -800 
Q 844 -800 956 -737 
Q 1069 -675 1141 -563 
Q 1194 -478 1313 -144 
Q 1328 -97 1363 -6 
L 103 3319 
L 709 3319 
L 1400 1397 
Q 1534 1031 1641 628 
Q 1738 1016 1872 1384 
L 2581 3319 
L 3144 3319 
L 1881 -56 
Q 1678 -603 1566 -809 
Q 1416 -1088 1222 -1217 
Q 1028 -1347 759 -1347 
Q 597 -1347 397 -1278 
z
" id="ArialMT-79" transform="scale(0.015625)"/>
      <path d="M 425 3934 
L 425 4581 
L 988 4581 
L 988 3934 
L 425 3934 
z
M 425 0 
L 425 3319 
L 988 3319 
L 988 0 
L 425 0 
z
" id="ArialMT-69" transform="scale(0.015625)"/>
      <path d="M 125 0 
L 125 456 
L 2238 2881 
Q 1878 2863 1603 2863 
L 250 2863 
L 250 3319 
L 2963 3319 
L 2963 2947 
L 1166 841 
L 819 456 
Q 1197 484 1528 484 
L 3063 484 
L 3063 0 
L 125 0 
z
" id="ArialMT-7a" transform="scale(0.015625)"/>
     </defs>
     <use xlink:href="#ArialMT-53"/>
     <use x="66.699219" xlink:href="#ArialMT-74"/>
     <use x="94.482422" xlink:href="#ArialMT-79"/>
     <use x="144.482422" xlink:href="#ArialMT-6c"/>
     <use x="166.699219" xlink:href="#ArialMT-69"/>
     <use x="188.916016" xlink:href="#ArialMT-7a"/>
     <use x="238.916016" xlink:href="#ArialMT-65"/>
     <use x="294.53125" xlink:href="#ArialMT-64"/>
     <use x="350.146484" xlink:href="#ArialMT-20"/>
     <use x="377.929688" xlink:href="#ArialMT-49"/>
     <use x="405.712891" xlink:href="#ArialMT-6d"/>
     <use x="489.013672" xlink:href="#ArialMT-61"/>
     <use x="544.628906" xlink:href="#ArialMT-67"/>
     <use x="600.244141" xlink:href="#ArialMT-65"/>
     <use x="655.859375" xlink:href="#ArialMT-4e"/>
     <use x="728.076172" xlink:href="#ArialMT-65"/>
     <use x="783.691406" xlink:href="#ArialMT-74"/>
    </g>
   </g>
   <g id="line2d_76">
    <path d="M 719.728594 203.053672 
L 741.728594 203.053672 
" style="fill:none;stroke:#a6d854;stroke-linecap:round;stroke-width:1.5;"/>
   </g>
   <g id="line2d_77"/>
   <g id="text_17">
    <!-- DomainNet, Clipart domain -->
    <g style="fill:#262626;" transform="translate(750.528594 206.903672)scale(0.11 -0.11)">
     <defs>
      <path d="M 494 0 
L 494 4581 
L 2072 4581 
Q 2606 4581 2888 4516 
Q 3281 4425 3559 4188 
Q 3922 3881 4101 3404 
Q 4281 2928 4281 2316 
Q 4281 1794 4159 1391 
Q 4038 988 3847 723 
Q 3656 459 3429 307 
Q 3203 156 2883 78 
Q 2563 0 2147 0 
L 494 0 
z
M 1100 541 
L 2078 541 
Q 2531 541 2789 625 
Q 3047 709 3200 863 
Q 3416 1078 3536 1442 
Q 3656 1806 3656 2325 
Q 3656 3044 3420 3430 
Q 3184 3816 2847 3947 
Q 2603 4041 2063 4041 
L 1100 4041 
L 1100 541 
z
" id="ArialMT-44" transform="scale(0.015625)"/>
      <path d="M 569 0 
L 569 641 
L 1209 641 
L 1209 0 
Q 1209 -353 1084 -570 
Q 959 -788 688 -906 
L 531 -666 
Q 709 -588 793 -436 
Q 878 -284 888 0 
L 569 0 
z
" id="ArialMT-2c" transform="scale(0.015625)"/>
      <path d="M 3763 1606 
L 4369 1453 
Q 4178 706 3683 314 
Q 3188 -78 2472 -78 
Q 1731 -78 1267 223 
Q 803 525 561 1097 
Q 319 1669 319 2325 
Q 319 3041 592 3573 
Q 866 4106 1370 4382 
Q 1875 4659 2481 4659 
Q 3169 4659 3637 4309 
Q 4106 3959 4291 3325 
L 3694 3184 
Q 3534 3684 3231 3912 
Q 2928 4141 2469 4141 
Q 1941 4141 1586 3887 
Q 1231 3634 1087 3207 
Q 944 2781 944 2328 
Q 944 1744 1114 1308 
Q 1284 872 1643 656 
Q 2003 441 2422 441 
Q 2931 441 3284 734 
Q 3638 1028 3763 1606 
z
" id="ArialMT-43" transform="scale(0.015625)"/>
      <path d="M 422 -1272 
L 422 3319 
L 934 3319 
L 934 2888 
Q 1116 3141 1344 3267 
Q 1572 3394 1897 3394 
Q 2322 3394 2647 3175 
Q 2972 2956 3137 2557 
Q 3303 2159 3303 1684 
Q 3303 1175 3120 767 
Q 2938 359 2589 142 
Q 2241 -75 1856 -75 
Q 1575 -75 1351 44 
Q 1128 163 984 344 
L 984 -1272 
L 422 -1272 
z
M 931 1641 
Q 931 1000 1190 694 
Q 1450 388 1819 388 
Q 2194 388 2461 705 
Q 2728 1022 2728 1688 
Q 2728 2322 2467 2637 
Q 2206 2953 1844 2953 
Q 1484 2953 1207 2617 
Q 931 2281 931 1641 
z
" id="ArialMT-70" transform="scale(0.015625)"/>
     </defs>
     <use xlink:href="#ArialMT-44"/>
     <use x="72.216797" xlink:href="#ArialMT-6f"/>
     <use x="127.832031" xlink:href="#ArialMT-6d"/>
     <use x="211.132812" xlink:href="#ArialMT-61"/>
     <use x="266.748047" xlink:href="#ArialMT-69"/>
     <use x="288.964844" xlink:href="#ArialMT-6e"/>
     <use x="344.580078" xlink:href="#ArialMT-4e"/>
     <use x="416.796875" xlink:href="#ArialMT-65"/>
     <use x="472.412109" xlink:href="#ArialMT-74"/>
     <use x="500.195312" xlink:href="#ArialMT-2c"/>
     <use x="527.978516" xlink:href="#ArialMT-20"/>
     <use x="555.761719" xlink:href="#ArialMT-43"/>
     <use x="627.978516" xlink:href="#ArialMT-6c"/>
     <use x="650.195312" xlink:href="#ArialMT-69"/>
     <use x="672.412109" xlink:href="#ArialMT-70"/>
     <use x="728.027344" xlink:href="#ArialMT-61"/>
     <use x="783.642578" xlink:href="#ArialMT-72"/>
     <use x="816.943359" xlink:href="#ArialMT-74"/>
     <use x="844.726562" xlink:href="#ArialMT-20"/>
     <use x="872.509766" xlink:href="#ArialMT-64"/>
     <use x="928.125" xlink:href="#ArialMT-6f"/>
     <use x="983.740234" xlink:href="#ArialMT-6d"/>
     <use x="1067.041016" xlink:href="#ArialMT-61"/>
     <use x="1122.65625" xlink:href="#ArialMT-69"/>
     <use x="1144.873047" xlink:href="#ArialMT-6e"/>
    </g>
   </g>
  </g>
 </g>
 <defs>
  <clipPath id="pb771927944">
   <rect height="300.58" width="325.579979" x="47.053265" y="26.96"/>
  </clipPath>
  <clipPath id="p70e620b700">
   <rect height="300.58" width="325.579979" x="385.495271" y="26.96"/>
  </clipPath>
 </defs>
</svg>
